<?xml version="1.0" encoding="UTF-8" standalone="no"?><!-- Generator: Gravit.io --><svg xmlns="http://www.w3.org/2000/svg" xmlns:xlink="http://www.w3.org/1999/xlink" style="isolation:isolate" viewBox="0 0 200 200" width="200pt" height="200pt"><g id="cat"><g id="hair"><path d=" M 80 46.047 C 84.561 44.934 89.257 44.029 94 43.778 C 92.162 57.504 92.172 71.735 94 86 C 89.329 76.466 84.672 63.189 80 46.047 Z " id="Tracé" fill="rgb(202,190,186)"/><path d=" M 29.637 93.112 C 31.08 88.645 32.771 84.17 35.043 80 C 45.769 88.759 57.894 96.211 71 102.131 C 60.432 101.112 46.685 98.118 29.637 93.112 Z " id="Tracé" fill="rgb(202,190,186)"/><path d=" M 27.626 104.919 C 27.75 102.661 27.988 100.369 28.535 98.148 C 34.606 100.912 41.169 102.895 48 104.044 C 42.952 104.866 36.181 105.159 27.626 104.919 Z " id="Tracé" fill="rgb(202,190,186)"/><path d=" M 170.363 93.112 C 168.92 88.645 167.229 84.17 164.957 80 C 154.231 88.759 142.106 96.211 129 102.131 C 139.568 101.112 153.315 98.118 170.363 93.112 Z " id="Tracé" fill="rgb(202,190,186)"/><path d=" M 120 46.047 C 115.439 44.934 110.743 44.029 106 43.778 C 107.838 57.504 107.828 71.735 106 86 C 110.671 76.466 115.328 63.189 120 46.047 Z " id="Tracé" fill="rgb(202,190,186)"/></g></g></svg>