<?xml version="1.0" encoding="UTF-8" standalone="no"?><!-- Generator: Gravit.io --><svg xmlns="http://www.w3.org/2000/svg" xmlns:xlink="http://www.w3.org/1999/xlink" style="isolation:isolate" viewBox="0 0 200 200" width="200pt" height="200pt"><defs><mask id="_mask_Z4z10lVMHNnJBi1PiC554IfQjuwpnldj"><path d="M -196 -75.25 L 187 -75.25 L 187 212 L -196 212 L -196 -75.25 Z" style="stroke:black;fill:white;stroke-miterlimit:10;"/></mask><mask id="_mask_n2ue8K2tRV60Ot6L32gBB9beeJx3InV1"><path d="M -196 -75.25 L 187 -75.25 L 187 212 L -196 212 L -196 -75.25 Z" style="stroke:black;fill:white;stroke-miterlimit:10;"/></mask></defs><g mask="url(#_mask_n2ue8K2tRV60Ot6L32gBB9beeJx3InV1)"><g mask="url(#_mask_Z4z10lVMHNnJBi1PiC554IfQjuwpnldj)"/></g><g mask="url(#_mask_Z4z10lVMHNnJBi1PiC554IfQjuwpnldj)"><use xlink:href="#img_VXNgzhZlEqZoBOxweqqAtvILOHCYKwqh" transform="matrix(0.374,0,0,0.374,-196,-75.25)" preserveAspectRatio="none" style=""/></g><g id="backgrounds"><ellipse vector-effect="non-scaling-stroke" cx="100" cy="175.5" rx="100" ry="24.5" id="present" fill="rgb(244,244,244)"/></g><g id="bear"><g id="ears"><circle vector-effect="non-scaling-stroke" cx="51.28043831168817" cy="53.67045454545455" r="20.590909090909093" id="outerL" fill="rgb(179,140,81)"/><circle vector-effect="non-scaling-stroke" cx="148.71956168831144" cy="53.67045454545455" r="20.590909090909093" id="outerR" fill="rgb(179,140,81)"/><circle vector-effect="non-scaling-stroke" cx="51.28043831168816" cy="53.67045454545455" r="13.72727272727279" id="innerL" fill="rgb(240,200,139)"/><circle vector-effect="non-scaling-stroke" cx="148.71956168831144" cy="53.67045454545455" r="13.727272727272805" id="innerR" fill="rgb(240,200,139)"/></g><g id="body"><ellipse vector-effect="non-scaling-stroke" cx="100" cy="99.99999999999999" rx="75.5" ry="66.92045454545455" id="outer" fill="rgb(179,140,81)"/></g><ellipse vector-effect="non-scaling-stroke" cx="99.99999999999997" cy="137.75" rx="29.17045454545456" ry="22.306818181818187" id="Ellips" fill="rgb(255,237,197)"/><ellipse vector-effect="non-scaling-stroke" cx="100" cy="131.91590909090894" rx="9.437500000000043" ry="7.55000000000004" id="Ellips" fill="rgb(107,80,43)"/><g id="eyes"><circle vector-effect="non-scaling-stroke" cx="64.14975649350632" cy="112.86931818181812" r="12.869318181818183" id="Ellips" fill="rgb(255,255,255)"/><circle vector-effect="non-scaling-stroke" cx="65.19061077453465" cy="113.66693792676385" r="6.5562763589503135" id="Ellips" fill="rgb(115,85,44)"/><circle vector-effect="non-scaling-stroke" cx="135.8502435064933" cy="112.86931818181812" r="12.869318181818187" id="Ellips" fill="rgb(255,255,255)"/><circle vector-effect="non-scaling-stroke" cx="133.7227310382914" cy="113.66693792676385" r="6.556276358950306" id="Ellips" fill="rgb(115,85,44)"/></g><g id="mouth"><mask id="_mask_DRWQmAtT54h5NF1TAGDx8pXjq5yALEKM"><path d=" M 100.438 139.466 L 100.438 144.758 Q 97.179 148.325 93.182 148.325 C 90.325 148.325 87.202 145.433 84.403 141.184" id="Tracé" fill="white" stroke="none"/></mask><path d=" M 100.438 139.466 L 100.438 144.758 Q 97.179 148.325 93.182 148.325 C 90.325 148.325 87.202 145.433 84.403 141.184" id="Tracé" fill="none"/><path d=" M 100.438 139.466 L 100.438 144.758 Q 97.179 148.325 93.182 148.325 C 90.325 148.325 87.202 145.433 84.403 141.184" id="Tracé" fill="none" mask="url(#_mask_DRWQmAtT54h5NF1TAGDx8pXjq5yALEKM)" vector-effect="non-scaling-stroke" stroke-width="2" stroke="rgb(101,76,7)" stroke-linejoin="miter" stroke-linecap="square" stroke-miterlimit="3"/><mask id="_mask_rg4OjCP9unNelrB1M1DUyk0mpSZW0MK9"><path d=" M 99.562 139.466 L 99.562 144.758 Q 102.821 148.325 106.818 148.325 C 109.675 148.325 112.798 145.433 115.597 141.184" id="Tracé" fill="white" stroke="none"/></mask><path d=" M 99.562 139.466 L 99.562 144.758 Q 102.821 148.325 106.818 148.325 C 109.675 148.325 112.798 145.433 115.597 141.184" id="Tracé" fill="none"/><path d=" M 99.562 139.466 L 99.562 144.758 Q 102.821 148.325 106.818 148.325 C 109.675 148.325 112.798 145.433 115.597 141.184" id="Tracé" fill="none" mask="url(#_mask_rg4OjCP9unNelrB1M1DUyk0mpSZW0MK9)" vector-effect="non-scaling-stroke" stroke-width="2" stroke="rgb(101,76,7)" stroke-linejoin="miter" stroke-linecap="square" stroke-miterlimit="3"/></g><g id="attributes"><g id="subglasses"><g id="Groep"><path d=" M 50.622 108.295 L 47.493 108.295 C 46.57 108.295 45.821 107.547 45.821 106.624 C 45.821 105.701 46.57 104.952 47.493 104.952 L 50.623 104.952 C 51.546 104.952 52.294 105.701 52.294 106.624 C 52.294 107.547 51.545 108.295 50.622 108.295 Z " id="Tracé" fill="rgb(195,196,199)"/><path d=" M 152.507 108.295 L 149.377 108.295 C 148.454 108.295 147.706 107.547 147.706 106.624 C 147.706 105.701 148.454 104.952 149.377 104.952 L 152.507 104.952 C 153.431 104.952 154.179 105.701 154.179 106.624 C 154.179 107.547 153.43 108.295 152.507 108.295 Z " id="Tracé" fill="rgb(195,196,199)"/></g><path d=" M 109.309 106.175 C 107.887 106.175 106.807 105.664 105.763 105.17 C 104.434 104.541 102.927 103.828 100 103.828 C 97.074 103.828 95.567 104.541 94.238 105.17 C 93.194 105.664 92.114 106.175 90.692 106.175 L 90.692 102.832 C 91.334 102.832 91.859 102.598 92.808 102.149 C 94.292 101.447 96.323 100.486 100.001 100.486 C 103.678 100.486 105.71 101.447 107.193 102.149 C 108.142 102.598 108.668 102.832 109.309 102.832 L 109.309 106.175 L 109.309 106.175 Z " id="Tracé" fill="rgb(195,196,199)"/><path d=" M 89.781 101.066 C 86.223 97.704 81.07 96 74.466 96 C 68.788 96 64.187 97.263 60.745 99.752 C 60.744 99.752 60.742 99.751 60.742 99.751 C 57.844 101.711 53.552 103.784 50.8 104.298 C 50.138 104.422 49.656 104.992 49.656 105.665 L 49.656 107.297 C 49.656 108.064 50.131 108.749 50.849 109.019 C 52.114 109.494 53.93 110.846 53.93 114.688 C 53.93 125.831 63.143 134.896 74.466 134.896 C 85.789 134.896 95.001 125.831 95.001 114.688 C 95.001 108.921 93.245 104.338 89.781 101.066 Z " id="Tracé" fill="rgb(237,163,178)"/><path d=" M 90.307 114.688 C 90.307 106.12 85.59 100.694 74.466 100.694 C 63.341 100.694 58.624 106.12 58.624 114.688 C 58.624 123.257 65.717 130.203 74.466 130.203 C 83.215 130.203 90.307 123.257 90.307 114.688 Z " id="Tracé" fill="rgb(57,64,73)"/><g opacity="0.2"><path d=" M 74.465 100.694 C 63.341 100.694 58.624 106.12 58.624 114.688 C 58.624 114.865 58.632 115.04 58.637 115.216 C 58.92 107.1 63.682 102.001 74.465 102.001 C 85.248 102.001 90.011 107.1 90.293 115.216 C 90.299 115.04 90.307 114.865 90.307 114.688 C 90.307 106.12 85.59 100.694 74.465 100.694 Z " id="Tracé" fill="rgb(0,0,0)"/></g><path d=" M 110.219 101.066 C 113.777 97.704 118.93 96 125.534 96 C 131.212 96 135.813 97.263 139.255 99.752 C 139.256 99.752 139.258 99.751 139.258 99.751 C 142.156 101.711 146.448 103.784 149.2 104.298 C 149.862 104.422 150.344 104.992 150.344 105.665 L 150.344 107.297 C 150.344 108.064 149.869 108.749 149.151 109.019 C 147.886 109.494 146.07 110.846 146.07 114.688 C 146.07 125.831 136.857 134.896 125.534 134.896 C 114.211 134.896 104.999 125.831 104.999 114.688 C 104.999 108.921 106.755 104.338 110.219 101.066 Z " id="Tracé" fill="rgb(237,163,178)"/><path d=" M 109.693 114.688 C 109.693 106.12 114.41 100.694 125.534 100.694 C 136.659 100.694 141.376 106.12 141.376 114.688 C 141.376 123.257 134.283 130.203 125.534 130.203 C 116.785 130.203 109.693 123.257 109.693 114.688 Z " id="Tracé" fill="rgb(57,64,73)"/><g opacity="0.2"><path d=" M 125.535 100.694 C 136.659 100.694 141.376 106.12 141.376 114.688 C 141.376 114.865 141.368 115.04 141.363 115.216 C 141.08 107.1 136.318 102.001 125.535 102.001 C 114.752 102.001 109.989 107.1 109.707 115.216 C 109.701 115.04 109.693 114.865 109.693 114.688 C 109.693 106.12 114.41 100.694 125.535 100.694 Z " id="Tracé" fill="rgb(0,0,0)"/></g><g id="Groep"><g opacity="0.15"><path d=" M 74.465 100.694 C 63.341 100.694 58.624 106.12 58.624 114.688 C 58.624 117.87 59.603 120.826 61.28 123.288 L 82.56 102.008 C 80.372 101.152 77.69 100.694 74.465 100.694 Z " id="Tracé" fill="rgb(255,255,255)"/></g><g opacity="0.15"><path d=" M 139.813 107.398 L 118.581 128.63 C 120.68 129.636 123.039 130.203 125.534 130.203 C 134.284 130.203 141.376 123.257 141.376 114.688 C 141.376 111.897 140.872 109.443 139.813 107.398 Z " id="Tracé" fill="rgb(255,255,255)"/></g></g></g></g></g><g id="cat"><g id="body"><path d=" M 75.784 47.284 C 83.361 44.856 91.512 43.535 100 43.535 C 108.488 43.535 116.639 44.856 124.216 47.284 Q 147.585 14.928 152.448 16.542 C 160.305 19.15 162.766 37.557 159.734 71.875 C 167.94 82.551 172.75 95.529 172.75 109.517 C 172.75 145.934 140.152 175.5 100 175.5 C 59.848 175.5 27.25 145.934 27.25 109.517 C 27.25 95.529 32.06 82.551 40.266 71.875 C 37.234 37.557 39.695 19.15 47.552 16.542 Q 52.415 14.928 75.784 47.284 Z " fill-rule="evenodd" id="outer" fill="rgb(226,215,211)"/><path d=" M 149.271 26.672 Q 145.593 25.451 127.542 50.379 C 136.638 55.526 145.294 59.362 154.161 67.221 C 156.905 39.842 155.25 28.657 149.271 26.672 Z  M 50.271 26.672 Q 53.948 25.451 72 50.379 C 62.904 55.526 54.248 59.362 45.381 67.221 C 42.637 39.842 44.291 28.657 50.271 26.672 Z " fill-rule="evenodd" id="inner" fill="rgb(255,243,196)"/></g><g id="eyes"><circle vector-effect="non-scaling-stroke" cx="67.0087209302325" cy="121.36046511628288" r="11.843023255813947" id="Ellips" fill="rgb(255,255,255)"/><circle vector-effect="non-scaling-stroke" cx="67.96656976744188" cy="122.09447674418993" r="6.033430232558121" id="Ellips" fill="rgb(115,85,44)"/><circle vector-effect="non-scaling-stroke" cx="132.9912790697674" cy="121.36046511628288" r="11.843023255813954" id="Ellips" fill="rgb(255,255,255)"/><circle vector-effect="non-scaling-stroke" cx="131.03343023255815" cy="122.09447674418993" r="6.033430232558118" id="Ellips" fill="rgb(115,85,44)"/></g><g id="nose"><ellipse vector-effect="non-scaling-stroke" cx="100" cy="137.01308139535325" rx="4.776889534882699" ry="3.1845930232551325" id="outer" fill="rgb(115,85,44)"/></g><g id="mouth"><mask id="_mask_nowh0M6XDzmA3Cx1w0Focb0MYhmSxcLd"><path d=" M 100.523 140.198 L 100.523 146.513 Q 96.634 150.768 91.865 150.768 C 88.456 150.768 84.729 147.317 81.39 142.248" id="Tracé" fill="white" stroke="none"/></mask><path d=" M 100.523 140.198 L 100.523 146.513 Q 96.634 150.768 91.865 150.768 C 88.456 150.768 84.729 147.317 81.39 142.248" id="Tracé" fill="none"/><path d=" M 100.523 140.198 L 100.523 146.513 Q 96.634 150.768 91.865 150.768 C 88.456 150.768 84.729 147.317 81.39 142.248" id="Tracé" fill="none" mask="url(#_mask_nowh0M6XDzmA3Cx1w0Focb0MYhmSxcLd)" vector-effect="non-scaling-stroke" stroke-width="2" stroke="rgb(101,76,7)" stroke-linejoin="miter" stroke-linecap="square" stroke-miterlimit="3"/><mask id="_mask_WgGrKj5hRQLA1LiAq3fkjCOw8uaY94j7"><path d=" M 99.477 140.198 L 99.477 146.513 Q 103.366 150.768 108.135 150.768 C 111.544 150.768 115.271 147.317 118.61 142.248" id="Tracé" fill="white" stroke="none"/></mask><path d=" M 99.477 140.198 L 99.477 146.513 Q 103.366 150.768 108.135 150.768 C 111.544 150.768 115.271 147.317 118.61 142.248" id="Tracé" fill="none"/><path d=" M 99.477 140.198 L 99.477 146.513 Q 103.366 150.768 108.135 150.768 C 111.544 150.768 115.271 147.317 118.61 142.248" id="Tracé" fill="none" mask="url(#_mask_WgGrKj5hRQLA1LiAq3fkjCOw8uaY94j7)" vector-effect="non-scaling-stroke" stroke-width="2" stroke="rgb(101,76,7)" stroke-linejoin="miter" stroke-linecap="square" stroke-miterlimit="3"/></g><g id="hairs"><path d=" M 129.274 140.621 C 148.333 134.065 166.574 132.663 183.875 136.312" id="Tracé" fill="none" vector-effect="non-scaling-stroke" stroke-width="0.5" stroke="rgb(139,139,139)" stroke-linejoin="miter" stroke-linecap="square" stroke-miterlimit="3"/><path d=" M 129.455 148.697 C 147.156 144.916 163.569 145.642 178.598 150.768" id="Tracé" fill="none" vector-effect="non-scaling-stroke" stroke-width="0.5" stroke="rgb(139,139,139)" stroke-linejoin="miter" stroke-linecap="square" stroke-miterlimit="3"/><path d=" M 70.726 140.621 C 51.667 134.065 33.426 132.663 16.125 136.312" id="Tracé" fill="none" vector-effect="non-scaling-stroke" stroke-width="0.5" stroke="rgb(139,139,139)" stroke-linejoin="miter" stroke-linecap="square" stroke-miterlimit="3"/><path d=" M 70.545 148.697 C 52.844 144.916 36.431 145.642 21.402 150.768" id="Tracé" fill="none" vector-effect="non-scaling-stroke" stroke-width="0.5" stroke="rgb(139,139,139)" stroke-linejoin="miter" stroke-linecap="square" stroke-miterlimit="3"/></g><g id="hair"><path d=" M 80 46.047 C 84.561 44.934 89.257 44.029 94 43.778 C 92.162 57.504 92.172 71.735 94 86 C 89.329 76.466 84.672 63.189 80 46.047 Z " id="Tracé" fill="rgb(188,180,177)"/><path d=" M 120 46.047 C 115.439 44.934 110.743 44.029 106 43.778 C 107.838 57.504 107.828 71.735 106 86 C 110.671 76.466 115.328 63.189 120 46.047 Z " id="Tracé" fill="rgb(188,180,177)"/></g><g id="attributes"><g id="sunglasses"><path d=" M 75.401 109.579 C 69.115 109.579 55.136 110.446 55.136 123.667 C 55.136 136.888 60.338 146.424 70.524 146.424 C 80.711 146.424 95.34 135.587 95.34 117.815 C 95.34 109.146 83.42 109.579 75.401 109.579 Z " id="Tracé" fill="rgb(233,210,134)"/><g opacity="0.3"><path d=" M 75.401 109.579 C 69.115 109.579 55.136 110.446 55.136 123.667 C 55.136 129.362 56.102 134.373 58.015 138.232 L 86.218 110.03 C 82.69 109.506 78.713 109.579 75.401 109.579 Z " id="Tracé" fill="rgb(255,255,255)"/></g><g id="Groep"><rect x="75.4" y="108.003" width="49.197" height="3.152" transform="matrix(1,0,0,1,0,0)" id="Rechthoek" fill="rgb(57,64,73)"/><path d=" M 96.005 119.244 L 94.675 116.387 C 95.865 115.832 97.806 115.515 100 115.515 C 102.194 115.515 104.135 115.832 105.325 116.387 L 103.994 119.244 C 103.423 118.977 102.034 118.667 100 118.667 C 97.966 118.667 96.577 118.977 96.005 119.244 Z " id="Tracé" fill="rgb(57,64,73)"/><path d=" M 70.524 148 C 65.105 148 60.664 145.528 57.681 140.851 C 54.985 136.622 53.56 130.68 53.56 123.667 C 53.56 116.521 57.349 108.003 75.401 108.003 C 75.758 108.003 76.123 108.003 76.494 108.002 C 82.81 107.988 90.673 107.968 94.588 111.874 C 96.133 113.416 96.916 115.415 96.916 117.815 C 96.916 136.517 81.545 148 70.524 148 Z  M 77.617 111.152 C 77.237 111.152 76.865 111.152 76.501 111.153 C 76.127 111.154 75.76 111.155 75.401 111.155 C 70.432 111.155 66.554 111.794 63.542 113.109 C 58.946 115.116 56.712 118.57 56.712 123.667 C 56.712 130.078 57.966 135.434 60.339 139.156 C 62.747 142.933 66.174 144.848 70.524 144.848 C 75.419 144.848 81.21 142.097 85.638 137.67 C 90.879 132.429 93.765 125.378 93.765 117.815 C 93.765 116.26 93.306 115.047 92.362 114.105 C 89.572 111.323 82.909 111.152 77.617 111.152 Z " id="Samengesteld tracé" fill="rgb(57,64,73)"/></g><path d=" M 124.598 109.579 C 130.883 109.579 144.863 110.446 144.863 123.667 C 144.863 136.888 139.661 146.424 129.475 146.424 C 119.288 146.424 104.659 135.587 104.659 117.815 C 104.658 109.146 116.579 109.579 124.598 109.579 Z " id="Tracé" fill="rgb(233,210,134)"/><g opacity="0.2"><path d=" M 139.788 113.168 L 113.714 139.241 C 118.565 143.882 124.541 146.424 129.474 146.424 C 139.661 146.424 144.862 136.888 144.862 123.667 C 144.862 118.522 142.745 115.248 139.788 113.168 Z " id="Tracé" fill="rgb(255,255,255)"/></g><path d=" M 129.474 148 C 118.454 148 103.082 136.517 103.082 117.815 C 103.082 115.415 103.866 113.416 105.411 111.875 C 109.326 107.968 117.189 107.987 123.505 108.002 C 123.876 108.003 124.241 108.004 124.598 108.004 L 124.598 108.004 C 142.649 108.004 146.438 116.521 146.438 123.667 C 146.438 130.68 145.013 136.622 142.317 140.851 C 139.335 145.528 134.894 148 129.474 148 Z  M 122.382 111.152 C 117.09 111.152 110.427 111.322 107.637 114.106 C 106.693 115.047 106.234 116.261 106.234 117.815 C 106.234 125.378 109.12 132.429 114.361 137.67 C 118.789 142.098 124.58 144.848 129.475 144.848 C 133.825 144.848 137.252 142.933 139.66 139.156 C 142.033 135.435 143.287 130.079 143.287 123.667 C 143.287 118.57 141.053 115.117 136.457 113.11 C 133.445 111.795 129.566 111.156 124.598 111.156 C 124.239 111.156 123.871 111.155 123.498 111.154 C 123.134 111.153 122.761 111.152 122.382 111.152 Z " id="Samengesteld tracé" fill="rgb(57,64,73)"/><g opacity="0.2"><path d=" M 56.712 123.667 C 56.712 123.317 56.723 122.976 56.745 122.641 C 56.587 122.597 56.425 122.572 56.258 122.572 L 53.591 122.572 C 53.57 122.94 53.56 123.305 53.56 123.667 C 53.56 125.163 53.629 126.607 53.757 128 L 56.258 128 C 56.483 128 56.703 127.956 56.909 127.877 C 56.78 126.532 56.712 125.129 56.712 123.667 Z " id="Tracé" fill="rgb(0,0,0)"/></g><g opacity="0.2"><path d=" M 143.288 123.667 C 143.288 123.317 143.277 122.976 143.255 122.641 C 143.413 122.597 143.575 122.572 143.742 122.572 L 146.409 122.572 C 146.429 122.94 146.44 123.305 146.44 123.667 C 146.44 125.163 146.371 126.607 146.243 128 L 143.742 128 C 143.516 128 143.297 127.956 143.091 127.877 C 143.22 126.532 143.288 125.129 143.288 123.667 Z " id="Tracé" fill="rgb(0,0,0)"/></g><g id="Groep"><path d=" M 56.258 126.381 L 51.52 126.381 C 50.957 126.381 50.501 125.925 50.501 125.362 L 50.501 121.972 C 50.501 121.409 50.957 120.953 51.52 120.953 L 56.258 120.953 C 56.805 120.953 57.322 121.198 57.669 121.621 L 58.804 123.008 C 59.118 123.391 59.118 123.943 58.804 124.327 L 57.669 125.713 C 57.322 126.136 56.805 126.381 56.258 126.381 Z " id="Tracé" fill="rgb(57,64,73)"/><path d=" M 143.742 126.381 L 148.48 126.381 C 149.043 126.381 149.499 125.925 149.499 125.362 L 149.499 121.972 C 149.499 121.409 149.043 120.953 148.48 120.953 L 143.742 120.953 C 143.195 120.953 142.678 121.198 142.331 121.621 L 141.196 123.008 C 140.882 123.391 140.882 123.943 141.196 124.327 L 142.331 125.713 C 142.678 126.136 143.195 126.381 143.742 126.381 Z " id="Tracé" fill="rgb(57,64,73)"/></g></g></g></g><g id="fox"><g id="body"><path d=" M 75.784 45.593 C 83.361 43.164 91.512 41.843 100 41.843 C 108.488 41.843 116.639 43.164 124.216 45.593 Q 147.585 13.236 152.448 14.85 C 160.305 17.458 162.766 35.865 159.734 70.183 C 167.94 80.859 172.75 93.837 172.75 107.826 C 172.75 144.242 140.152 173.808 100 173.808 C 59.848 173.808 27.25 144.242 27.25 107.826 C 27.25 93.837 32.06 80.859 40.266 70.183 C 37.234 35.865 39.695 17.458 47.552 14.85 Q 52.415 13.236 75.784 45.593 Z " fill-rule="evenodd" id="outer" fill="rgb(248,193,105)"/><path d=" M 149.271 24.98 Q 145.593 23.759 127.542 48.687 C 136.638 53.834 145.294 57.67 154.161 65.529 C 156.905 38.15 155.25 26.965 149.271 24.98 Z  M 50.271 24.98 Q 53.948 23.759 72 48.687 C 62.904 53.834 54.248 57.67 45.381 65.529 C 42.637 38.15 44.291 26.965 50.271 24.98 Z " fill-rule="evenodd" id="inner" fill="rgb(255,243,196)"/></g><g id="facial"><path d=" M 71.661 92.176 C 71.661 88.207 74.883 84.985 78.852 84.985 C 82.82 84.985 86.042 88.207 86.042 92.176 C 86.042 96.144 82.82 99.366 78.852 99.366 C 74.883 99.366 71.661 96.144 71.661 92.176 L 71.661 92.176 Z  M 113.958 92.176 C 113.958 88.207 117.18 84.985 121.148 84.985 C 125.117 84.985 128.339 88.207 128.339 92.176 C 128.339 96.144 125.117 99.366 121.148 99.366 C 117.18 99.366 113.958 96.144 113.958 92.176 L 113.958 92.176 Z  M 66.163 150.122 C 66.163 136.116 81.704 124.744 100.846 124.744 C 119.988 124.744 135.529 136.116 135.529 150.122 C 135.529 164.129 119.988 175.5 100.846 175.5 C 81.704 175.5 66.163 164.129 66.163 150.122 Z " fill-rule="evenodd" id="Samengestelde vorm" fill="rgb(255,243,196)"/></g><g id="eyes"><circle vector-effect="non-scaling-stroke" cx="67.00872093023256" cy="119.66860465116287" r="11.84302325581395" id="Ellips" fill="rgb(255,255,255)"/><circle vector-effect="non-scaling-stroke" cx="67.96656976744188" cy="120.40261627906992" r="6.033430232558121" id="Ellips" fill="rgb(115,85,44)"/><circle vector-effect="non-scaling-stroke" cx="132.9912790697674" cy="119.66860465116287" r="11.843023255813954" id="Ellips" fill="rgb(255,255,255)"/><circle vector-effect="non-scaling-stroke" cx="131.03343023255812" cy="120.40261627906993" r="6.033430232558118" id="Ellips" fill="rgb(115,85,44)"/></g><g id="nose"><ellipse vector-effect="non-scaling-stroke" cx="100.00000000000001" cy="146.73837209302332" rx="10.151162790697668" ry="6.767441860465112" id="outer" fill="rgb(115,85,44)"/></g><g id="mouth"><mask id="_mask_5i6fOkysAF6NBFdYkMK7ghA9AAMYq7mD"><path d=" M 100.523 153.506 L 100.523 159.821 Q 96.634 164.077 91.865 164.077 C 88.456 164.077 84.729 160.626 81.39 155.556" id="Tracé" fill="white" stroke="none"/></mask><path d=" M 100.523 153.506 L 100.523 159.821 Q 96.634 164.077 91.865 164.077 C 88.456 164.077 84.729 160.626 81.39 155.556" id="Tracé" fill="none"/><path d=" M 100.523 153.506 L 100.523 159.821 Q 96.634 164.077 91.865 164.077 C 88.456 164.077 84.729 160.626 81.39 155.556" id="Tracé" fill="none" mask="url(#_mask_5i6fOkysAF6NBFdYkMK7ghA9AAMYq7mD)" vector-effect="non-scaling-stroke" stroke-width="2" stroke="rgb(101,76,7)" stroke-linejoin="miter" stroke-linecap="square" stroke-miterlimit="3"/><mask id="_mask_XQpRrpxQxskjcS7a8WcgjztPAoJpYbCa"><path d=" M 99.477 153.506 L 99.477 159.821 Q 103.366 164.077 108.135 164.077 C 111.544 164.077 115.271 160.626 118.61 155.556" id="Tracé" fill="white" stroke="none"/></mask><path d=" M 99.477 153.506 L 99.477 159.821 Q 103.366 164.077 108.135 164.077 C 111.544 164.077 115.271 160.626 118.61 155.556" id="Tracé" fill="none"/><path d=" M 99.477 153.506 L 99.477 159.821 Q 103.366 164.077 108.135 164.077 C 111.544 164.077 115.271 160.626 118.61 155.556" id="Tracé" fill="none" mask="url(#_mask_XQpRrpxQxskjcS7a8WcgjztPAoJpYbCa)" vector-effect="non-scaling-stroke" stroke-width="2" stroke="rgb(101,76,7)" stroke-linejoin="miter" stroke-linecap="square" stroke-miterlimit="3"/></g><g id="attributes"><g id="sunglasses"><path d=" M 75.401 109.579 C 69.115 109.579 55.136 110.446 55.136 123.667 C 55.136 136.888 60.338 146.424 70.524 146.424 C 80.711 146.424 95.34 135.587 95.34 117.815 C 95.34 109.146 83.42 109.579 75.401 109.579 Z " id="Tracé" fill="rgb(233,210,134)"/><g opacity="0.3"><path d=" M 75.401 109.579 C 69.115 109.579 55.136 110.446 55.136 123.667 C 55.136 129.362 56.102 134.373 58.015 138.232 L 86.218 110.03 C 82.69 109.506 78.713 109.579 75.401 109.579 Z " id="Tracé" fill="rgb(255,255,255)"/></g><g id="Groep"><rect x="75.4" y="108.003" width="49.197" height="3.152" transform="matrix(1,0,0,1,0,0)" id="Rechthoek" fill="rgb(57,64,73)"/><path d=" M 96.005 119.244 L 94.675 116.387 C 95.865 115.832 97.806 115.515 100 115.515 C 102.194 115.515 104.135 115.832 105.325 116.387 L 103.994 119.244 C 103.423 118.977 102.034 118.667 100 118.667 C 97.966 118.667 96.577 118.977 96.005 119.244 Z " id="Tracé" fill="rgb(57,64,73)"/><path d=" M 70.524 148 C 65.105 148 60.664 145.528 57.681 140.851 C 54.985 136.622 53.56 130.68 53.56 123.667 C 53.56 116.521 57.349 108.003 75.401 108.003 C 75.758 108.003 76.123 108.003 76.494 108.002 C 82.81 107.988 90.673 107.968 94.588 111.874 C 96.133 113.416 96.916 115.415 96.916 117.815 C 96.916 136.517 81.545 148 70.524 148 Z  M 77.617 111.152 C 77.237 111.152 76.865 111.152 76.501 111.153 C 76.127 111.154 75.76 111.155 75.401 111.155 C 70.432 111.155 66.554 111.794 63.542 113.109 C 58.946 115.116 56.712 118.57 56.712 123.667 C 56.712 130.078 57.966 135.434 60.339 139.156 C 62.747 142.933 66.174 144.848 70.524 144.848 C 75.419 144.848 81.21 142.097 85.638 137.67 C 90.879 132.429 93.765 125.378 93.765 117.815 C 93.765 116.26 93.306 115.047 92.362 114.105 C 89.572 111.323 82.909 111.152 77.617 111.152 Z " id="Samengesteld tracé" fill="rgb(57,64,73)"/></g><path d=" M 124.598 109.579 C 130.883 109.579 144.863 110.446 144.863 123.667 C 144.863 136.888 139.661 146.424 129.475 146.424 C 119.288 146.424 104.659 135.587 104.659 117.815 C 104.658 109.146 116.579 109.579 124.598 109.579 Z " id="Tracé" fill="rgb(233,210,134)"/><g opacity="0.2"><path d=" M 139.788 113.168 L 113.714 139.241 C 118.565 143.882 124.541 146.424 129.474 146.424 C 139.661 146.424 144.863 136.888 144.863 123.667 C 144.863 118.522 142.745 115.248 139.788 113.168 Z " id="Tracé" fill="rgb(255,255,255)"/></g><path d=" M 129.474 148 C 118.454 148 103.082 136.517 103.082 117.815 C 103.082 115.415 103.866 113.416 105.411 111.875 C 109.326 107.968 117.189 107.987 123.505 108.002 C 123.876 108.003 124.241 108.004 124.598 108.004 L 124.598 108.004 C 142.649 108.004 146.438 116.521 146.438 123.667 C 146.438 130.68 145.013 136.622 142.317 140.851 C 139.335 145.528 134.894 148 129.474 148 Z  M 122.382 111.152 C 117.09 111.152 110.427 111.322 107.637 114.106 C 106.693 115.047 106.234 116.261 106.234 117.815 C 106.234 125.378 109.12 132.429 114.361 137.67 C 118.789 142.098 124.58 144.848 129.475 144.848 C 133.825 144.848 137.252 142.933 139.66 139.156 C 142.033 135.435 143.287 130.079 143.287 123.667 C 143.287 118.57 141.053 115.117 136.457 113.11 C 133.445 111.795 129.566 111.156 124.598 111.156 C 124.239 111.156 123.871 111.155 123.498 111.154 C 123.134 111.153 122.761 111.152 122.382 111.152 Z " id="Samengesteld tracé" fill="rgb(57,64,73)"/><g opacity="0.2"><path d=" M 56.712 123.667 C 56.712 123.317 56.723 122.976 56.745 122.641 C 56.587 122.597 56.425 122.572 56.258 122.572 L 53.591 122.572 C 53.57 122.94 53.56 123.305 53.56 123.667 C 53.56 125.163 53.629 126.607 53.757 128 L 56.258 128 C 56.483 128 56.703 127.956 56.909 127.877 C 56.78 126.532 56.712 125.129 56.712 123.667 Z " id="Tracé" fill="rgb(0,0,0)"/></g><g opacity="0.2"><path d=" M 143.288 123.667 C 143.288 123.317 143.277 122.976 143.255 122.641 C 143.413 122.597 143.575 122.572 143.742 122.572 L 146.409 122.572 C 146.429 122.94 146.44 123.305 146.44 123.667 C 146.44 125.163 146.371 126.607 146.243 128 L 143.742 128 C 143.516 128 143.297 127.956 143.091 127.877 C 143.22 126.532 143.288 125.129 143.288 123.667 Z " id="Tracé" fill="rgb(0,0,0)"/></g><g id="Groep"><path d=" M 56.258 126.381 L 51.52 126.381 C 50.957 126.381 50.501 125.925 50.501 125.362 L 50.501 121.972 C 50.501 121.409 50.957 120.953 51.52 120.953 L 56.258 120.953 C 56.805 120.953 57.322 121.198 57.669 121.621 L 58.804 123.008 C 59.118 123.391 59.118 123.943 58.804 124.327 L 57.669 125.713 C 57.322 126.136 56.805 126.381 56.258 126.381 Z " id="Tracé" fill="rgb(57,64,73)"/><path d=" M 143.742 126.381 L 148.48 126.381 C 149.043 126.381 149.499 125.925 149.499 125.362 L 149.499 121.972 C 149.499 121.409 149.043 120.953 148.48 120.953 L 143.742 120.953 C 143.195 120.953 142.678 121.198 142.331 121.621 L 141.196 123.008 C 140.882 123.391 140.882 123.943 141.196 124.327 L 142.331 125.713 C 142.678 126.136 143.195 126.381 143.742 126.381 Z " id="Tracé" fill="rgb(57,64,73)"/></g></g></g></g><g id="horse"><g id="body"><path d=" M 122.274 43.016 C 115.85 41.25 108.429 40.387 100 40.435 C 91.693 40.387 84.365 41.226 78 42.936 C 72.254 29.122 64.192 18.959 53.756 15.771 Q 43.531 33.912 57.584 54.876 C 49.342 64.117 46.007 77.797 47.59 95.927 C 51.378 139.308 84.585 173 100 173 C 115.415 173 148.622 139.308 152.41 95.927 C 153.981 77.925 150.704 64.31 142.589 55.071 Q 156.821 33.996 146.548 15.771 C 136.093 18.965 128.021 29.159 122.274 43.016 Z " fill-rule="evenodd" id="outer" fill="rgb(150,102,64)"/><path d=" M 100 136.006 L 100 136.006 C 82.172 135.945 73.996 141.099 75.515 151.492 C 77.285 163.598 92.799 173 100 173 C 107.201 173 122.715 163.598 124.485 151.492 C 126.004 141.099 117.828 135.945 100 136.006 Z " fill-rule="evenodd" id="inner" fill="rgb(196,159,106)"/></g><g id="ears"><path d=" M 143.161 25.02 Q 131.215 29.066 127.746 46.6 C 130.303 47.998 133.417 50.084 136.995 52.766 C 143.161 45.444 148.1 29.758 143.161 25.02 Z " id="innerR" fill="rgb(80,50,24)"/><path d=" M 56.839 25.02 Q 68.785 29.066 72.254 46.6 C 69.697 47.998 66.583 50.084 63.005 52.766 C 56.839 45.444 51.9 29.758 56.839 25.02 Z " id="innerL" fill="rgb(80,50,24)"/></g><g id="nose"><path d=" M 90.798 159.663 C 90.355 157.149 91.355 154.869 93.031 154.573 C 94.706 154.277 96.427 156.078 96.87 158.591 C 97.314 161.105 96.313 163.385 94.638 163.681 C 92.962 163.977 91.242 162.176 90.798 159.663 Z " id="Ellips" fill="rgb(80,50,24)"/><path d=" M 109.144 159.663 C 109.587 157.149 108.587 154.869 106.911 154.573 C 105.236 154.277 103.515 156.078 103.072 158.591 C 102.628 161.105 103.628 163.385 105.304 163.681 C 106.98 163.977 108.7 162.176 109.144 159.663 Z " id="Ellips" fill="rgb(80,50,24)"/></g><g id="eyes"><circle vector-effect="non-scaling-stroke" cx="73.7952022173372" cy="108.25873488989183" r="12.3316695447825" id="Ellips" fill="rgb(255,255,255)"/><circle vector-effect="non-scaling-stroke" cx="76.8781196035328" cy="111.34165227608746" r="6.16583477239125" id="Ellips" fill="rgb(80,50,24)"/><circle vector-effect="non-scaling-stroke" cx="126.20479778266281" cy="108.25873488989183" r="12.331669544782493" id="Ellips" fill="rgb(255,255,255)"/><circle vector-effect="non-scaling-stroke" cx="123.12188039646716" cy="111.34165227608746" r="6.165834772391243" id="Ellips" fill="rgb(80,50,24)"/></g><g id="hair"><path d=" M 100 86.678 C 101.127 81.651 101.158 76.544 100 71.264 C 96.817 72.333 94.792 74.419 93.834 77.43 C 82.17 67.368 77.063 58.15 78.42 49.683 C 80.082 39.307 83.044 28.296 100 28.103 C 116.956 27.91 122.672 40.423 124.663 46.6 C 126.483 52.244 125.486 61.524 121.58 74.347 C 119.511 73.23 117.487 71.206 115.415 68.181 C 111.682 79.641 106.575 85.838 100 86.678 Z " id="outer" fill="rgb(80,50,24)"/></g><g id="attributes"><g id="subglasses"><g id="Groep"><path d=" M 50.622 103.295 L 47.493 103.295 C 46.57 103.295 45.821 102.547 45.821 101.624 C 45.821 100.701 46.57 99.952 47.493 99.952 L 50.623 99.952 C 51.546 99.952 52.294 100.701 52.294 101.624 C 52.294 102.547 51.545 103.295 50.622 103.295 Z " id="Tracé" fill="rgb(195,196,199)"/><path d=" M 152.507 103.295 L 149.377 103.295 C 148.454 103.295 147.706 102.547 147.706 101.624 C 147.706 100.701 148.454 99.952 149.377 99.952 L 152.507 99.952 C 153.431 99.952 154.179 100.701 154.179 101.624 C 154.179 102.547 153.43 103.295 152.507 103.295 Z " id="Tracé" fill="rgb(195,196,199)"/></g><g opacity="0.2"><path d=" M 68.193 112.072 L 55.236 122.367 C 56.263 123.907 57.496 125.301 58.899 126.51 C 59.328 126.305 59.725 126.029 60.073 125.688 L 70.749 115.185 L 68.193 112.072 Z " id="Tracé" fill="rgb(0,0,0)"/></g><g opacity="0.2"><path d=" M 131.807 112.072 L 144.764 122.367 C 143.737 123.907 142.504 125.301 141.101 126.51 C 140.672 126.305 140.274 126.029 139.927 125.688 L 129.251 115.185 L 131.807 112.072 Z " id="Tracé" fill="rgb(0,0,0)"/></g><path d=" M 109.309 101.175 C 107.887 101.175 106.807 100.664 105.763 100.17 C 104.434 99.541 102.927 98.828 100 98.828 C 97.074 98.828 95.567 99.541 94.238 100.17 C 93.194 100.664 92.114 101.175 90.692 101.175 L 90.692 97.832 C 91.334 97.832 91.859 97.598 92.808 97.149 C 94.292 96.447 96.323 95.486 100.001 95.486 C 103.678 95.486 105.71 96.447 107.193 97.149 C 108.142 97.598 108.668 97.832 109.309 97.832 L 109.309 101.175 L 109.309 101.175 Z " id="Tracé" fill="rgb(195,196,199)"/><path d=" M 89.781 96.066 C 86.223 92.704 81.07 91 74.466 91 C 68.788 91 64.187 92.263 60.745 94.752 C 60.744 94.752 60.742 94.751 60.742 94.751 C 57.844 96.711 53.552 98.784 50.8 99.298 C 50.138 99.422 49.656 99.992 49.656 100.665 L 49.656 102.297 C 49.656 103.064 50.131 103.749 50.849 104.019 C 52.114 104.494 53.93 105.846 53.93 109.688 C 53.93 120.831 63.143 129.896 74.466 129.896 C 85.789 129.896 95.001 120.831 95.001 109.688 C 95.001 103.921 93.245 99.338 89.781 96.066 Z " id="Tracé" fill="rgb(237,163,178)"/><path d=" M 90.307 109.688 C 90.307 101.12 85.59 95.694 74.466 95.694 C 63.341 95.694 58.624 101.12 58.624 109.688 C 58.624 118.257 65.717 125.203 74.466 125.203 C 83.215 125.203 90.307 118.257 90.307 109.688 Z " id="Tracé" fill="rgb(57,64,73)"/><g opacity="0.2"><path d=" M 74.465 95.694 C 63.341 95.694 58.624 101.12 58.624 109.688 C 58.624 109.865 58.632 110.04 58.637 110.216 C 58.92 102.1 63.682 97.001 74.465 97.001 C 85.248 97.001 90.011 102.1 90.293 110.216 C 90.299 110.04 90.307 109.865 90.307 109.688 C 90.307 101.12 85.59 95.694 74.465 95.694 Z " id="Tracé" fill="rgb(0,0,0)"/></g><path d=" M 110.219 96.066 C 113.777 92.704 118.93 91 125.534 91 C 131.212 91 135.813 92.263 139.255 94.752 C 139.256 94.752 139.258 94.751 139.258 94.751 C 142.156 96.711 146.448 98.784 149.2 99.298 C 149.862 99.422 150.344 99.992 150.344 100.665 L 150.344 102.297 C 150.344 103.064 149.869 103.749 149.151 104.019 C 147.886 104.494 146.07 105.846 146.07 109.688 C 146.07 120.831 136.857 129.896 125.534 129.896 C 114.211 129.896 104.999 120.831 104.999 109.688 C 104.999 103.921 106.755 99.338 110.219 96.066 Z " id="Tracé" fill="rgb(237,163,178)"/><path d=" M 109.693 109.688 C 109.693 101.12 114.41 95.694 125.534 95.694 C 136.659 95.694 141.376 101.12 141.376 109.688 C 141.376 118.257 134.283 125.203 125.534 125.203 C 116.785 125.203 109.693 118.257 109.693 109.688 Z " id="Tracé" fill="rgb(57,64,73)"/><g opacity="0.2"><path d=" M 125.535 95.694 C 136.659 95.694 141.376 101.12 141.376 109.688 C 141.376 109.865 141.368 110.04 141.363 110.216 C 141.08 102.1 136.318 97.001 125.535 97.001 C 114.752 97.001 109.989 102.1 109.707 110.216 C 109.701 110.04 109.693 109.865 109.693 109.688 C 109.693 101.12 114.41 95.694 125.535 95.694 Z " id="Tracé" fill="rgb(0,0,0)"/></g><g id="Groep"><g opacity="0.15"><path d=" M 74.465 95.694 C 63.341 95.694 58.624 101.12 58.624 109.688 C 58.624 112.87 59.603 115.826 61.28 118.288 L 82.56 97.008 C 80.372 96.152 77.69 95.694 74.465 95.694 Z " id="Tracé" fill="rgb(255,255,255)"/></g><g opacity="0.15"><path d=" M 139.813 102.398 L 118.581 123.63 C 120.68 124.636 123.039 125.203 125.534 125.203 C 134.284 125.203 141.376 118.257 141.376 109.688 C 141.376 106.897 140.872 104.443 139.813 102.398 Z " id="Tracé" fill="rgb(255,255,255)"/></g></g></g></g></g><g id="pinguin"><g id="body"><path d=" M 17.132 97 C 17.132 60.022 54.264 30 100 30 C 145.736 30 182.868 60.022 182.868 97 C 182.868 133.978 145.736 164 100 164 C 54.264 164 17.132 133.978 17.132 97 Z " id="outer" fill="rgb(91,103,125)"/><path d=" M 93.155 121.142 Q 104.891 72.159 79.049 64.721 C 53.208 57.282 33.152 90.452 36.733 110.563 C 40.315 130.674 51.004 151.777 100.207 152.879 C 149.41 153.981 163.681 129.839 163.681 110.563 C 163.681 92.151 151.751 51.128 117.839 64.721 C 104.93 69.895 99.123 88.773 107.26 121.142 L 93.155 121.142 Z " id="inner" fill="rgb(235,235,235)"/></g><g id="eyes"><circle vector-effect="non-scaling-stroke" cx="68.26315789473692" cy="105.81578947368422" r="12.342105263157901" id="outerL" fill="rgb(255,255,255)"/><circle vector-effect="non-scaling-stroke" cx="70.02631578947363" cy="107.57894736842115" r="7.052631578947352" id="innerL" fill="rgb(91,103,125)"/><circle vector-effect="non-scaling-stroke" cx="135.26315789473693" cy="105.81578947368422" r="12.34210526315789" id="outerR" fill="rgb(255,255,255)"/><circle vector-effect="non-scaling-stroke" cx="133.50000000000003" cy="107.57894736842115" r="7.052631578947349" id="innerR" fill="rgb(91,103,125)"/></g><g id="nose"><ellipse vector-effect="non-scaling-stroke" cx="100.00000000000003" cy="121.14183098969377" rx="19.39473684210526" ry="10.578947368421048" id="outer" fill="rgb(250,197,105)"/></g><g id="attributes"><g id="sunglasses"><g id="Groep"><path d=" M 89.437 96.789 C 90.593 95.496 93.012 94.115 96.567 93.553 L 96.573 93.593 C 94.593 90.159 86.351 84 74.674 84 C 60.856 84 52.595 86.493 48.689 88.245 C 47.748 88.668 47.144 89.602 47.14 90.634 C 47.135 91.861 47.127 93.319 47.129 94.558 C 47.131 95.48 47.716 96.267 48.565 96.628 C 49.402 96.984 49.825 97.802 49.993 99.399 C 50.117 100.59 51.123 101.496 52.32 101.496 L 54.743 101.496 L 89.437 96.789 Z " id="Tracé" fill="rgb(162,123,90)"/><path d=" M 110.563 96.789 C 109.407 95.496 106.988 94.115 103.433 93.553 L 103.427 93.593 C 105.407 90.159 113.649 84 125.326 84 C 139.144 84 147.405 86.493 151.311 88.245 C 152.252 88.668 152.856 89.602 152.86 90.634 C 152.865 91.861 152.873 93.319 152.871 94.558 C 152.869 95.48 152.284 96.267 151.435 96.628 C 150.598 96.984 150.175 97.802 150.007 99.399 C 149.883 100.59 148.877 101.496 147.68 101.496 L 145.257 101.496 L 110.563 96.789 Z " id="Tracé" fill="rgb(162,123,90)"/></g><path d=" M 109.306 97.912 C 107.371 95.748 103.083 94.98 100 94.98 C 96.916 94.98 92.629 95.748 90.694 97.912 L 88.18 95.665 C 89.934 93.704 93.96 91.608 100 91.608 C 106.04 91.608 110.066 93.704 111.819 95.665 L 109.306 97.912 Z " id="Tracé" fill="rgb(195,196,199)"/><path d=" M 74.287 89.016 C 65.959 89.016 54.498 90.627 54.498 105.272 C 54.498 121.53 67.015 120.828 70.114 120.828 C 73.214 120.828 92.883 119.074 92.883 101.998 C 92.884 89.952 80.125 89.016 74.287 89.016 Z " id="Tracé" fill="rgb(57,64,73)"/><g opacity="0.2"><path d=" M 74.287 89.016 C 65.959 89.016 54.498 90.627 54.498 105.272 C 54.498 105.518 54.501 105.759 54.507 105.996 C 54.862 91.989 66.091 90.429 74.287 90.429 C 80.018 90.429 92.419 91.332 92.869 102.764 C 92.878 102.512 92.883 102.257 92.883 101.998 C 92.884 89.952 80.125 89.016 74.287 89.016 Z " id="Tracé" fill="rgb(0,0,0)"/></g><path d=" M 125.713 89.016 C 134.041 89.016 145.502 90.627 145.502 105.272 C 145.502 121.53 132.985 120.828 129.885 120.828 C 126.786 120.828 107.117 119.074 107.117 101.998 C 107.116 89.952 119.875 89.016 125.713 89.016 Z " id="Tracé" fill="rgb(57,64,73)"/><g opacity="0.2"><path d=" M 125.713 89.016 C 134.041 89.016 145.502 90.627 145.502 105.272 C 145.502 105.518 145.499 105.759 145.493 105.996 C 145.138 91.989 133.909 90.429 125.713 90.429 C 119.981 90.429 107.581 91.332 107.13 102.764 C 107.121 102.512 107.116 102.257 107.116 101.998 C 107.116 89.952 119.875 89.016 125.713 89.016 Z " id="Tracé" fill="rgb(0,0,0)"/></g><g id="Groep"><g opacity="0.15"><path d=" M 74.287 89.016 C 65.959 89.016 54.498 90.627 54.498 105.272 C 54.498 108.703 55.057 111.376 55.965 113.462 L 80.025 89.404 C 77.87 89.082 75.835 89.016 74.287 89.016 Z " id="Tracé" fill="rgb(255,255,255)"/></g><g opacity="0.15"><path d=" M 142.978 95.562 L 119.713 118.826 C 124.243 120.509 128.566 120.828 129.885 120.828 C 132.985 120.828 145.502 121.53 145.502 105.272 C 145.502 101.037 144.542 97.893 142.978 95.562 Z " id="Tracé" fill="rgb(255,255,255)"/></g></g><g id="Groep"><path d=" M 52.806 93.531 L 51.662 93.531 C 50.731 93.531 49.977 92.777 49.977 91.846 C 49.977 90.914 50.731 90.16 51.662 90.16 L 52.806 90.16 C 53.737 90.16 54.491 90.914 54.491 91.846 C 54.491 92.776 53.737 93.531 52.806 93.531 Z " id="Tracé" fill="rgb(195,196,199)"/><path d=" M 148.338 93.531 L 147.194 93.531 C 146.263 93.531 145.509 92.777 145.509 91.846 C 145.509 90.914 146.263 90.16 147.194 90.16 L 148.338 90.16 C 149.269 90.16 150.023 90.914 150.023 91.846 C 150.023 92.777 149.269 93.531 148.338 93.531 Z " id="Tracé" fill="rgb(195,196,199)"/></g></g></g></g><g id="chicken"><g id="facial"><path d=" M 98.789 62.224 Q 63.984 30.394 73.185 23.818 Q 82.387 17.242 89.188 27.019 Q 91.788 11.541 98.789 11.016 Q 105.79 10.491 111.591 27.019 Q 120.593 17.567 127.594 23.818 Q 134.595 30.069 98.789 62.224 Z " id="outer" fill="rgb(237,123,63)"/></g><g id="body"><path d=" M 100 167.808 L 100 167.808 Q 170.411 168.758 170.411 116.6 C 170.411 60.291 136.974 34.129 100 36.587 L 100 36.587 C 63.026 34.129 29.589 60.291 29.589 116.6 Q 29.589 168.758 100 167.808 Z " fill-rule="evenodd" id="outer" fill="rgb(247,245,230)"/></g><g id="hair"><path d=" M 92.177 116.617 L 105.401 116.617 Q 105.963 132.314 98.578 132.314 Q 91.336 132.314 92.177 116.617 Z " id="outer" fill="rgb(237,123,63)"/></g><g id="eyes"><ellipse vector-effect="non-scaling-stroke" cx="127.62039919972582" cy="91.13832738942757" rx="9.119706694622813" ry="10.98861776044592" id="outerR" fill="rgb(255,255,255)"/><circle vector-effect="non-scaling-stroke" cx="128.1818360427456" cy="93.14232050515142" r="4.582511079965798" id="innerR" fill="rgb(101,75,37)"/><ellipse vector-effect="non-scaling-stroke" cx="71.25672711423456" cy="91.13832738942757" rx="9.11970669462281" ry="10.98861776044592" id="outerL" fill="rgb(255,255,255)"/><circle vector-effect="non-scaling-stroke" cx="71.81816395725441" cy="93.14232050515142" r="4.582511079965798" id="innerL" fill="rgb(101,75,37)"/></g><g id="nose"><path d=" M 98.789 116.617 L 98.789 116.617 C 87.016 116.938 81.649 114.772 82.787 110.216 C 84.256 104.331 88.942 100.978 98.789 100.614 L 98.789 100.614 C 108.636 100.978 113.323 104.331 114.792 110.216 C 115.929 114.772 110.563 116.938 98.789 116.617 Z " fill-rule="evenodd" id="outer" fill="rgb(245,213,44)"/></g><g id="attributes"><g id="sunglasses"><g id="Groep"><path d=" M 89.437 96.789 C 90.593 95.496 93.012 94.115 96.567 93.553 L 96.573 93.593 C 94.593 90.159 86.351 84 74.674 84 C 60.856 84 52.595 86.493 48.689 88.245 C 47.748 88.668 47.144 89.602 47.14 90.634 C 47.135 91.861 47.127 93.319 47.129 94.558 C 47.131 95.48 47.716 96.267 48.565 96.628 C 49.402 96.984 49.825 97.802 49.993 99.399 C 50.117 100.59 51.123 101.496 52.32 101.496 L 54.743 101.496 L 89.437 96.789 Z " id="Tracé" fill="rgb(162,123,90)"/><path d=" M 110.563 96.789 C 109.407 95.496 106.988 94.115 103.433 93.553 L 103.427 93.593 C 105.407 90.159 113.649 84 125.326 84 C 139.144 84 147.405 86.493 151.311 88.245 C 152.252 88.668 152.856 89.602 152.86 90.634 C 152.865 91.861 152.873 93.319 152.871 94.558 C 152.869 95.48 152.284 96.267 151.435 96.628 C 150.598 96.984 150.175 97.802 150.007 99.399 C 149.883 100.59 148.877 101.496 147.68 101.496 L 145.257 101.496 L 110.563 96.789 Z " id="Tracé" fill="rgb(162,123,90)"/></g><path d=" M 109.306 97.912 C 107.371 95.748 103.083 94.98 100 94.98 C 96.916 94.98 92.629 95.748 90.694 97.912 L 88.18 95.665 C 89.934 93.704 93.96 91.608 100 91.608 C 106.04 91.608 110.066 93.704 111.819 95.665 L 109.306 97.912 Z " id="Tracé" fill="rgb(195,196,199)"/><path d=" M 74.287 89.016 C 65.959 89.016 54.498 90.627 54.498 105.272 C 54.498 121.53 67.015 120.828 70.114 120.828 C 73.214 120.828 92.883 119.074 92.883 101.998 C 92.884 89.952 80.125 89.016 74.287 89.016 Z " id="Tracé" fill="rgb(57,64,73)"/><g opacity="0.2"><path d=" M 74.287 89.016 C 65.959 89.016 54.498 90.627 54.498 105.272 C 54.498 105.518 54.501 105.759 54.507 105.996 C 54.862 91.989 66.091 90.429 74.287 90.429 C 80.018 90.429 92.419 91.332 92.869 102.764 C 92.878 102.512 92.883 102.257 92.883 101.998 C 92.884 89.952 80.125 89.016 74.287 89.016 Z " id="Tracé" fill="rgb(0,0,0)"/></g><path d=" M 125.713 89.016 C 134.041 89.016 145.502 90.627 145.502 105.272 C 145.502 121.53 132.985 120.828 129.885 120.828 C 126.786 120.828 107.117 119.074 107.117 101.998 C 107.116 89.952 119.875 89.016 125.713 89.016 Z " id="Tracé" fill="rgb(57,64,73)"/><g opacity="0.2"><path d=" M 125.713 89.016 C 134.041 89.016 145.502 90.627 145.502 105.272 C 145.502 105.518 145.499 105.759 145.493 105.996 C 145.138 91.989 133.909 90.429 125.713 90.429 C 119.981 90.429 107.581 91.332 107.13 102.764 C 107.121 102.512 107.116 102.257 107.116 101.998 C 107.116 89.952 119.875 89.016 125.713 89.016 Z " id="Tracé" fill="rgb(0,0,0)"/></g><g id="Groep"><g opacity="0.15"><path d=" M 74.287 89.016 C 65.959 89.016 54.498 90.627 54.498 105.272 C 54.498 108.703 55.057 111.376 55.965 113.462 L 80.025 89.404 C 77.87 89.082 75.835 89.016 74.287 89.016 Z " id="Tracé" fill="rgb(255,255,255)"/></g><g opacity="0.15"><path d=" M 142.978 95.562 L 119.713 118.826 C 124.243 120.509 128.566 120.828 129.885 120.828 C 132.985 120.828 145.502 121.53 145.502 105.272 C 145.502 101.037 144.542 97.893 142.978 95.562 Z " id="Tracé" fill="rgb(255,255,255)"/></g></g><g id="Groep"><path d=" M 52.806 93.531 L 51.662 93.531 C 50.731 93.531 49.977 92.777 49.977 91.846 C 49.977 90.914 50.731 90.16 51.662 90.16 L 52.806 90.16 C 53.737 90.16 54.491 90.914 54.491 91.846 C 54.491 92.776 53.737 93.531 52.806 93.531 Z " id="Tracé" fill="rgb(195,196,199)"/><path d=" M 148.338 93.531 L 147.194 93.531 C 146.263 93.531 145.509 92.777 145.509 91.846 C 145.509 90.914 146.263 90.16 147.194 90.16 L 148.338 90.16 C 149.269 90.16 150.023 90.914 150.023 91.846 C 150.023 92.777 149.269 93.531 148.338 93.531 Z " id="Tracé" fill="rgb(195,196,199)"/></g></g></g></g><g id="mouse"><g id="ears"><circle vector-effect="non-scaling-stroke" cx="43.64361702127667" cy="74.81382978723406" r="33.813829787234056" id="outerL" fill="rgb(187,189,201)"/><circle vector-effect="non-scaling-stroke" cx="47.87034574468085" cy="79.04055851063839" r="23.95146276595743" id="innerL" fill="rgb(252,227,220)"/><circle vector-effect="non-scaling-stroke" cx="156.35638297872342" cy="74.81382978723406" r="33.813829787234056" id="outerR" fill="rgb(187,189,201)"/><circle vector-effect="non-scaling-stroke" cx="153.53856382978714" cy="79.04055851063839" r="23.951462765957416" id="innerR" fill="rgb(252,227,220)"/></g><g id="body"><ellipse vector-effect="non-scaling-stroke" cx="99.99999999999994" cy="115.6722074468085" rx="63.40093085106382" ry="52.12965425531914" id="outer" fill="rgb(187,189,201)"/></g><g id="eyes"><circle vector-effect="non-scaling-stroke" cx="76.9220611702127" cy="130.63482712765963" r="8.988843085106382" id="outerL" fill="rgb(255,255,255)"/><circle vector-effect="non-scaling-stroke" cx="78.75364361702121" cy="132.46640957446812" r="4.508510638297878" id="innerL" fill="rgb(112,116,120)"/><circle vector-effect="non-scaling-stroke" cx="122.51437499999997" cy="130.63482712765963" r="8.988843085106367" id="outerR" fill="rgb(255,255,255)"/><circle vector-effect="non-scaling-stroke" cx="120.68279255319146" cy="132.46640957446812" r="4.508510638297878" id="innerR" fill="rgb(112,116,120)"/></g><g id="nose"><circle vector-effect="non-scaling-stroke" cx="99.99999999999996" cy="167.8018617021277" r="5.635638297872347" id="outer" fill="rgb(112,116,120)"/></g><g id="hairs"><path d=" M 122.543 148.077 C 136.761 143.186 150.368 142.141 163.274 144.863" id="Tracé" fill="none" vector-effect="non-scaling-stroke" stroke-width="0.5" stroke="rgb(139,139,139)" stroke-linejoin="miter" stroke-linecap="square" stroke-miterlimit="3"/><path d=" M 122.678 154.101 C 135.883 151.281 148.127 151.823 159.337 155.647" id="Tracé" fill="none" vector-effect="non-scaling-stroke" stroke-width="0.5" stroke="rgb(139,139,139)" stroke-linejoin="miter" stroke-linecap="square" stroke-miterlimit="3"/><path d=" M 78.866 148.077 C 64.648 143.186 51.041 142.141 38.135 144.863" id="Tracé" fill="none" vector-effect="non-scaling-stroke" stroke-width="0.5" stroke="rgb(139,139,139)" stroke-linejoin="miter" stroke-linecap="square" stroke-miterlimit="3"/><path d=" M 78.731 154.101 C 65.526 151.281 53.282 151.823 42.072 155.647" id="Tracé" fill="none" vector-effect="non-scaling-stroke" stroke-width="0.5" stroke="rgb(139,139,139)" stroke-linejoin="miter" stroke-linecap="square" stroke-miterlimit="3"/></g><g id="attributes"><g id="sunglasses"><path d=" M 122.006 124.962 C 119.405 125.273 113.491 125.979 109.407 129.73 L 109.407 129.73 C 107.18 131.808 103.393 129.924 100 129.924 C 96.607 129.924 92.82 131.808 90.593 129.73 L 90.593 129.73 C 86.508 125.978 80.595 125.272 77.994 124.962 C 62.975 123.409 63.061 129.37 55.463 130.362 C 54.766 130.453 54.25 131.055 54.25 131.758 L 54.25 133.107 C 54.25 133.959 54.856 134.693 55.694 134.842 C 56.967 135.07 58.622 135.74 58.622 137.683 C 58.622 142.587 60.255 147.223 63.221 150.737 C 66.348 154.442 70.744 156.65 75.598 156.956 C 76.063 156.985 76.532 157 76.994 157 L 76.996 157 C 81.759 157 86.176 155.434 89.433 152.59 C 92.932 149.535 94.858 145.221 94.858 140.443 C 94.858 139.808 94.83 139.199 94.776 138.616 L 94.776 138.616 C 94.404 135.203 98.507 135.097 100 135.097 C 101.493 135.097 105.596 135.203 105.224 138.616 L 105.224 138.616 C 105.17 139.199 105.142 139.808 105.142 140.443 C 105.142 145.221 107.068 149.535 110.567 152.59 C 113.823 155.434 118.241 157 123.004 157 L 123.006 157 C 123.468 157 123.937 156.985 124.402 156.956 C 129.256 156.65 133.652 154.442 136.779 150.737 C 139.745 147.223 141.378 142.587 141.378 137.683 C 141.378 135.74 143.033 135.07 144.306 134.842 C 145.144 134.692 145.75 133.959 145.75 133.107 L 145.75 131.758 C 145.75 131.055 145.234 130.453 144.537 130.362 C 136.938 129.37 137.025 123.409 122.006 124.962 Z " id="Tracé" fill="rgb(162,123,90)"/><g id="Groep"><circle vector-effect="non-scaling-stroke" cx="59.467394642336174" cy="132.84442150660038" r="1.4504141208028045" id="Ellips" fill="rgb(195,196,199)"/><circle vector-effect="non-scaling-stroke" cx="140.53242664720042" cy="132.84442150660038" r="1.4504141208028045" id="Ellips" fill="rgb(195,196,199)"/></g><path d=" M 77.489 129.198 C 70.517 128.366 62.887 129.743 62.887 137.682 C 62.887 145.622 68.144 152.212 75.866 152.698 C 83.94 153.207 90.592 148.242 90.592 140.442 C 90.593 132.643 85.226 130.121 77.489 129.198 Z " id="Tracé" fill="rgb(233,210,134)"/><g opacity="0.2"><path d=" M 77.489 129.198 C 70.517 128.366 62.887 129.743 62.887 137.682 C 62.887 137.827 62.893 137.969 62.896 138.112 C 63.175 130.562 70.648 129.251 77.489 130.067 C 85.064 130.971 90.364 133.411 90.582 140.833 C 90.586 140.703 90.593 140.574 90.593 140.442 C 90.593 132.643 85.226 130.121 77.489 129.198 Z " id="Tracé" fill="rgb(0,0,0)"/></g><path d=" M 122.511 129.198 C 129.483 128.366 137.112 129.743 137.112 137.682 C 137.112 145.622 131.855 152.212 124.133 152.698 C 116.059 153.207 109.407 148.242 109.407 140.442 C 109.407 132.643 114.773 130.121 122.511 129.198 Z " id="Tracé" fill="rgb(233,210,134)"/><g opacity="0.2"><path d=" M 122.511 129.198 C 129.483 128.366 137.112 129.743 137.112 137.682 C 137.112 137.827 137.107 137.969 137.103 138.112 C 136.825 130.562 129.352 129.251 122.511 130.067 C 114.935 130.971 109.636 133.411 109.418 140.833 C 109.414 140.703 109.407 140.574 109.407 140.442 C 109.407 132.643 114.773 130.121 122.511 129.198 Z " id="Tracé" fill="rgb(0,0,0)"/></g><g id="Groep"><g opacity="0.3"><path d=" M 77.489 129.198 C 70.517 128.366 62.887 129.743 62.887 137.682 C 62.887 139.791 63.261 141.802 63.951 143.631 L 78.282 129.3 C 78.02 129.264 77.756 129.23 77.489 129.198 Z " id="Tracé" fill="rgb(255,255,255)"/></g><g opacity="0.3"><path d=" M 124.133 152.698 C 131.855 152.212 137.112 145.622 137.112 137.683 C 137.112 136.034 136.782 134.669 136.199 133.548 L 117.839 151.908 C 119.752 152.557 121.887 152.84 124.133 152.698 Z " id="Tracé" fill="rgb(255,255,255)"/></g></g></g></g></g><g id="monkey"><g id="ears"><ellipse vector-effect="non-scaling-stroke" cx="167.0140389913117" cy="111.75513880059344" rx="24.09493536766263" ry="22.58900190718373" id="innerR" fill="rgb(253,228,197)"/><ellipse vector-effect="non-scaling-stroke" cx="32.98596100868828" cy="111.75513880059344" rx="24.094935367662643" ry="22.58900190718373" id="innerL" fill="rgb(253,228,197)"/></g><g id="body"><ellipse vector-effect="non-scaling-stroke" cx="99.99999999999997" cy="105.7314049586777" rx="67.01403899131171" ry="58.73140495867765" id="outer" fill="rgb(179,135,30)"/><path d=" M 100 86.154 Q 125.789 62.059 151.202 86.154 C 176.614 110.249 148.66 141.309 142.166 146.392 C 129.579 156.243 114.864 159.131 100 158.439 L 100 158.439 C 85.136 159.131 70.421 156.243 57.834 146.392 C 51.34 141.309 23.386 110.249 48.798 86.154 Q 74.211 62.059 100 86.154 Z " fill-rule="evenodd" id="inner" fill="rgb(253,228,197)"/></g><g id="eyes"><circle vector-effect="non-scaling-stroke" cx="70.79817530682416" cy="114.79136961794794" r="9.059964659270232" id="outerL" fill="rgb(255,255,255)"/><circle vector-effect="non-scaling-stroke" cx="72.26269559714" cy="116.25588990826373" r="5.057946488047577" id="innerL" fill="rgb(101,76,7)"/><circle vector-effect="non-scaling-stroke" cx="129.20182469317575" cy="114.79136961794794" r="9.059964659270236" id="outerR" fill="rgb(255,255,255)"/><circle vector-effect="non-scaling-stroke" cx="127.7373044028599" cy="116.25588990826371" r="5.057946488047577" id="innerR" fill="rgb(101,76,7)"/></g><g id="nose"><ellipse vector-effect="non-scaling-stroke" cx="99.99999999999996" cy="126.86320119817603" rx="4.517800381436743" ry="3.0118669209578357" id="outer" fill="rgb(101,76,7)"/></g><g id="mouth"><mask id="_mask_W1OTWWzx1FkEQ2L4HfohUFWItMAzDghg"><path d=" M 100.37 129.875 L 100.37 134.344 Q 97.618 137.356 94.243 137.356 C 91.83 137.356 89.193 134.914 86.829 131.326" id="Tracé" fill="white" stroke="none"/></mask><path d=" M 100.37 129.875 L 100.37 134.344 Q 97.618 137.356 94.243 137.356 C 91.83 137.356 89.193 134.914 86.829 131.326" id="Tracé" fill="none"/><path d=" M 100.37 129.875 L 100.37 134.344 Q 97.618 137.356 94.243 137.356 C 91.83 137.356 89.193 134.914 86.829 131.326" id="Tracé" fill="none" mask="url(#_mask_W1OTWWzx1FkEQ2L4HfohUFWItMAzDghg)" vector-effect="non-scaling-stroke" stroke-width="1" stroke="rgb(101,76,7)" stroke-linejoin="miter" stroke-linecap="square" stroke-miterlimit="3"/><mask id="_mask_1BgRsOXnE5S9IoGyKZEbv9aHOmv1yIOp"><path d=" M 99.63 129.875 L 99.63 134.344 Q 102.382 137.356 105.757 137.356 C 108.17 137.356 110.807 134.914 113.171 131.326" id="Tracé" fill="white" stroke="none"/></mask><path d=" M 99.63 129.875 L 99.63 134.344 Q 102.382 137.356 105.757 137.356 C 108.17 137.356 110.807 134.914 113.171 131.326" id="Tracé" fill="none"/><path d=" M 99.63 129.875 L 99.63 134.344 Q 102.382 137.356 105.757 137.356 C 108.17 137.356 110.807 134.914 113.171 131.326" id="Tracé" fill="none" mask="url(#_mask_1BgRsOXnE5S9IoGyKZEbv9aHOmv1yIOp)" vector-effect="non-scaling-stroke" stroke-width="1" stroke="rgb(101,76,7)" stroke-linejoin="miter" stroke-linecap="square" stroke-miterlimit="3"/></g><g id="attributes"><g id="sunglasses"><path d=" M 91.194 126.802 L 90.576 126.548 C 89.417 126.072 88.864 124.746 89.34 123.588 L 91.099 119.309 C 91.576 118.15 92.901 117.597 94.06 118.073 L 94.678 118.327 C 95.837 118.804 96.39 120.129 95.914 121.288 L 94.155 125.566 C 93.678 126.725 92.353 127.278 91.194 126.802 Z " id="Tracé" fill="rgb(194,220,224)"/><g opacity="0.2"><path d=" M 94.06 118.073 C 92.901 117.597 91.576 118.15 91.1 119.309 L 89.341 123.587 C 88.865 124.746 89.418 126.072 90.576 126.548 L 91.195 126.802 C 91.226 126.815 91.257 126.824 91.289 126.835 C 92.724 124.498 93.774 121.617 94.215 118.137 L 94.06 118.073 Z " id="Tracé" fill="rgb(0,0,0)"/></g><path d=" M 108.806 126.802 L 109.424 126.548 C 110.583 126.072 111.136 124.746 110.66 123.588 L 108.901 119.309 C 108.424 118.15 107.099 117.597 105.94 118.073 L 105.322 118.327 C 104.163 118.804 103.61 120.129 104.086 121.288 L 105.845 125.566 C 106.322 126.725 107.647 127.278 108.806 126.802 Z " id="Tracé" fill="rgb(194,220,224)"/><g opacity="0.2"><path d=" M 105.94 118.073 C 107.099 117.597 108.424 118.15 108.901 119.309 L 110.66 123.587 C 111.136 124.746 110.583 126.072 109.424 126.548 L 108.806 126.802 C 108.775 126.815 108.743 126.824 108.712 126.835 C 107.276 124.498 106.226 121.617 105.785 118.137 L 105.94 118.073 Z " id="Tracé" fill="rgb(0,0,0)"/></g><g id="Groep"><path d=" M 108.101 112.887 C 107.862 112.887 107.619 112.824 107.398 112.691 C 103.987 110.645 101.913 109.847 100 109.847 C 98.087 109.847 96.013 110.645 92.602 112.691 C 91.954 113.081 91.113 112.87 90.724 112.222 C 90.335 111.573 90.545 110.733 91.193 110.343 C 94.429 108.402 97.165 107.109 100 107.109 C 102.836 107.109 105.572 108.402 108.807 110.343 C 109.455 110.733 109.666 111.573 109.277 112.222 C 109.02 112.65 108.566 112.887 108.101 112.887 Z " id="Tracé" fill="rgb(233,210,134)"/><path d=" M 61.042 114.694 L 57.239 114.694 C 56.483 114.694 55.87 114.081 55.87 113.325 C 55.87 112.569 56.483 111.956 57.239 111.956 L 61.042 111.956 C 61.799 111.956 62.411 112.569 62.411 113.325 C 62.412 114.081 61.799 114.694 61.042 114.694 Z " id="Tracé" fill="rgb(233,210,134)"/><path d=" M 142.761 114.694 L 138.958 114.694 C 138.201 114.694 137.589 114.081 137.589 113.325 C 137.589 112.569 138.201 111.956 138.958 111.956 L 142.761 111.956 C 143.517 111.956 144.13 112.569 144.13 113.325 C 144.13 114.081 143.517 114.694 142.761 114.694 Z " id="Tracé" fill="rgb(233,210,134)"/></g><g id="Groep"><path d=" M 75.984 104 C 67.275 104 60.168 106.245 60.168 116.887 C 60.168 124.697 60.978 125.932 63.976 129.383 C 66.805 132.641 69.283 134.07 75.984 134.07 C 83.502 134.07 93.459 128.212 93.459 113.372 C 93.46 104 82.916 104 75.984 104 Z " id="Tracé" fill="rgb(95,102,111)"/><path d=" M 124.016 104 C 132.725 104 139.832 106.245 139.832 116.887 C 139.832 124.697 139.022 125.932 136.024 129.383 C 133.195 132.641 130.717 134.07 124.016 134.07 C 116.498 134.07 106.541 128.212 106.541 113.372 C 106.541 104 117.084 104 124.016 104 Z " id="Tracé" fill="rgb(95,102,111)"/></g><g id="Groep"><g opacity="0.15"><path d=" M 75.984 104 C 67.275 104 60.168 106.245 60.168 116.887 C 60.168 119.4 60.253 121.23 60.467 122.674 L 79.114 104.027 C 78.025 104 76.968 104 75.984 104 Z " id="Tracé" fill="rgb(255,255,255)"/></g><g opacity="0.15"><path d=" M 138.908 111.15 L 117.424 132.634 C 119.632 133.613 121.919 134.069 124.016 134.069 C 130.717 134.069 133.195 132.641 136.024 129.383 C 139.022 125.932 139.832 124.697 139.832 116.887 C 139.832 114.61 139.505 112.718 138.908 111.15 Z " id="Tracé" fill="rgb(255,255,255)"/></g></g></g></g></g><g id="frog"><g id="body"><path d=" M 168.938 77.519 C 181.274 87.546 188.636 100.338 188.636 114.256 C 188.636 146.584 174.329 164.463 100 164.463 C 27.731 164.463 11.364 146.584 11.364 114.256 C 11.364 101.322 17.721 89.361 28.485 79.666 C 25.284 75.174 23.45 69.669 23.45 63.74 C 23.45 48.174 36.088 35.537 51.653 35.537 C 65.008 35.537 76.208 44.84 79.039 57.343 C 85.757 56.254 92.778 55.682 100 55.682 C 105.836 55.682 111.542 56.055 117.04 56.812 C 120.078 44.581 131.15 35.537 144.318 35.537 C 159.884 35.537 172.521 48.174 172.521 63.74 C 172.521 68.741 171.216 73.44 168.938 77.519 Z " fill-rule="evenodd" id="outer" fill="rgb(179,202,107)"/></g><g id="nose"><circle vector-effect="non-scaling-stroke" cx="91.94214876033062" cy="104.0289256198347" r="4.028925619834709" id="outerL" fill="rgb(105,120,61)"/><circle vector-effect="non-scaling-stroke" cx="108.05785123966946" cy="104.0289256198347" r="4.028925619834709" id="outerR" fill="rgb(105,120,61)"/></g><g id="mouth"><path d=" M 55.682 113.718 L 100 132.231 L 55.682 113.718 Z  M 144.318 113.718 L 100 132.231 L 144.318 113.718 Z " fill-rule="evenodd" id="Samengestelde vorm" fill="none" vector-effect="non-scaling-stroke" stroke-width="3" stroke="rgb(105,120,61)" stroke-linejoin="miter" stroke-linecap="square" stroke-miterlimit="3"/></g><g id="eyes"><circle vector-effect="non-scaling-stroke" cx="53.66735537190088" cy="65.75413223140494" r="14.101239669421474" id="outerL" fill="rgb(255,255,255)"/><circle vector-effect="non-scaling-stroke" cx="55.95661157024798" cy="68.04338842975203" r="7.043388429752014" id="innerL" fill="rgb(105,120,61)"/><circle vector-effect="non-scaling-stroke" cx="143.8987603305785" cy="65.75413223140494" r="14.10123966942146" id="outerR" fill="rgb(255,255,255)"/><circle vector-effect="non-scaling-stroke" cx="141.60950413223142" cy="68.04338842975203" r="7.043388429752014" id="innerR" fill="rgb(105,120,61)"/></g><g id="attributes"><g id="sunglasses"><path d=" M 88.286 90.333 L 87.464 89.994 C 85.922 89.361 85.187 87.598 85.82 86.056 L 88.16 80.365 C 88.793 78.823 90.557 78.088 92.098 78.721 L 92.92 79.059 C 94.462 79.693 95.198 81.456 94.564 82.997 L 92.224 88.689 C 91.591 90.23 89.828 90.966 88.286 90.333 Z " id="Tracé" fill="rgb(194,220,224)"/><g opacity="0.2"><path d=" M 92.098 78.721 C 90.557 78.087 88.794 78.823 88.16 80.365 L 85.821 86.056 C 85.187 87.598 85.923 89.361 87.464 89.994 L 88.287 90.332 C 88.328 90.349 88.37 90.361 88.412 90.377 C 90.322 87.267 91.718 83.435 92.305 78.806 L 92.098 78.721 Z " id="Tracé" fill="rgb(0,0,0)"/></g><path d=" M 111.714 90.333 L 112.536 89.994 C 114.078 89.361 114.813 87.598 114.18 86.056 L 111.84 80.365 C 111.207 78.823 109.443 78.087 107.902 78.721 L 107.08 79.059 C 105.538 79.692 104.802 81.456 105.436 82.997 L 107.776 88.689 C 108.409 90.23 110.172 90.966 111.714 90.333 Z " id="Tracé" fill="rgb(194,220,224)"/><g opacity="0.2"><path d=" M 107.902 78.721 C 109.443 78.087 111.207 78.823 111.84 80.365 L 114.18 86.056 C 114.813 87.598 114.078 89.361 112.536 89.994 L 111.714 90.332 C 111.673 90.349 111.63 90.361 111.589 90.377 C 109.679 87.267 108.282 83.435 107.696 78.806 L 107.902 78.721 Z " id="Tracé" fill="rgb(0,0,0)"/></g><g id="Groep"><path d=" M 110.777 71.821 C 110.458 71.821 110.135 71.738 109.842 71.562 C 105.303 68.839 102.544 67.778 100 67.778 C 97.456 67.778 94.697 68.839 90.159 71.562 C 89.296 72.079 88.178 71.8 87.66 70.937 C 87.143 70.075 87.422 68.956 88.285 68.438 C 92.589 65.856 96.229 64.136 100 64.136 C 103.772 64.136 107.412 65.856 111.715 68.438 C 112.578 68.956 112.858 70.074 112.34 70.937 C 111.999 71.506 111.396 71.821 110.777 71.821 Z " id="Tracé" fill="rgb(233,210,134)"/><path d=" M 48.177 74.226 L 43.118 74.226 C 42.112 74.226 41.297 73.411 41.297 72.405 C 41.297 71.399 42.112 70.583 43.118 70.583 L 48.177 70.583 C 49.183 70.583 49.998 71.399 49.998 72.405 C 49.998 73.41 49.183 74.226 48.177 74.226 Z " id="Tracé" fill="rgb(233,210,134)"/><path d=" M 156.882 74.226 L 151.823 74.226 C 150.817 74.226 150.002 73.411 150.002 72.405 C 150.002 71.399 150.817 70.583 151.823 70.583 L 156.882 70.583 C 157.888 70.583 158.703 71.399 158.703 72.405 C 158.703 73.41 157.888 74.226 156.882 74.226 Z " id="Tracé" fill="rgb(233,210,134)"/></g><g id="Groep"><path d=" M 68.053 60 C 56.468 60 47.014 62.987 47.014 77.143 C 47.014 87.532 48.091 89.175 52.079 93.766 C 55.843 98.099 59.138 100 68.053 100 C 78.053 100 91.299 92.208 91.299 72.468 C 91.3 60 77.273 60 68.053 60 Z " id="Tracé" fill="rgb(95,102,111)"/><path d=" M 131.947 60 C 143.532 60 152.986 62.987 152.986 77.143 C 152.986 87.532 151.909 89.175 147.921 93.766 C 144.157 98.099 140.862 100 131.947 100 C 121.947 100 108.701 92.208 108.701 72.468 C 108.701 60 122.727 60 131.947 60 Z " id="Tracé" fill="rgb(95,102,111)"/></g><g id="Groep"><g opacity="0.15"><path d=" M 68.053 60 C 56.468 60 47.014 62.987 47.014 77.143 C 47.014 80.486 47.126 82.92 47.411 84.842 L 72.217 60.036 C 70.768 60 69.362 60 68.053 60 Z " id="Tracé" fill="rgb(255,255,255)"/></g><g opacity="0.15"><path d=" M 151.758 69.511 L 123.179 98.09 C 126.115 99.393 129.158 100 131.947 100 C 140.862 100 144.157 98.099 147.921 93.766 C 151.909 89.175 152.986 87.532 152.986 77.143 C 152.986 74.114 152.552 71.597 151.758 69.511 Z " id="Tracé" fill="rgb(255,255,255)"/></g></g></g></g></g><g id="owl"><g id="body"><path d=" M 171.805 73.697 C 182.317 82.835 188.49 94.044 188.49 106.147 C 188.49 136.973 148.447 162 99.125 162 C 49.803 162 9.76 136.973 9.76 106.147 C 9.76 95.545 14.497 85.629 22.691 77.169 C 22.63 60.565 28.537 49.607 32.102 31.676 C 34.007 22.089 49.382 40.224 63.033 55.084 C 74.052 51.993 86.274 50.294 99.125 50.294 C 110.824 50.294 122 51.702 132.219 54.291 C 145.682 39.594 160.553 22.257 162.425 31.676 C 165.738 48.342 171.075 58.984 171.805 73.697 Z " fill-rule="evenodd" id="outer" fill="rgb(183,154,126)"/><path d=" M 99.125 98.932 C 94.61 85.793 82.136 76.359 67.475 76.359 C 48.979 76.359 33.963 91.375 33.963 109.87 C 33.963 128.366 48.979 143.382 67.475 143.382 C 82.136 143.382 94.61 133.948 99.125 120.808 C 103.64 133.948 116.115 143.382 130.775 143.382 C 149.271 143.382 164.287 128.366 164.287 109.87 C 164.287 91.375 149.271 76.359 130.775 76.359 C 116.115 76.359 103.64 85.793 99.125 98.932 Z " fill-rule="evenodd" id="inner" fill="rgb(217,205,183)"/></g><g id="eyes"><circle vector-effect="non-scaling-stroke" cx="73.06044852365626" cy="112.25591690089615" r="16.755916900896224" id="outerL" fill="rgb(255,255,255)"/><circle vector-effect="non-scaling-stroke" cx="76.5221518109518" cy="112.25591690089607" r="10.908777465471715" id="innerL" fill="rgb(142,120,97)"/><circle vector-effect="non-scaling-stroke" cx="125.18996777088883" cy="112.25591690089615" r="16.755916900896224" id="outerR" fill="rgb(255,255,255)"/><circle vector-effect="non-scaling-stroke" cx="121.7282644835931" cy="112.25591690089607" r="10.908777465471715" id="innerR" fill="rgb(142,120,97)"/></g><g id="nose"><path d=" M 99.125 154.619 C 99.431 154.619 99.229 154.619 99.545 154.619 C 101.176 154.619 114.019 140.098 114.019 132.278 Q 114.019 120.177 99.125 121.108 L 99.125 121.108 Q 84.231 120.177 84.231 132.278 C 84.231 140.098 97.075 154.619 98.705 154.619 C 99.022 154.619 98.82 154.619 99.125 154.619 L 99.125 154.619 Z " fill-rule="evenodd" id="outer" fill="rgb(255,237,125)"/></g><g id="attributes"><g id="subglasses"><g id="Groep"><path d=" M 50.622 107.795 L 47.493 107.795 C 46.57 107.795 45.821 107.047 45.821 106.124 C 45.821 105.201 46.57 104.452 47.493 104.452 L 50.623 104.452 C 51.546 104.452 52.294 105.201 52.294 106.124 C 52.294 107.047 51.545 107.795 50.622 107.795 Z " id="Tracé" fill="rgb(195,196,199)"/><path d=" M 152.507 107.795 L 149.377 107.795 C 148.454 107.795 147.706 107.047 147.706 106.124 C 147.706 105.201 148.454 104.452 149.377 104.452 L 152.507 104.452 C 153.431 104.452 154.179 105.201 154.179 106.124 C 154.179 107.047 153.43 107.795 152.507 107.795 Z " id="Tracé" fill="rgb(195,196,199)"/></g><path d=" M 109.309 105.675 C 107.887 105.675 106.807 105.164 105.763 104.67 C 104.434 104.041 102.927 103.328 100 103.328 C 97.074 103.328 95.567 104.041 94.238 104.67 C 93.194 105.164 92.114 105.675 90.692 105.675 L 90.692 102.332 C 91.334 102.332 91.859 102.098 92.808 101.649 C 94.292 100.947 96.323 99.986 100.001 99.986 C 103.678 99.986 105.71 100.947 107.193 101.649 C 108.142 102.098 108.668 102.332 109.309 102.332 L 109.309 105.675 L 109.309 105.675 Z " id="Tracé" fill="rgb(195,196,199)"/><path d=" M 89.781 100.566 C 86.223 97.204 81.07 95.5 74.466 95.5 C 68.788 95.5 64.187 96.763 60.745 99.252 C 60.744 99.252 60.742 99.251 60.742 99.251 C 57.844 101.211 53.552 103.284 50.8 103.798 C 50.138 103.922 49.656 104.492 49.656 105.165 L 49.656 106.797 C 49.656 107.564 50.131 108.249 50.849 108.519 C 52.114 108.994 53.93 110.346 53.93 114.188 C 53.93 125.331 63.143 134.396 74.466 134.396 C 85.789 134.396 95.001 125.331 95.001 114.188 C 95.001 108.421 93.245 103.838 89.781 100.566 Z " id="Tracé" fill="rgb(237,163,178)"/><path d=" M 90.307 114.188 C 90.307 105.62 85.59 100.194 74.466 100.194 C 63.341 100.194 58.624 105.62 58.624 114.188 C 58.624 122.757 65.717 129.703 74.466 129.703 C 83.215 129.703 90.307 122.757 90.307 114.188 Z " id="Tracé" fill="rgb(57,64,73)"/><g opacity="0.2"><path d=" M 74.465 100.194 C 63.341 100.194 58.624 105.62 58.624 114.188 C 58.624 114.365 58.632 114.54 58.637 114.716 C 58.92 106.6 63.682 101.501 74.465 101.501 C 85.248 101.501 90.011 106.6 90.293 114.716 C 90.299 114.54 90.307 114.365 90.307 114.188 C 90.307 105.62 85.59 100.194 74.465 100.194 Z " id="Tracé" fill="rgb(0,0,0)"/></g><path d=" M 110.219 100.566 C 113.777 97.204 118.93 95.5 125.534 95.5 C 131.212 95.5 135.813 96.763 139.255 99.252 C 139.256 99.252 139.258 99.251 139.258 99.251 C 142.156 101.211 146.448 103.284 149.2 103.798 C 149.862 103.922 150.344 104.492 150.344 105.165 L 150.344 106.797 C 150.344 107.564 149.869 108.249 149.151 108.519 C 147.886 108.994 146.07 110.346 146.07 114.188 C 146.07 125.331 136.857 134.396 125.534 134.396 C 114.211 134.396 104.999 125.331 104.999 114.188 C 104.999 108.421 106.755 103.838 110.219 100.566 Z " id="Tracé" fill="rgb(237,163,178)"/><path d=" M 109.693 114.188 C 109.693 105.62 114.41 100.194 125.534 100.194 C 136.659 100.194 141.376 105.62 141.376 114.188 C 141.376 122.757 134.283 129.703 125.534 129.703 C 116.785 129.703 109.693 122.757 109.693 114.188 Z " id="Tracé" fill="rgb(57,64,73)"/><g opacity="0.2"><path d=" M 125.535 100.194 C 136.659 100.194 141.376 105.62 141.376 114.188 C 141.376 114.365 141.368 114.54 141.363 114.716 C 141.08 106.6 136.318 101.501 125.535 101.501 C 114.752 101.501 109.989 106.6 109.707 114.716 C 109.701 114.54 109.693 114.365 109.693 114.188 C 109.693 105.62 114.41 100.194 125.535 100.194 Z " id="Tracé" fill="rgb(0,0,0)"/></g><g id="Groep"><g opacity="0.15"><path d=" M 74.465 100.194 C 63.341 100.194 58.624 105.62 58.624 114.188 C 58.624 117.37 59.603 120.326 61.28 122.788 L 82.56 101.508 C 80.372 100.652 77.69 100.194 74.465 100.194 Z " id="Tracé" fill="rgb(255,255,255)"/></g><g opacity="0.15"><path d=" M 139.813 106.898 L 118.581 128.13 C 120.68 129.136 123.039 129.703 125.534 129.703 C 134.284 129.703 141.376 122.757 141.376 114.188 C 141.376 111.397 140.872 108.943 139.813 106.898 Z " id="Tracé" fill="rgb(255,255,255)"/></g></g></g></g></g><g id="pig"><g id="body"><path d=" M 177.39 91.441 C 178.445 95.452 178.966 99.616 178.966 103.878 C 178.966 139.064 143.45 167.63 99.706 167.63 C 55.961 167.63 20.446 139.064 20.446 103.878 C 20.446 99.616 20.967 95.452 22.021 91.441 C -4.017 98.48 11.99 76.97 23.42 60.036 Q 34.87 43.074 47.154 56.168 C 61.146 46.188 79.552 40.125 99.706 40.125 C 119.859 40.125 138.265 46.188 152.257 56.168 Q 164.541 43.074 175.991 60.036 C 187.421 76.97 203.428 98.48 177.39 91.441 Z " fill-rule="evenodd" id="outer" fill="rgb(248,204,195)"/></g><g id="hair"><path d=" M 95.436 48.599 C 103.329 48.599 115.993 40.706 113.057 36.851 Q 110.12 32.997 104.246 36.851 Q 108.651 22.168 98.373 22.168 Q 88.094 22.168 95.436 36.851 Q 80.752 26.206 80.752 36.851 C 80.752 47.497 87.543 48.599 95.436 48.599 Z " id="outer" fill="rgb(255,241,118)"/></g><g id="nose"><ellipse vector-effect="non-scaling-stroke" cx="99.70559451036915" cy="128.82455239543106" rx="31.014770555327473" ry="24.946663272763402" id="outer" fill="rgb(240,163,155)"/><ellipse vector-effect="non-scaling-stroke" cx="85.92125204133477" cy="128.8245523954311" rx="5.169128425887919" ry="11.087405899005965" id="innerL" fill="rgb(193,133,125)"/><ellipse vector-effect="non-scaling-stroke" cx="113.4899369794038" cy="128.8245523954311" rx="5.169128425887919" ry="11.087405899005965" id="innerR" fill="rgb(193,133,125)"/></g><g id="eyes"><circle vector-effect="non-scaling-stroke" cx="66.10625974209776" cy="96.12419648383579" r="14.645863873349057" id="outerL" fill="rgb(255,255,255)"/><circle vector-effect="non-scaling-stroke" cx="68.69082395504164" cy="97.41647859030768" r="6.461410532359892" id="innerL" fill="rgb(143,115,112)"/><circle vector-effect="non-scaling-stroke" cx="133.30492927864069" cy="96.12419648383592" r="14.645863873349064" id="outerR" fill="rgb(255,255,255)"/><circle vector-effect="non-scaling-stroke" cx="130.72036506569668" cy="97.41647859030768" r="6.461410532359885" id="innerR" fill="rgb(143,115,112)"/></g><g id="attributes"><g id="sunglasses"><path d=" M 88.286 109.5 L 87.464 109.162 C 85.922 108.529 85.187 106.765 85.82 105.224 L 88.16 99.532 C 88.793 97.991 90.557 97.255 92.098 97.889 L 92.92 98.227 C 94.462 98.86 95.198 100.624 94.564 102.165 L 92.224 107.856 C 91.591 109.398 89.828 110.134 88.286 109.5 Z " id="Tracé" fill="rgb(194,220,224)"/><g opacity="0.2"><path d=" M 92.098 97.889 C 90.557 97.255 88.794 97.991 88.16 99.532 L 85.821 105.224 C 85.187 106.765 85.923 108.528 87.464 109.162 L 88.287 109.5 C 88.328 109.517 88.37 109.529 88.412 109.544 C 90.322 106.435 91.718 102.603 92.305 97.973 L 92.098 97.889 Z " id="Tracé" fill="rgb(0,0,0)"/></g><path d=" M 111.714 109.5 L 112.536 109.162 C 114.078 108.529 114.813 106.765 114.18 105.224 L 111.84 99.532 C 111.207 97.991 109.443 97.255 107.902 97.889 L 107.08 98.227 C 105.538 98.86 104.802 100.623 105.436 102.165 L 107.776 107.856 C 108.409 109.398 110.172 110.134 111.714 109.5 Z " id="Tracé" fill="rgb(194,220,224)"/><g opacity="0.2"><path d=" M 107.902 97.889 C 109.443 97.255 111.207 97.991 111.84 99.532 L 114.18 105.224 C 114.813 106.765 114.078 108.528 112.536 109.162 L 111.714 109.5 C 111.673 109.517 111.63 109.529 111.589 109.544 C 109.679 106.435 108.282 102.603 107.696 97.973 L 107.902 97.889 Z " id="Tracé" fill="rgb(0,0,0)"/></g><g id="Groep"><path d=" M 110.777 90.989 C 110.458 90.989 110.135 90.905 109.842 90.729 C 105.303 88.007 102.544 86.946 100 86.946 C 97.456 86.946 94.697 88.007 90.159 90.729 C 89.296 91.247 88.178 90.968 87.66 90.105 C 87.143 89.242 87.422 88.124 88.285 87.606 C 92.589 85.023 96.229 83.303 100 83.303 C 103.772 83.303 107.412 85.023 111.715 87.606 C 112.578 88.124 112.858 89.242 112.34 90.105 C 111.999 90.674 111.396 90.989 110.777 90.989 Z " id="Tracé" fill="rgb(233,210,134)"/><path d=" M 48.177 93.393 L 43.118 93.393 C 42.112 93.393 41.297 92.578 41.297 91.572 C 41.297 90.566 42.112 89.751 43.118 89.751 L 48.177 89.751 C 49.183 89.751 49.998 90.566 49.998 91.572 C 49.998 92.578 49.183 93.393 48.177 93.393 Z " id="Tracé" fill="rgb(233,210,134)"/><path d=" M 156.882 93.393 L 151.823 93.393 C 150.817 93.393 150.002 92.578 150.002 91.572 C 150.002 90.566 150.817 89.751 151.823 89.751 L 156.882 89.751 C 157.888 89.751 158.703 90.566 158.703 91.572 C 158.703 92.578 157.888 93.393 156.882 93.393 Z " id="Tracé" fill="rgb(233,210,134)"/></g><g id="Groep"><path d=" M 68.053 79.168 C 56.468 79.168 47.014 82.155 47.014 96.31 C 47.014 106.7 48.091 108.342 52.079 112.934 C 55.843 117.267 59.138 119.168 68.053 119.168 C 78.053 119.168 91.299 111.375 91.299 91.635 C 91.3 79.168 77.273 79.168 68.053 79.168 Z " id="Tracé" fill="rgb(95,102,111)"/><path d=" M 131.947 79.168 C 143.532 79.168 152.986 82.155 152.986 96.31 C 152.986 106.7 151.909 108.342 147.921 112.934 C 144.157 117.267 140.862 119.168 131.947 119.168 C 121.947 119.168 108.701 111.375 108.701 91.635 C 108.701 79.168 122.727 79.168 131.947 79.168 Z " id="Tracé" fill="rgb(95,102,111)"/></g><g id="Groep"><g opacity="0.15"><path d=" M 68.053 79.168 C 56.468 79.168 47.014 82.155 47.014 96.31 C 47.014 99.654 47.126 102.088 47.411 104.009 L 72.217 79.203 C 70.768 79.168 69.362 79.168 68.053 79.168 Z " id="Tracé" fill="rgb(255,255,255)"/></g><g opacity="0.15"><path d=" M 151.758 88.679 L 123.179 117.258 C 126.115 118.56 129.158 119.167 131.947 119.167 C 140.862 119.167 144.157 117.267 147.921 112.934 C 151.909 108.342 152.986 106.7 152.986 96.31 C 152.986 93.281 152.552 90.765 151.758 88.679 Z " id="Tracé" fill="rgb(255,255,255)"/></g></g></g></g></g><g id="cow"><path d=" M 65.485 13.012 C 60.888 12.322 54.943 42.066 67.32 64.702 Q 79.697 87.338 93.028 48.697 C 66.197 38.315 70.625 13.783 65.485 13.012 Z " id="Tracé" fill="rgb(241,197,116)"/><path d=" M 135.526 13.012 C 140.123 12.322 146.068 42.066 133.691 64.702 Q 121.315 87.338 107.983 48.697 C 134.814 38.315 130.386 13.783 135.526 13.012 Z " id="Tracé" fill="rgb(241,197,116)"/><g id="body"><path d=" M 142.17 56.86 C 132.33 44.95 119.052 37.355 104.355 36.543 C 101.536 44.987 100 54.283 100 64.032 C 100 103.009 124.548 134.737 155.001 135.443 C 157.949 126.963 159.556 117.616 159.556 107.811 C 159.556 95.805 157.147 84.488 152.856 74.583 C 167.666 76.769 178.069 71.368 184.079 58.433 C 170.069 48.507 156.121 47.977 142.17 56.86 Z " fill-rule="evenodd" id="inner" fill="rgb(98,98,98)"/><path d=" M 60.136 58.389 C 70.631 44.88 85.403 36.488 101.752 36.488 C 102.623 36.488 103.489 36.512 104.355 36.543 C 101.536 44.987 100 54.283 100 64.032 C 100 103.009 124.548 134.737 155.001 135.443 C 146.279 161.113 125.708 179.133 101.752 179.133 C 69.848 179.133 43.947 147.174 43.947 107.811 C 43.947 95.555 46.458 84.017 50.917 73.967 C 34.115 77.624 22.437 72.455 15.921 58.433 C 30.703 47.96 45.416 47.948 60.136 58.389 Z " fill-rule="evenodd" id="outer" fill="rgb(254,245,228)"/></g><g id="nose"><ellipse vector-effect="non-scaling-stroke" cx="100" cy="153.53000065152722" rx="31.529719478895778" ry="21.945351421812717" id="outer" fill="rgb(250,211,192)"/><path d=" M 82.528 161.555 C 82.027 157.551 83.956 153.983 86.832 153.591 C 89.708 153.2 92.449 156.132 92.949 160.136 C 93.449 164.139 91.521 167.707 88.645 168.099 C 85.769 168.49 83.028 165.558 82.528 161.555 Z " id="innerL" fill="rgb(98,98,98)"/><path d=" M 117.507 161.555 C 118.007 157.551 116.079 153.983 113.203 153.591 C 110.327 153.2 107.586 156.132 107.086 160.136 C 106.585 164.139 108.514 167.707 111.39 168.099 C 114.266 168.49 117.007 165.558 117.507 161.555 Z " id="innerR" fill="rgb(98,98,98)"/></g><g id="eyes"><ellipse vector-effect="non-scaling-stroke" cx="66.7186294389435" cy="105.9817392375997" rx="12.261557575126133" ry="12.801454996057416" id="outerR" fill="rgb(255,255,255)"/><ellipse vector-effect="non-scaling-stroke" cx="68.47028052110429" cy="107.81051852275075" rx="7.0066043286435225" ry="7.315117140604258" id="innerL" fill="rgb(98,98,98)"/><ellipse vector-effect="non-scaling-stroke" cx="133.28137056105692" cy="107.8105185227508" rx="12.26155757512614" ry="12.801454996057416" id="outerR" fill="rgb(255,255,255)"/><ellipse vector-effect="non-scaling-stroke" cx="131.52971947889577" cy="109.63929780790185" rx="7.006604328643526" ry="7.315117140604258" id="innerR" fill="rgb(98,98,98)"/></g><g id="attributes"><g id="sunglasses"><g id="Groep"><path d=" M 89.437 99.957 C 90.593 98.664 93.012 97.283 96.567 96.721 L 96.573 96.76 C 94.593 93.326 86.351 87.168 74.674 87.168 C 60.856 87.168 52.595 89.66 48.689 91.413 C 47.748 91.835 47.144 92.77 47.14 93.801 C 47.135 95.029 47.127 96.487 47.129 97.726 C 47.131 98.648 47.716 99.435 48.565 99.796 C 49.402 100.152 49.825 100.97 49.993 102.566 C 50.117 103.758 51.123 104.664 52.32 104.664 L 54.743 104.664 L 89.437 99.957 Z " id="Tracé" fill="rgb(162,123,90)"/><path d=" M 110.563 99.957 C 109.407 98.664 106.988 97.283 103.433 96.721 L 103.427 96.76 C 105.407 93.326 113.649 87.168 125.326 87.168 C 139.144 87.168 147.405 89.66 151.311 91.413 C 152.252 91.835 152.856 92.77 152.86 93.801 C 152.865 95.029 152.873 96.487 152.871 97.726 C 152.869 98.648 152.284 99.435 151.435 99.796 C 150.598 100.152 150.175 100.97 150.007 102.566 C 149.883 103.758 148.877 104.664 147.68 104.664 L 145.257 104.664 L 110.563 99.957 Z " id="Tracé" fill="rgb(162,123,90)"/></g><path d=" M 109.306 101.08 C 107.371 98.915 103.083 98.147 100 98.147 C 96.916 98.147 92.629 98.915 90.694 101.08 L 88.18 98.833 C 89.934 96.872 93.96 94.776 100 94.776 C 106.04 94.776 110.066 96.872 111.819 98.833 L 109.306 101.08 Z " id="Tracé" fill="rgb(195,196,199)"/><path d=" M 74.287 92.184 C 65.959 92.184 54.498 93.794 54.498 108.44 C 54.498 124.697 67.015 123.996 70.114 123.996 C 73.214 123.996 92.883 122.241 92.883 105.166 C 92.884 93.12 80.125 92.184 74.287 92.184 Z " id="Tracé" fill="rgb(57,64,73)"/><g opacity="0.2"><path d=" M 74.287 92.184 C 65.959 92.184 54.498 93.794 54.498 108.44 C 54.498 108.685 54.501 108.926 54.507 109.164 C 54.862 95.156 66.091 93.596 74.287 93.596 C 80.018 93.596 92.419 94.499 92.869 105.932 C 92.878 105.68 92.883 105.425 92.883 105.166 C 92.884 93.12 80.125 92.184 74.287 92.184 Z " id="Tracé" fill="rgb(0,0,0)"/></g><path d=" M 125.713 92.184 C 134.041 92.184 145.502 93.794 145.502 108.44 C 145.502 124.697 132.985 123.996 129.885 123.996 C 126.786 123.996 107.117 122.241 107.117 105.166 C 107.116 93.12 119.875 92.184 125.713 92.184 Z " id="Tracé" fill="rgb(57,64,73)"/><g opacity="0.2"><path d=" M 125.713 92.184 C 134.041 92.184 145.502 93.794 145.502 108.44 C 145.502 108.685 145.499 108.926 145.493 109.164 C 145.138 95.156 133.909 93.596 125.713 93.596 C 119.981 93.596 107.581 94.499 107.13 105.932 C 107.121 105.68 107.116 105.425 107.116 105.166 C 107.116 93.12 119.875 92.184 125.713 92.184 Z " id="Tracé" fill="rgb(0,0,0)"/></g><g id="Groep"><g opacity="0.15"><path d=" M 74.287 92.184 C 65.959 92.184 54.498 93.794 54.498 108.44 C 54.498 111.87 55.057 114.544 55.965 116.63 L 80.025 92.571 C 77.87 92.25 75.835 92.184 74.287 92.184 Z " id="Tracé" fill="rgb(255,255,255)"/></g><g opacity="0.15"><path d=" M 142.978 98.729 L 119.713 121.994 C 124.243 123.677 128.566 123.996 129.885 123.996 C 132.985 123.996 145.502 124.697 145.502 108.44 C 145.502 104.204 144.542 101.061 142.978 98.729 Z " id="Tracé" fill="rgb(255,255,255)"/></g></g><g id="Groep"><path d=" M 52.806 96.699 L 51.662 96.699 C 50.731 96.699 49.977 95.944 49.977 95.013 C 49.977 94.082 50.731 93.328 51.662 93.328 L 52.806 93.328 C 53.737 93.328 54.491 94.082 54.491 95.013 C 54.491 95.944 53.737 96.699 52.806 96.699 Z " id="Tracé" fill="rgb(195,196,199)"/><path d=" M 148.338 96.699 L 147.194 96.699 C 146.263 96.699 145.509 95.944 145.509 95.013 C 145.509 94.082 146.263 93.328 147.194 93.328 L 148.338 93.328 C 149.269 93.328 150.023 94.082 150.023 95.013 C 150.023 95.944 149.269 96.699 148.338 96.699 Z " id="Tracé" fill="rgb(195,196,199)"/></g></g></g></g><g id="dolphin"><g id="body"><path d=" M 40.561 82.115 C 48.243 53.071 77.683 31.43 112.781 31.43 C 153.744 31.43 187 60.907 187 97.215 C 187 133.523 153.744 163 112.781 163 C 85.827 163 62.209 150.236 49.192 131.171 C 45.936 130.886 42.59 130.273 39.233 129.266 C 21.4 123.912 9.964 109.431 13.711 96.948 C 16.583 87.381 27.544 81.746 40.561 82.115 Z " fill-rule="evenodd" id="outer" fill="rgb(128,201,236)"/><path d=" M 156.331 150.46 C 144.102 158.351 129.049 163 112.781 163 C 99.865 163 87.715 160.069 77.162 154.875 C 85.009 145.671 100.842 139.385 119.075 139.385 C 134.214 139.385 147.699 143.719 156.331 150.46 Z " fill-rule="evenodd" id="inner" fill="rgb(241,241,241)"/></g><g id="facial"><path d=" M 141.089 51.752 C 144.271 47.161 152.209 47.145 158.803 51.715 C 165.397 56.286 168.167 63.724 164.985 68.315 C 161.803 72.906 153.866 72.922 147.272 68.351 C 140.678 63.781 137.907 56.343 141.089 51.752 Z " id="outer" fill="rgb(192,230,248)"/></g><g id="eyes"><circle vector-effect="non-scaling-stroke" cx="124.58857354753076" cy="97.21498292847842" r="15.18115778573577" id="outerR" fill="rgb(255,255,255)"/><circle vector-effect="non-scaling-stroke" cx="122.90177823800454" cy="98.90177823800451" r="6.747181238104794" id="innerR" fill="rgb(62,112,135)"/></g><g id="mouth"><mask id="_mask_IS4o6Vh6jZX4U5q3k8PsFclnryqqwXoT"><path d=" M 18.32 109.023 C 28.52 118.063 36.077 108.745 44.781 112.396 C 54.613 116.521 67.066 111.777 68.924 105.649" id="inner" fill="white" stroke="none"/></mask><path d=" M 18.32 109.023 C 28.52 118.063 36.077 108.745 44.781 112.396 C 54.613 116.521 67.066 111.777 68.924 105.649" id="inner" fill="none"/><path d=" M 18.32 109.023 C 28.52 118.063 36.077 108.745 44.781 112.396 C 54.613 116.521 67.066 111.777 68.924 105.649" id="inner" fill="none" mask="url(#_mask_IS4o6Vh6jZX4U5q3k8PsFclnryqqwXoT)" vector-effect="non-scaling-stroke" stroke-width="2" stroke="rgb(62,112,135)" stroke-linejoin="miter" stroke-linecap="square" stroke-miterlimit="3"/></g></g><g id="koala"><g id="body"><path d=" M 158.391 106.691 C 158.464 107.785 158.5 108.889 158.5 110 C 158.5 139.803 132.287 164 100 164 C 67.713 164 41.5 139.803 41.5 110 C 41.5 108.889 41.536 107.785 41.609 106.691 C 26.298 104.556 14.5 91.395 14.5 75.5 C 14.5 58.115 28.615 44 46 44 C 58.363 44 69.072 51.138 74.225 61.516 C 82.004 57.985 90.753 56 100 56 C 109.247 56 117.996 57.985 125.775 61.516 C 130.928 51.138 141.637 44 154 44 C 171.385 44 185.5 58.115 185.5 75.5 C 185.5 91.395 173.702 104.556 158.391 106.691 Z " fill-rule="evenodd" id="outer" fill="rgb(174,183,192)"/><path d=" M 131.5 77 C 131.5 65.41 140.91 56 152.5 56 C 164.09 56 173.5 65.41 173.5 77 C 173.5 88.59 164.09 98 152.5 98 C 140.91 98 131.5 88.59 131.5 77 Z  M 25 77 C 25 65.41 34.41 56 46 56 C 57.59 56 67 65.41 67 77 C 67 88.59 57.59 98 46 98 C 34.41 98 25 88.59 25 77 Z " fill-rule="evenodd" id="inner" fill="rgb(238,247,252)"/></g><g id="nose"><path d=" M 94.598 140.072 C 90.653 138.156 89.5 133.487 89.5 129.667 C 89.5 123.872 94.205 114.5 100 114.5 C 105.795 114.5 110.5 123.872 110.5 129.667 C 110.5 133.554 109.293 138.307 105.241 140.167 C 103.526 140.954 101.908 140.928 100 140.928 C 98.025 140.928 96.352 140.923 94.598 140.072 Z " id="outer" fill="rgb(97,97,96)"/></g><g id="eyes"><circle vector-effect="non-scaling-stroke" cx="130" cy="115.99999999999994" r="10.500000000000007" id="Ellips" fill="rgb(255,255,255)"/><circle vector-effect="non-scaling-stroke" cx="129.99999999999983" cy="119" r="4.5" id="Ellips" fill="rgb(97,97,96)"/><circle vector-effect="non-scaling-stroke" cx="70.00000000000004" cy="115.99999999999994" r="10.50000000000001" id="Ellips" fill="rgb(255,255,255)"/><circle vector-effect="non-scaling-stroke" cx="69.99999999999982" cy="119" r="4.5" id="Ellips" fill="rgb(97,97,96)"/></g><g id="attributes"><g id="sunglasses"><path d=" M 90.043 122.783 L 89.344 122.495 C 88.034 121.957 87.409 120.458 87.947 119.148 L 89.936 114.31 C 90.474 113 91.973 112.374 93.283 112.913 L 93.982 113.2 C 95.292 113.739 95.918 115.238 95.379 116.548 L 93.391 121.385 C 92.852 122.696 91.353 123.321 90.043 122.783 Z " id="Tracé" fill="rgb(194,220,224)"/><g opacity="0.2"><path d=" M 93.284 112.913 C 91.973 112.374 90.475 113 89.936 114.31 L 87.947 119.148 C 87.409 120.458 88.034 121.957 89.345 122.495 L 90.044 122.782 C 90.079 122.797 90.114 122.807 90.15 122.82 C 91.773 120.177 92.961 116.92 93.459 112.985 L 93.284 112.913 Z " id="Tracé" fill="rgb(0,0,0)"/></g><path d=" M 109.957 122.783 L 110.656 122.495 C 111.966 121.957 112.591 120.458 112.053 119.148 L 110.064 114.31 C 109.526 113 108.027 112.374 106.717 112.913 L 106.018 113.2 C 104.708 113.739 104.082 115.237 104.621 116.548 L 106.609 121.385 C 107.148 122.696 108.647 123.321 109.957 122.783 Z " id="Tracé" fill="rgb(194,220,224)"/><g opacity="0.2"><path d=" M 106.717 112.913 C 108.027 112.374 109.526 113 110.064 114.31 L 112.053 119.148 C 112.591 120.458 111.966 121.957 110.656 122.495 L 109.957 122.782 C 109.922 122.797 109.886 122.807 109.851 122.82 C 108.227 120.177 107.04 116.92 106.542 112.985 L 106.717 112.913 Z " id="Tracé" fill="rgb(0,0,0)"/></g><g id="Groep"><path d=" M 109.16 107.048 C 108.889 107.048 108.615 106.977 108.365 106.828 C 104.508 104.513 102.163 103.611 100 103.611 C 97.837 103.611 95.492 104.513 91.635 106.828 C 90.902 107.267 89.951 107.03 89.511 106.296 C 89.071 105.563 89.309 104.613 90.042 104.172 C 93.701 101.977 96.794 100.515 100 100.515 C 103.206 100.515 106.3 101.977 109.958 104.172 C 110.691 104.613 110.929 105.563 110.489 106.296 C 110.199 106.78 109.686 107.048 109.16 107.048 Z " id="Tracé" fill="rgb(233,210,134)"/><path d=" M 55.95 109.092 L 51.65 109.092 C 50.795 109.092 50.102 108.399 50.102 107.544 C 50.102 106.689 50.795 105.996 51.65 105.996 L 55.95 105.996 C 56.805 105.996 57.498 106.689 57.498 107.544 C 57.498 108.399 56.805 109.092 55.95 109.092 Z " id="Tracé" fill="rgb(233,210,134)"/><path d=" M 148.35 109.092 L 144.05 109.092 C 143.195 109.092 142.502 108.399 142.502 107.544 C 142.502 106.689 143.195 105.996 144.05 105.996 L 148.35 105.996 C 149.205 105.996 149.898 106.689 149.898 107.544 C 149.898 108.399 149.205 109.092 148.35 109.092 Z " id="Tracé" fill="rgb(233,210,134)"/></g><g id="Groep"><path d=" M 72.845 97 C 62.998 97 54.962 99.539 54.962 111.571 C 54.962 120.403 55.878 121.799 59.267 125.701 C 62.466 129.385 65.268 131 72.845 131 C 81.345 131 92.604 124.377 92.604 107.597 C 92.605 97 80.682 97 72.845 97 Z " id="Tracé" fill="rgb(95,102,111)"/><path d=" M 127.155 97 C 137.002 97 145.038 99.539 145.038 111.571 C 145.038 120.403 144.122 121.799 140.733 125.701 C 137.534 129.385 134.732 131 127.155 131 C 118.655 131 107.396 124.377 107.396 107.597 C 107.396 97 119.318 97 127.155 97 Z " id="Tracé" fill="rgb(95,102,111)"/></g><g id="Groep"><g opacity="0.15"><path d=" M 72.845 97 C 62.998 97 54.962 99.539 54.962 111.571 C 54.962 114.413 55.057 116.482 55.299 118.115 L 76.384 97.03 C 75.153 97 73.958 97 72.845 97 Z " id="Tracé" fill="rgb(255,255,255)"/></g><g opacity="0.15"><path d=" M 143.994 105.084 L 119.702 129.376 C 122.198 130.484 124.784 131 127.155 131 C 134.732 131 137.534 129.385 140.733 125.701 C 144.122 121.799 145.038 120.402 145.038 111.571 C 145.038 108.997 144.669 106.858 143.994 105.084 Z " id="Tracé" fill="rgb(255,255,255)"/></g></g></g></g></g><g id="imports"/><defs><image width="1024" height="768" xlink:href="cloud://id=m4_wnc3Xm" id="img_VXNgzhZlEqZoBOxweqqAtvILOHCYKwqh"/></defs></svg>