<?xml version="1.0" encoding="UTF-8" standalone="no"?><!-- Generator: Gravit.io --><svg xmlns="http://www.w3.org/2000/svg" xmlns:xlink="http://www.w3.org/1999/xlink" style="isolation:isolate" viewBox="0 0 200 200" width="200pt" height="200pt"><defs><clipPath id="_clipPath_vNoLXxCXsxvzVe3cwaPHqtNoa2rVfO8G"><rect width="200" height="200"/></clipPath></defs><g clip-path="url(#_clipPath_vNoLXxCXsxvzVe3cwaPHqtNoa2rVfO8G)"><g id="backgrounds"><ellipse vector-effect="non-scaling-stroke" cx="100" cy="175.5" rx="100" ry="24.5" id="present" fill="rgb(244,244,244)"/></g><g id="bear"><g id="ears"><circle vector-effect="non-scaling-stroke" cx="51.28043831168817" cy="53.67045454545455" r="20.590909090909093" id="outerL" fill="rgb(179,140,81)"/><circle vector-effect="non-scaling-stroke" cx="148.71956168831144" cy="53.67045454545455" r="20.590909090909093" id="outerR" fill="rgb(179,140,81)"/><circle vector-effect="non-scaling-stroke" cx="51.28043831168816" cy="53.67045454545455" r="13.72727272727279" id="innerL" fill="rgb(240,200,139)"/><circle vector-effect="non-scaling-stroke" cx="148.71956168831144" cy="53.67045454545455" r="13.727272727272805" id="innerR" fill="rgb(240,200,139)"/></g><g id="body"><ellipse vector-effect="non-scaling-stroke" cx="100" cy="99.99999999999999" rx="75.5" ry="66.92045454545455" id="outer" fill="rgb(179,140,81)"/></g><ellipse vector-effect="non-scaling-stroke" cx="99.99999999999997" cy="137.75" rx="29.17045454545456" ry="22.306818181818187" id="Ellips" fill="rgb(255,237,197)"/><ellipse vector-effect="non-scaling-stroke" cx="100" cy="131.91590909090894" rx="9.437500000000043" ry="7.55000000000004" id="Ellips" fill="rgb(107,80,43)"/><g id="eyes"><circle vector-effect="non-scaling-stroke" cx="64.14975649350632" cy="112.86931818181812" r="12.869318181818183" id="Ellips" fill="rgb(255,255,255)"/><circle vector-effect="non-scaling-stroke" cx="65.19061077453465" cy="113.66693792676385" r="6.5562763589503135" id="Ellips" fill="rgb(115,85,44)"/><circle vector-effect="non-scaling-stroke" cx="135.8502435064933" cy="112.86931818181812" r="12.869318181818187" id="Ellips" fill="rgb(255,255,255)"/><circle vector-effect="non-scaling-stroke" cx="133.7227310382914" cy="113.66693792676385" r="6.556276358950306" id="Ellips" fill="rgb(115,85,44)"/></g><g id="mouth"><mask id="_mask_oO8KRJWuodCI6IN3VTAQ99WJxZblk81T"><path d=" M 100.438 139.466 L 100.438 144.758 Q 97.179 148.325 93.182 148.325 C 90.325 148.325 87.202 145.433 84.403 141.184" id="Tracé" fill="white" stroke="none"/></mask><path d=" M 100.438 139.466 L 100.438 144.758 Q 97.179 148.325 93.182 148.325 C 90.325 148.325 87.202 145.433 84.403 141.184" id="Tracé" fill="none"/><path d=" M 100.438 139.466 L 100.438 144.758 Q 97.179 148.325 93.182 148.325 C 90.325 148.325 87.202 145.433 84.403 141.184" id="Tracé" fill="none" mask="url(#_mask_oO8KRJWuodCI6IN3VTAQ99WJxZblk81T)" vector-effect="non-scaling-stroke" stroke-width="2" stroke="rgb(101,76,7)" stroke-linejoin="miter" stroke-linecap="square" stroke-miterlimit="3"/><mask id="_mask_1px3Exsi0wpOk0N097SgWUu5afsrbj2q"><path d=" M 99.562 139.466 L 99.562 144.758 Q 102.821 148.325 106.818 148.325 C 109.675 148.325 112.798 145.433 115.597 141.184" id="Tracé" fill="white" stroke="none"/></mask><path d=" M 99.562 139.466 L 99.562 144.758 Q 102.821 148.325 106.818 148.325 C 109.675 148.325 112.798 145.433 115.597 141.184" id="Tracé" fill="none"/><path d=" M 99.562 139.466 L 99.562 144.758 Q 102.821 148.325 106.818 148.325 C 109.675 148.325 112.798 145.433 115.597 141.184" id="Tracé" fill="none" mask="url(#_mask_1px3Exsi0wpOk0N097SgWUu5afsrbj2q)" vector-effect="non-scaling-stroke" stroke-width="2" stroke="rgb(101,76,7)" stroke-linejoin="miter" stroke-linecap="square" stroke-miterlimit="3"/></g></g></g></svg>