<?xml version="1.0" encoding="UTF-8" standalone="no"?><!-- Generator: Gravit.io --><svg xmlns="http://www.w3.org/2000/svg" xmlns:xlink="http://www.w3.org/1999/xlink" style="isolation:isolate" viewBox="0 0 200 200" width="200pt" height="200pt"><g id="backgrounds"><ellipse vector-effect="non-scaling-stroke" cx="100" cy="175.5" rx="100" ry="24.5" id="present" fill="rgb(244,244,244)"/></g><g id="main"><g id="body"><path d=" M 75.784 47.284 C 83.361 44.856 91.512 43.535 100 43.535 C 108.488 43.535 116.639 44.856 124.216 47.284 Q 147.585 14.928 152.448 16.542 C 160.305 19.15 162.766 37.557 159.734 71.875 C 167.94 82.551 172.75 95.529 172.75 109.517 C 172.75 145.934 140.152 175.5 100 175.5 C 59.848 175.5 27.25 145.934 27.25 109.517 C 27.25 95.529 32.06 82.551 40.266 71.875 C 37.234 37.557 39.695 19.15 47.552 16.542 Q 52.415 14.928 75.784 47.284 Z " fill-rule="evenodd" id="outer" fill="rgb(226,215,211)"/><path d=" M 149.271 26.672 Q 145.593 25.451 127.542 50.379 C 136.638 55.526 145.294 59.362 154.161 67.221 C 156.905 39.842 155.25 28.657 149.271 26.672 Z  M 50.271 26.672 Q 53.948 25.451 72 50.379 C 62.904 55.526 54.248 59.362 45.381 67.221 C 42.637 39.842 44.291 28.657 50.271 26.672 Z " fill-rule="evenodd" id="inner" fill="rgb(255,243,196)"/></g><g id="eyes"><circle vector-effect="non-scaling-stroke" cx="67.0087209302325" cy="121.36046511628288" r="11.843023255813947" id="Ellips" fill="rgb(255,255,255)"/><circle vector-effect="non-scaling-stroke" cx="67.96656976744188" cy="122.09447674418993" r="6.033430232558121" id="Ellips" fill="rgb(115,85,44)"/><circle vector-effect="non-scaling-stroke" cx="132.9912790697674" cy="121.36046511628288" r="11.843023255813954" id="Ellips" fill="rgb(255,255,255)"/><circle vector-effect="non-scaling-stroke" cx="131.03343023255815" cy="122.09447674418993" r="6.033430232558118" id="Ellips" fill="rgb(115,85,44)"/></g><g id="nose"><ellipse vector-effect="non-scaling-stroke" cx="100" cy="137.01308139535325" rx="4.776889534882699" ry="3.1845930232551325" id="outer" fill="rgb(115,85,44)"/></g><g id="mouth"><mask id="_mask_v9byXn1DufwmWCBntZWJAwZEV3uVul8y"><path d=" M 100.523 140.198 L 100.523 146.513 Q 96.634 150.768 91.865 150.768 C 88.456 150.768 84.729 147.317 81.39 142.248" id="Tracé" fill="white" stroke="none"/></mask><path d=" M 100.523 140.198 L 100.523 146.513 Q 96.634 150.768 91.865 150.768 C 88.456 150.768 84.729 147.317 81.39 142.248" id="Tracé" fill="none"/><path d=" M 100.523 140.198 L 100.523 146.513 Q 96.634 150.768 91.865 150.768 C 88.456 150.768 84.729 147.317 81.39 142.248" id="Tracé" fill="none" mask="url(#_mask_v9byXn1DufwmWCBntZWJAwZEV3uVul8y)" vector-effect="non-scaling-stroke" stroke-width="2" stroke="rgb(101,76,7)" stroke-linejoin="miter" stroke-linecap="square" stroke-miterlimit="3"/><mask id="_mask_QLLQTaRAQ1dRbh3PX6qSSQUXZ8ZEQ6Xw"><path d=" M 99.477 140.198 L 99.477 146.513 Q 103.366 150.768 108.135 150.768 C 111.544 150.768 115.271 147.317 118.61 142.248" id="Tracé" fill="white" stroke="none"/></mask><path d=" M 99.477 140.198 L 99.477 146.513 Q 103.366 150.768 108.135 150.768 C 111.544 150.768 115.271 147.317 118.61 142.248" id="Tracé" fill="none"/><path d=" M 99.477 140.198 L 99.477 146.513 Q 103.366 150.768 108.135 150.768 C 111.544 150.768 115.271 147.317 118.61 142.248" id="Tracé" fill="none" mask="url(#_mask_QLLQTaRAQ1dRbh3PX6qSSQUXZ8ZEQ6Xw)" vector-effect="non-scaling-stroke" stroke-width="2" stroke="rgb(101,76,7)" stroke-linejoin="miter" stroke-linecap="square" stroke-miterlimit="3"/></g><g id="hairs"><path d=" M 129.274 140.621 C 148.333 134.065 166.574 132.663 183.875 136.312" id="Tracé" fill="none" vector-effect="non-scaling-stroke" stroke-width="0.5" stroke="rgb(139,139,139)" stroke-linejoin="miter" stroke-linecap="square" stroke-miterlimit="3"/><path d=" M 129.455 148.697 C 147.156 144.916 163.569 145.642 178.598 150.768" id="Tracé" fill="none" vector-effect="non-scaling-stroke" stroke-width="0.5" stroke="rgb(139,139,139)" stroke-linejoin="miter" stroke-linecap="square" stroke-miterlimit="3"/><path d=" M 70.726 140.621 C 51.667 134.065 33.426 132.663 16.125 136.312" id="Tracé" fill="none" vector-effect="non-scaling-stroke" stroke-width="0.5" stroke="rgb(139,139,139)" stroke-linejoin="miter" stroke-linecap="square" stroke-miterlimit="3"/><path d=" M 70.545 148.697 C 52.844 144.916 36.431 145.642 21.402 150.768" id="Tracé" fill="none" vector-effect="non-scaling-stroke" stroke-width="0.5" stroke="rgb(139,139,139)" stroke-linejoin="miter" stroke-linecap="square" stroke-miterlimit="3"/></g></g></svg>