<?xml version="1.0" encoding="UTF-8" standalone="no"?><!-- Generator: Gravit.io --><svg xmlns="http://www.w3.org/2000/svg" xmlns:xlink="http://www.w3.org/1999/xlink" style="isolation:isolate" viewBox="0 0 200 200" width="200pt" height="200pt"><g id="backgrounds"><ellipse vector-effect="non-scaling-stroke" cx="100" cy="175.5" rx="100" ry="24.5" id="present" fill="rgb(244,244,244)"/></g><g id="main"><g id="facial"><path d=" M 98.789 62.224 Q 63.984 30.394 73.185 23.818 Q 82.387 17.242 89.188 27.019 Q 91.788 11.541 98.789 11.016 Q 105.79 10.491 111.591 27.019 Q 120.593 17.567 127.594 23.818 Q 134.595 30.069 98.789 62.224 Z " id="outer" fill="rgb(237,123,63)"/></g><g id="body"><path d=" M 100 167.808 L 100 167.808 Q 170.411 168.758 170.411 116.6 C 170.411 60.291 136.974 34.129 100 36.587 L 100 36.587 C 63.026 34.129 29.589 60.291 29.589 116.6 Q 29.589 168.758 100 167.808 Z " fill-rule="evenodd" id="outer" fill="rgb(247,245,230)"/></g><g id="mouth"><path d=" M 92.177 116.617 L 105.401 116.617 Q 105.963 132.314 98.578 132.314 Q 91.336 132.314 92.177 116.617 Z " id="outer" fill="rgb(237,123,63)"/></g><g id="eyes"><ellipse vector-effect="non-scaling-stroke" cx="127.62039919972582" cy="91.13832738942757" rx="9.119706694622813" ry="10.98861776044592" id="outerR" fill="rgb(255,255,255)"/><circle vector-effect="non-scaling-stroke" cx="128.1818360427456" cy="93.14232050515142" r="4.582511079965798" id="innerR" fill="rgb(101,75,37)"/><ellipse vector-effect="non-scaling-stroke" cx="71.25672711423456" cy="91.13832738942757" rx="9.11970669462281" ry="10.98861776044592" id="outerL" fill="rgb(255,255,255)"/><circle vector-effect="non-scaling-stroke" cx="71.81816395725441" cy="93.14232050515142" r="4.582511079965798" id="innerL" fill="rgb(101,75,37)"/></g><g id="nose"><path d=" M 98.789 116.617 L 98.789 116.617 C 87.016 116.938 81.649 114.772 82.787 110.216 C 84.256 104.331 88.942 100.978 98.789 100.614 L 98.789 100.614 C 108.636 100.978 113.323 104.331 114.792 110.216 C 115.929 114.772 110.563 116.938 98.789 116.617 Z " fill-rule="evenodd" id="outer" fill="rgb(245,213,44)"/></g></g></svg>