<?xml version="1.0" encoding="UTF-8" standalone="no"?><!-- Generator: Gravit.io --><svg xmlns="http://www.w3.org/2000/svg" xmlns:xlink="http://www.w3.org/1999/xlink" style="isolation:isolate" viewBox="0 0 200 200" width="200pt" height="200pt"><g id="backgrounds"><ellipse vector-effect="non-scaling-stroke" cx="100" cy="175.5" rx="100" ry="24.5" id="present" fill="rgb(244,244,244)"/></g><g id="cow"><path d=" M 65.485 13.012 C 60.888 12.322 54.943 42.066 67.32 64.702 Q 79.697 87.338 93.028 48.697 C 66.197 38.315 70.625 13.783 65.485 13.012 Z " id="Tracé" fill="rgb(241,197,116)"/><path d=" M 135.526 13.012 C 140.123 12.322 146.068 42.066 133.691 64.702 Q 121.315 87.338 107.983 48.697 C 134.814 38.315 130.386 13.783 135.526 13.012 Z " id="Tracé" fill="rgb(241,197,116)"/><g id="body"><path d=" M 142.17 56.86 C 132.33 44.95 119.052 37.355 104.355 36.543 C 101.536 44.987 100 54.283 100 64.032 C 100 103.009 124.548 134.737 155.001 135.443 C 157.949 126.963 159.556 117.616 159.556 107.811 C 159.556 95.805 157.147 84.488 152.856 74.583 C 167.666 76.769 178.069 71.368 184.079 58.433 C 170.069 48.507 156.121 47.977 142.17 56.86 Z " fill-rule="evenodd" id="inner" fill="rgb(98,98,98)"/><path d=" M 60.136 58.389 C 70.631 44.88 85.403 36.488 101.752 36.488 C 102.623 36.488 103.489 36.512 104.355 36.543 C 101.536 44.987 100 54.283 100 64.032 C 100 103.009 124.548 134.737 155.001 135.443 C 146.279 161.113 125.708 179.133 101.752 179.133 C 69.848 179.133 43.947 147.174 43.947 107.811 C 43.947 95.555 46.458 84.017 50.917 73.967 C 34.115 77.624 22.437 72.455 15.921 58.433 C 30.703 47.96 45.416 47.948 60.136 58.389 Z " fill-rule="evenodd" id="outer" fill="rgb(254,245,228)"/></g><g id="nose"><ellipse vector-effect="non-scaling-stroke" cx="100" cy="153.53000065152722" rx="31.529719478895778" ry="21.945351421812717" id="outer" fill="rgb(250,211,192)"/><path d=" M 82.528 161.555 C 82.027 157.551 83.956 153.983 86.832 153.591 C 89.708 153.2 92.449 156.132 92.949 160.136 C 93.449 164.139 91.521 167.707 88.645 168.099 C 85.769 168.49 83.028 165.558 82.528 161.555 Z " id="innerL" fill="rgb(98,98,98)"/><path d=" M 117.507 161.555 C 118.007 157.551 116.079 153.983 113.203 153.591 C 110.327 153.2 107.586 156.132 107.086 160.136 C 106.585 164.139 108.514 167.707 111.39 168.099 C 114.266 168.49 117.007 165.558 117.507 161.555 Z " id="innerR" fill="rgb(98,98,98)"/></g><g id="eyes"><ellipse vector-effect="non-scaling-stroke" cx="66.7186294389435" cy="105.9817392375997" rx="12.261557575126133" ry="12.801454996057416" id="outerR" fill="rgb(255,255,255)"/><ellipse vector-effect="non-scaling-stroke" cx="68.47028052110429" cy="107.81051852275075" rx="7.0066043286435225" ry="7.315117140604258" id="innerL" fill="rgb(98,98,98)"/><ellipse vector-effect="non-scaling-stroke" cx="133.28137056105692" cy="107.8105185227508" rx="12.26155757512614" ry="12.801454996057416" id="outerR" fill="rgb(255,255,255)"/><ellipse vector-effect="non-scaling-stroke" cx="131.52971947889577" cy="109.63929780790185" rx="7.006604328643526" ry="7.315117140604258" id="innerR" fill="rgb(98,98,98)"/></g><g id="attributes"/></g></svg>