<?xml version="1.0" encoding="UTF-8" standalone="no"?><!-- Generator: Gravit.io --><svg xmlns="http://www.w3.org/2000/svg" xmlns:xlink="http://www.w3.org/1999/xlink" style="isolation:isolate" viewBox="0 0 200 200" width="200pt" height="200pt"><defs><clipPath id="_clipPath_9JSeORLDL5igwe1i3UyBB0thLMZ0mseX"><rect width="200" height="200"/></clipPath></defs><g clip-path="url(#_clipPath_9JSeORLDL5igwe1i3UyBB0thLMZ0mseX)"><g id="backgrounds"><ellipse vector-effect="non-scaling-stroke" cx="100" cy="175.5" rx="100" ry="24.5" id="present" fill="rgb(244,244,244)"/></g><g id="horse"><g id="body"><path d=" M 122.274 43.016 C 115.85 41.25 108.429 40.387 100 40.435 C 91.693 40.387 84.365 41.226 78 42.936 C 72.254 29.122 64.192 18.959 53.756 15.771 Q 43.531 33.912 57.584 54.876 C 49.342 64.117 46.007 77.797 47.59 95.927 C 51.378 139.308 84.585 173 100 173 C 115.415 173 148.622 139.308 152.41 95.927 C 153.981 77.925 150.704 64.31 142.589 55.071 Q 156.821 33.996 146.548 15.771 C 136.093 18.965 128.021 29.159 122.274 43.016 Z " fill-rule="evenodd" id="outer" fill="rgb(150,102,64)"/><path d=" M 100 136.006 L 100 136.006 C 82.172 135.945 73.996 141.099 75.515 151.492 C 77.285 163.598 92.799 173 100 173 C 107.201 173 122.715 163.598 124.485 151.492 C 126.004 141.099 117.828 135.945 100 136.006 Z " fill-rule="evenodd" id="inner" fill="rgb(196,159,106)"/></g><g id="ears"><path d=" M 143.161 25.02 Q 131.215 29.066 127.746 46.6 C 130.303 47.998 133.417 50.084 136.995 52.766 C 143.161 45.444 148.1 29.758 143.161 25.02 Z " id="innerR" fill="rgb(80,50,24)"/><path d=" M 56.839 25.02 Q 68.785 29.066 72.254 46.6 C 69.697 47.998 66.583 50.084 63.005 52.766 C 56.839 45.444 51.9 29.758 56.839 25.02 Z " id="innerL" fill="rgb(80,50,24)"/></g><g id="nose"><path d=" M 90.798 159.663 C 90.355 157.149 91.355 154.869 93.031 154.573 C 94.706 154.277 96.427 156.078 96.87 158.591 C 97.314 161.105 96.313 163.385 94.638 163.681 C 92.962 163.977 91.242 162.176 90.798 159.663 Z " id="Ellips" fill="rgb(80,50,24)"/><path d=" M 109.144 159.663 C 109.587 157.149 108.587 154.869 106.911 154.573 C 105.236 154.277 103.515 156.078 103.072 158.591 C 102.628 161.105 103.628 163.385 105.304 163.681 C 106.98 163.977 108.7 162.176 109.144 159.663 Z " id="Ellips" fill="rgb(80,50,24)"/></g><g id="eyes"><circle vector-effect="non-scaling-stroke" cx="73.7952022173372" cy="108.25873488989183" r="12.3316695447825" id="Ellips" fill="rgb(255,255,255)"/><circle vector-effect="non-scaling-stroke" cx="76.8781196035328" cy="111.34165227608746" r="6.16583477239125" id="Ellips" fill="rgb(80,50,24)"/><circle vector-effect="non-scaling-stroke" cx="126.20479778266281" cy="108.25873488989183" r="12.331669544782493" id="Ellips" fill="rgb(255,255,255)"/><circle vector-effect="non-scaling-stroke" cx="123.12188039646716" cy="111.34165227608746" r="6.165834772391243" id="Ellips" fill="rgb(80,50,24)"/></g><g id="hair"><path d=" M 100 86.678 C 101.127 81.651 101.158 76.544 100 71.264 C 96.817 72.333 94.792 74.419 93.834 77.43 C 82.17 67.368 77.063 58.15 78.42 49.683 C 80.082 39.307 83.044 28.296 100 28.103 C 116.956 27.91 122.672 40.423 124.663 46.6 C 126.483 52.244 125.486 61.524 121.58 74.347 C 119.511 73.23 117.487 71.206 115.415 68.181 C 111.682 79.641 106.575 85.838 100 86.678 Z " id="outer" fill="rgb(80,50,24)"/></g></g></g></svg>