<?xml version="1.0" encoding="UTF-8" standalone="no"?><!-- Generator: Gravit.io --><svg xmlns="http://www.w3.org/2000/svg" xmlns:xlink="http://www.w3.org/1999/xlink" style="isolation:isolate" viewBox="0 0 200 200" width="200pt" height="200pt"><g id="backgrounds"><ellipse vector-effect="non-scaling-stroke" cx="100" cy="175.5" rx="100" ry="24.5" id="present" fill="rgb(244,244,244)"/></g><g id="main"><g id="body"><path d=" M 158.391 106.691 C 158.464 107.785 158.5 108.889 158.5 110 C 158.5 139.803 132.287 164 100 164 C 67.713 164 41.5 139.803 41.5 110 C 41.5 108.889 41.536 107.785 41.609 106.691 C 26.298 104.556 14.5 91.395 14.5 75.5 C 14.5 58.115 28.615 44 46 44 C 58.363 44 69.072 51.138 74.225 61.516 C 82.004 57.985 90.753 56 100 56 C 109.247 56 117.996 57.985 125.775 61.516 C 130.928 51.138 141.637 44 154 44 C 171.385 44 185.5 58.115 185.5 75.5 C 185.5 91.395 173.702 104.556 158.391 106.691 Z " fill-rule="evenodd" id="outer" fill="rgb(174,183,192)"/><path d=" M 131.5 77 C 131.5 65.41 140.91 56 152.5 56 C 164.09 56 173.5 65.41 173.5 77 C 173.5 88.59 164.09 98 152.5 98 C 140.91 98 131.5 88.59 131.5 77 Z  M 25 77 C 25 65.41 34.41 56 46 56 C 57.59 56 67 65.41 67 77 C 67 88.59 57.59 98 46 98 C 34.41 98 25 88.59 25 77 Z " fill-rule="evenodd" id="inner" fill="rgb(238,247,252)"/></g><g id="nose"><path d=" M 94.598 140.072 C 90.653 138.156 89.5 133.487 89.5 129.667 C 89.5 123.872 94.205 114.5 100 114.5 C 105.795 114.5 110.5 123.872 110.5 129.667 C 110.5 133.554 109.293 138.307 105.241 140.167 C 103.526 140.954 101.908 140.928 100 140.928 C 98.025 140.928 96.352 140.923 94.598 140.072 Z " id="outer" fill="rgb(97,97,96)"/></g><g id="eyes"><circle vector-effect="non-scaling-stroke" cx="130" cy="115.99999999999994" r="10.500000000000007" id="Ellips" fill="rgb(255,255,255)"/><circle vector-effect="non-scaling-stroke" cx="129.99999999999983" cy="119" r="4.5" id="Ellips" fill="rgb(97,97,96)"/><circle vector-effect="non-scaling-stroke" cx="70.00000000000004" cy="115.99999999999994" r="10.50000000000001" id="Ellips" fill="rgb(255,255,255)"/><circle vector-effect="non-scaling-stroke" cx="69.99999999999982" cy="119" r="4.5" id="Ellips" fill="rgb(97,97,96)"/></g></g></svg>