<?xml version="1.0" encoding="UTF-8" standalone="no"?><!-- Generator: Gravit.io --><svg xmlns="http://www.w3.org/2000/svg" xmlns:xlink="http://www.w3.org/1999/xlink" style="isolation:isolate" viewBox="0 0 200 200" width="200pt" height="200pt"><g id="backgrounds"><ellipse vector-effect="non-scaling-stroke" cx="100" cy="175.5" rx="100" ry="24.5" id="present" fill="rgb(244,244,244)"/></g><g id="monkey"><g id="ears"><ellipse vector-effect="non-scaling-stroke" cx="167.0140389913117" cy="111.75513880059344" rx="24.09493536766263" ry="22.58900190718373" id="innerR" fill="rgb(253,228,197)"/><ellipse vector-effect="non-scaling-stroke" cx="32.98596100868828" cy="111.75513880059344" rx="24.094935367662643" ry="22.58900190718373" id="innerL" fill="rgb(253,228,197)"/></g><g id="body"><ellipse vector-effect="non-scaling-stroke" cx="99.99999999999997" cy="105.7314049586777" rx="67.01403899131171" ry="58.73140495867765" id="outer" fill="rgb(179,135,30)"/><path d=" M 100 86.154 Q 125.789 62.059 151.202 86.154 C 176.614 110.249 148.66 141.309 142.166 146.392 C 129.579 156.243 114.864 159.131 100 158.439 L 100 158.439 C 85.136 159.131 70.421 156.243 57.834 146.392 C 51.34 141.309 23.386 110.249 48.798 86.154 Q 74.211 62.059 100 86.154 Z " fill-rule="evenodd" id="inner" fill="rgb(253,228,197)"/></g><g id="eyes"><circle vector-effect="non-scaling-stroke" cx="70.79817530682416" cy="114.79136961794794" r="9.059964659270232" id="outerL" fill="rgb(255,255,255)"/><circle vector-effect="non-scaling-stroke" cx="72.26269559714" cy="116.25588990826373" r="5.057946488047577" id="innerL" fill="rgb(101,76,7)"/><circle vector-effect="non-scaling-stroke" cx="129.20182469317575" cy="114.79136961794794" r="9.059964659270236" id="outerR" fill="rgb(255,255,255)"/><circle vector-effect="non-scaling-stroke" cx="127.7373044028599" cy="116.25588990826371" r="5.057946488047577" id="innerR" fill="rgb(101,76,7)"/></g><g id="nose"><ellipse vector-effect="non-scaling-stroke" cx="100.75296673023944" cy="126.86320119817617" rx="4.517800381436743" ry="3.0118669209578286" id="outer" fill="rgb(101,76,7)"/></g><g id="mouth"><mask id="_mask_ECDqyHlDRrhrhsh2PUZ466oHKvl2wCWH"><path d=" M 101.123 129.875 L 101.123 134.344 Q 98.371 137.356 94.996 137.356 C 92.583 137.356 89.946 134.914 87.582 131.326" id="Tracé" fill="white" stroke="none"/></mask><path d=" M 101.123 129.875 L 101.123 134.344 Q 98.371 137.356 94.996 137.356 C 92.583 137.356 89.946 134.914 87.582 131.326" id="Tracé" fill="none"/><path d=" M 101.123 129.875 L 101.123 134.344 Q 98.371 137.356 94.996 137.356 C 92.583 137.356 89.946 134.914 87.582 131.326" id="Tracé" fill="none" mask="url(#_mask_ECDqyHlDRrhrhsh2PUZ466oHKvl2wCWH)" vector-effect="non-scaling-stroke" stroke-width="1" stroke="rgb(101,76,7)" stroke-linejoin="miter" stroke-linecap="square" stroke-miterlimit="3"/><mask id="_mask_4B1T0qxjiyyPnNqVQSPuqxZQpfvjC8eG"><path d=" M 100.383 129.875 L 100.383 134.344 Q 103.135 137.356 106.51 137.356 C 108.923 137.356 111.56 134.914 113.924 131.326" id="Tracé" fill="white" stroke="none"/></mask><path d=" M 100.383 129.875 L 100.383 134.344 Q 103.135 137.356 106.51 137.356 C 108.923 137.356 111.56 134.914 113.924 131.326" id="Tracé" fill="none"/><path d=" M 100.383 129.875 L 100.383 134.344 Q 103.135 137.356 106.51 137.356 C 108.923 137.356 111.56 134.914 113.924 131.326" id="Tracé" fill="none" mask="url(#_mask_4B1T0qxjiyyPnNqVQSPuqxZQpfvjC8eG)" vector-effect="non-scaling-stroke" stroke-width="1" stroke="rgb(101,76,7)" stroke-linejoin="miter" stroke-linecap="square" stroke-miterlimit="3"/></g></g></svg>