<?xml version="1.0" encoding="UTF-8" standalone="no"?><!-- Generator: Gravit.io --><svg xmlns="http://www.w3.org/2000/svg" xmlns:xlink="http://www.w3.org/1999/xlink" style="isolation:isolate" viewBox="0 0 200 200" width="200pt" height="200pt"><g id="backgrounds"><ellipse vector-effect="non-scaling-stroke" cx="100" cy="175.5" rx="100" ry="24.5" id="present" fill="rgb(244,244,244)"/></g><g id="main"><g id="body"><path d=" M 177.39 91.441 C 178.445 95.452 178.966 99.616 178.966 103.878 C 178.966 139.064 143.45 167.63 99.706 167.63 C 55.961 167.63 20.446 139.064 20.446 103.878 C 20.446 99.616 20.967 95.452 22.021 91.441 C -4.017 98.48 11.99 76.97 23.42 60.036 Q 34.87 43.074 47.154 56.168 C 61.146 46.188 79.552 40.125 99.706 40.125 C 119.859 40.125 138.265 46.188 152.257 56.168 Q 164.541 43.074 175.991 60.036 C 187.421 76.97 203.428 98.48 177.39 91.441 Z " fill-rule="evenodd" id="outer" fill="rgb(248,204,195)"/></g><g id="nose"><ellipse vector-effect="non-scaling-stroke" cx="99.70559451036915" cy="128.82455239543106" rx="31.014770555327473" ry="24.946663272763402" id="outer" fill="rgb(240,163,155)"/><ellipse vector-effect="non-scaling-stroke" cx="85.92125204133477" cy="128.8245523954311" rx="5.169128425887919" ry="11.087405899005965" id="innerL" fill="rgb(193,133,125)"/><ellipse vector-effect="non-scaling-stroke" cx="113.4899369794038" cy="128.8245523954311" rx="5.169128425887919" ry="11.087405899005965" id="innerR" fill="rgb(193,133,125)"/></g><g id="eyes"><circle vector-effect="non-scaling-stroke" cx="66.10625974209776" cy="96.12419648383579" r="14.645863873349057" id="outerL" fill="rgb(255,255,255)"/><circle vector-effect="non-scaling-stroke" cx="68.69082395504164" cy="97.41647859030768" r="6.461410532359892" id="innerL" fill="rgb(143,115,112)"/><circle vector-effect="non-scaling-stroke" cx="133.30492927864069" cy="96.12419648383592" r="14.645863873349064" id="outerR" fill="rgb(255,255,255)"/><circle vector-effect="non-scaling-stroke" cx="130.72036506569668" cy="97.41647859030768" r="6.461410532359885" id="innerR" fill="rgb(143,115,112)"/></g></g></svg>