<?xml version="1.0" encoding="UTF-8" standalone="no"?><!-- Generator: Gravit.io --><svg xmlns="http://www.w3.org/2000/svg" xmlns:xlink="http://www.w3.org/1999/xlink" style="isolation:isolate" viewBox="0 0 200 200" width="200pt" height="200pt"><g id="backgrounds"><ellipse vector-effect="non-scaling-stroke" cx="100" cy="175.5" rx="100" ry="24.5" id="present" fill="rgb(244,244,244)"/></g><g id="pig"><g id="body"><path d=" M 177.39 88.274 C 178.445 92.284 178.966 96.449 178.966 100.71 C 178.966 135.896 143.45 164.463 99.706 164.463 C 55.961 164.463 20.446 135.896 20.446 100.71 C 20.446 96.449 20.967 92.284 22.021 88.274 C -4.017 95.312 11.99 73.802 23.42 56.868 Q 34.87 39.906 47.154 53.001 C 61.146 43.021 79.552 36.958 99.706 36.958 C 119.859 36.958 138.265 43.021 152.257 53.001 Q 164.541 39.906 175.991 56.868 C 187.421 73.802 203.428 95.312 177.39 88.274 Z " fill-rule="evenodd" id="outer" fill="rgb(248,204,195)"/></g><g id="hair"><path d=" M 95.436 45.431 C 103.329 45.431 115.993 37.538 113.057 33.684 Q 110.12 29.829 104.246 33.684 Q 108.651 19 98.373 19 Q 88.094 19 95.436 33.684 Q 80.752 23.038 80.752 33.684 C 80.752 44.33 87.543 45.431 95.436 45.431 Z " id="outer" fill="rgb(255,241,118)"/></g><g id="nose"><ellipse vector-effect="non-scaling-stroke" cx="99.70559451036915" cy="125.65688976957532" rx="31.014770555327473" ry="24.946663272763402" id="outer" fill="rgb(240,163,155)"/><ellipse vector-effect="non-scaling-stroke" cx="85.92125204133477" cy="125.65688976957534" rx="5.169128425887919" ry="11.087405899005965" id="innerL" fill="rgb(193,133,125)"/><ellipse vector-effect="non-scaling-stroke" cx="113.4899369794038" cy="125.65688976957534" rx="5.169128425887919" ry="11.087405899005965" id="innerR" fill="rgb(193,133,125)"/></g><g id="eyes"><circle vector-effect="non-scaling-stroke" cx="66.10625974209778" cy="92.95653385798003" r="14.645863873349057" id="outerL" fill="rgb(255,255,255)"/><circle vector-effect="non-scaling-stroke" cx="68.69082395504165" cy="94.24881596445194" r="6.461410532359892" id="innerL" fill="rgb(143,115,112)"/><circle vector-effect="non-scaling-stroke" cx="133.3049292786407" cy="92.95653385798016" r="14.645863873349064" id="outerR" fill="rgb(255,255,255)"/><circle vector-effect="non-scaling-stroke" cx="130.72036506569668" cy="94.24881596445194" r="6.461410532359885" id="innerR" fill="rgb(143,115,112)"/></g></g></svg>