<?xml version="1.0" encoding="UTF-8" standalone="no"?><!-- Generator: Gravit.io --><svg xmlns="http://www.w3.org/2000/svg" xmlns:xlink="http://www.w3.org/1999/xlink" style="isolation:isolate" viewBox="0 0 200 200" width="200pt" height="200pt"><g id="backgrounds"><ellipse vector-effect="non-scaling-stroke" cx="100" cy="175.5" rx="100" ry="24.5" id="present" fill="rgb(244,244,244)"/></g><g id="pinguin"><g id="body"><path d=" M 17.132 97 C 17.132 60.022 54.264 30 100 30 C 145.736 30 182.868 60.022 182.868 97 C 182.868 133.978 145.736 164 100 164 C 54.264 164 17.132 133.978 17.132 97 Z " id="outer" fill="rgb(91,103,125)"/><path d=" M 93.155 121.142 Q 104.891 72.159 79.049 64.721 C 53.208 57.282 33.152 90.452 36.733 110.563 C 40.315 130.674 51.004 151.777 100.207 152.879 C 149.41 153.981 163.681 129.839 163.681 110.563 C 163.681 92.151 151.751 51.128 117.839 64.721 C 104.93 69.895 99.123 88.773 107.26 121.142 L 93.155 121.142 Z " id="inner" fill="rgb(235,235,235)"/></g><g id="eyes"><circle vector-effect="non-scaling-stroke" cx="68.26315789473692" cy="105.81578947368422" r="12.342105263157901" id="outerL" fill="rgb(255,255,255)"/><circle vector-effect="non-scaling-stroke" cx="70.02631578947363" cy="107.57894736842115" r="7.052631578947352" id="innerL" fill="rgb(91,103,125)"/><circle vector-effect="non-scaling-stroke" cx="135.26315789473693" cy="105.81578947368422" r="12.34210526315789" id="outerR" fill="rgb(255,255,255)"/><circle vector-effect="non-scaling-stroke" cx="133.50000000000003" cy="107.57894736842115" r="7.052631578947349" id="innerR" fill="rgb(91,103,125)"/></g><g id="nose"><ellipse vector-effect="non-scaling-stroke" cx="100.00000000000003" cy="121.14183098969377" rx="19.39473684210526" ry="10.578947368421048" id="outer" fill="rgb(250,197,105)"/></g><g id="attributes"/></g></svg>