<?xml version="1.0" encoding="UTF-8" standalone="no"?><!-- Generator: Gravit.io --><svg xmlns="http://www.w3.org/2000/svg" xmlns:xlink="http://www.w3.org/1999/xlink" style="isolation:isolate" viewBox="0 0 200 200" width="200pt" height="200pt"><g id="attributes"><g id="sunglasses"><g id="Groep"><path d=" M 89.437 99.957 C 90.593 98.664 93.012 97.283 96.567 96.721 L 96.573 96.76 C 94.593 93.326 86.351 87.168 74.674 87.168 C 60.856 87.168 52.595 89.66 48.689 91.413 C 47.748 91.835 47.144 92.77 47.14 93.801 C 47.135 95.029 47.127 96.487 47.129 97.726 C 47.131 98.648 47.716 99.435 48.565 99.796 C 49.402 100.152 49.825 100.97 49.993 102.566 C 50.117 103.758 51.123 104.664 52.32 104.664 L 54.743 104.664 L 89.437 99.957 Z " id="Tracé" fill="rgb(162,123,90)"/><path d=" M 110.563 99.957 C 109.407 98.664 106.988 97.283 103.433 96.721 L 103.427 96.76 C 105.407 93.326 113.649 87.168 125.326 87.168 C 139.144 87.168 147.405 89.66 151.311 91.413 C 152.252 91.835 152.856 92.77 152.86 93.801 C 152.865 95.029 152.873 96.487 152.871 97.726 C 152.869 98.648 152.284 99.435 151.435 99.796 C 150.598 100.152 150.175 100.97 150.007 102.566 C 149.883 103.758 148.877 104.664 147.68 104.664 L 145.257 104.664 L 110.563 99.957 Z " id="Tracé" fill="rgb(162,123,90)"/></g><path d=" M 109.306 101.08 C 107.371 98.915 103.083 98.147 100 98.147 C 96.916 98.147 92.629 98.915 90.694 101.08 L 88.18 98.833 C 89.934 96.872 93.96 94.776 100 94.776 C 106.04 94.776 110.066 96.872 111.819 98.833 L 109.306 101.08 Z " id="Tracé" fill="rgb(195,196,199)"/><path d=" M 74.287 92.184 C 65.959 92.184 54.498 93.794 54.498 108.44 C 54.498 124.697 67.015 123.996 70.114 123.996 C 73.214 123.996 92.883 122.241 92.883 105.166 C 92.884 93.12 80.125 92.184 74.287 92.184 Z " id="Tracé" fill="rgb(57,64,73)"/><g opacity="0.2"><path d=" M 74.287 92.184 C 65.959 92.184 54.498 93.794 54.498 108.44 C 54.498 108.685 54.501 108.926 54.507 109.164 C 54.862 95.156 66.091 93.596 74.287 93.596 C 80.018 93.596 92.419 94.499 92.869 105.932 C 92.878 105.68 92.883 105.425 92.883 105.166 C 92.884 93.12 80.125 92.184 74.287 92.184 Z " id="Tracé" fill="rgb(0,0,0)"/></g><path d=" M 125.713 92.184 C 134.041 92.184 145.502 93.794 145.502 108.44 C 145.502 124.697 132.985 123.996 129.885 123.996 C 126.786 123.996 107.117 122.241 107.117 105.166 C 107.116 93.12 119.875 92.184 125.713 92.184 Z " id="Tracé" fill="rgb(57,64,73)"/><g opacity="0.2"><path d=" M 125.713 92.184 C 134.041 92.184 145.502 93.794 145.502 108.44 C 145.502 108.685 145.499 108.926 145.493 109.164 C 145.138 95.156 133.909 93.596 125.713 93.596 C 119.981 93.596 107.581 94.499 107.13 105.932 C 107.121 105.68 107.116 105.425 107.116 105.166 C 107.116 93.12 119.875 92.184 125.713 92.184 Z " id="Tracé" fill="rgb(0,0,0)"/></g><g id="Groep"><g opacity="0.15"><path d=" M 74.287 92.184 C 65.959 92.184 54.498 93.794 54.498 108.44 C 54.498 111.87 55.057 114.544 55.965 116.63 L 80.025 92.571 C 77.87 92.25 75.835 92.184 74.287 92.184 Z " id="Tracé" fill="rgb(255,255,255)"/></g><g opacity="0.15"><path d=" M 142.978 98.729 L 119.713 121.994 C 124.243 123.677 128.566 123.996 129.885 123.996 C 132.985 123.996 145.502 124.697 145.502 108.44 C 145.502 104.204 144.542 101.061 142.978 98.729 Z " id="Tracé" fill="rgb(255,255,255)"/></g></g><g id="Groep"><path d=" M 52.806 96.699 L 51.662 96.699 C 50.731 96.699 49.977 95.944 49.977 95.013 C 49.977 94.082 50.731 93.328 51.662 93.328 L 52.806 93.328 C 53.737 93.328 54.491 94.082 54.491 95.013 C 54.491 95.944 53.737 96.699 52.806 96.699 Z " id="Tracé" fill="rgb(195,196,199)"/><path d=" M 148.338 96.699 L 147.194 96.699 C 146.263 96.699 145.509 95.944 145.509 95.013 C 145.509 94.082 146.263 93.328 147.194 93.328 L 148.338 93.328 C 149.269 93.328 150.023 94.082 150.023 95.013 C 150.023 95.944 149.269 96.699 148.338 96.699 Z " id="Tracé" fill="rgb(195,196,199)"/></g></g></g></svg>