<?xml version="1.0" encoding="UTF-8" standalone="no"?><!-- Generator: Gravit.io --><svg xmlns="http://www.w3.org/2000/svg" xmlns:xlink="http://www.w3.org/1999/xlink" style="isolation:isolate" viewBox="0 0 200 200" width="200pt" height="200pt"><g id="attributes"><g id="sunglasses"><path d=" M 90.043 122.783 L 89.344 122.495 C 88.034 121.957 87.409 120.458 87.947 119.148 L 89.936 114.31 C 90.474 113 91.973 112.374 93.283 112.913 L 93.982 113.2 C 95.292 113.739 95.918 115.238 95.379 116.548 L 93.391 121.385 C 92.852 122.696 91.353 123.321 90.043 122.783 Z " id="Tracé" fill="rgb(194,220,224)"/><g opacity="0.2"><path d=" M 93.284 112.913 C 91.973 112.374 90.475 113 89.936 114.31 L 87.947 119.148 C 87.409 120.458 88.034 121.957 89.345 122.495 L 90.044 122.782 C 90.079 122.797 90.114 122.807 90.15 122.82 C 91.773 120.177 92.961 116.92 93.459 112.985 L 93.284 112.913 Z " id="Tracé" fill="rgb(0,0,0)"/></g><path d=" M 109.957 122.783 L 110.656 122.495 C 111.966 121.957 112.591 120.458 112.053 119.148 L 110.064 114.31 C 109.526 113 108.027 112.374 106.717 112.913 L 106.018 113.2 C 104.708 113.739 104.082 115.237 104.621 116.548 L 106.609 121.385 C 107.148 122.696 108.647 123.321 109.957 122.783 Z " id="Tracé" fill="rgb(194,220,224)"/><g opacity="0.2"><path d=" M 106.717 112.913 C 108.027 112.374 109.526 113 110.064 114.31 L 112.053 119.148 C 112.591 120.458 111.966 121.957 110.656 122.495 L 109.957 122.782 C 109.922 122.797 109.886 122.807 109.851 122.82 C 108.227 120.177 107.04 116.92 106.542 112.985 L 106.717 112.913 Z " id="Tracé" fill="rgb(0,0,0)"/></g><g id="Groep"><path d=" M 109.16 107.048 C 108.889 107.048 108.615 106.977 108.365 106.828 C 104.508 104.513 102.163 103.611 100 103.611 C 97.837 103.611 95.492 104.513 91.635 106.828 C 90.902 107.267 89.951 107.03 89.511 106.296 C 89.071 105.563 89.309 104.613 90.042 104.172 C 93.701 101.977 96.794 100.515 100 100.515 C 103.206 100.515 106.3 101.977 109.958 104.172 C 110.691 104.613 110.929 105.563 110.489 106.296 C 110.199 106.78 109.686 107.048 109.16 107.048 Z " id="Tracé" fill="rgb(233,210,134)"/><path d=" M 55.95 109.092 L 51.65 109.092 C 50.795 109.092 50.102 108.399 50.102 107.544 C 50.102 106.689 50.795 105.996 51.65 105.996 L 55.95 105.996 C 56.805 105.996 57.498 106.689 57.498 107.544 C 57.498 108.399 56.805 109.092 55.95 109.092 Z " id="Tracé" fill="rgb(233,210,134)"/><path d=" M 148.35 109.092 L 144.05 109.092 C 143.195 109.092 142.502 108.399 142.502 107.544 C 142.502 106.689 143.195 105.996 144.05 105.996 L 148.35 105.996 C 149.205 105.996 149.898 106.689 149.898 107.544 C 149.898 108.399 149.205 109.092 148.35 109.092 Z " id="Tracé" fill="rgb(233,210,134)"/></g><g id="Groep"><path d=" M 72.845 97 C 62.998 97 54.962 99.539 54.962 111.571 C 54.962 120.403 55.878 121.799 59.267 125.701 C 62.466 129.385 65.268 131 72.845 131 C 81.345 131 92.604 124.377 92.604 107.597 C 92.605 97 80.682 97 72.845 97 Z " id="Tracé" fill="rgb(95,102,111)"/><path d=" M 127.155 97 C 137.002 97 145.038 99.539 145.038 111.571 C 145.038 120.403 144.122 121.799 140.733 125.701 C 137.534 129.385 134.732 131 127.155 131 C 118.655 131 107.396 124.377 107.396 107.597 C 107.396 97 119.318 97 127.155 97 Z " id="Tracé" fill="rgb(95,102,111)"/></g><g id="Groep"><g opacity="0.15"><path d=" M 72.845 97 C 62.998 97 54.962 99.539 54.962 111.571 C 54.962 114.413 55.057 116.482 55.299 118.115 L 76.384 97.03 C 75.153 97 73.958 97 72.845 97 Z " id="Tracé" fill="rgb(255,255,255)"/></g><g opacity="0.15"><path d=" M 143.994 105.084 L 119.702 129.376 C 122.198 130.484 124.784 131 127.155 131 C 134.732 131 137.534 129.385 140.733 125.701 C 144.122 121.799 145.038 120.402 145.038 111.571 C 145.038 108.997 144.669 106.858 143.994 105.084 Z " id="Tracé" fill="rgb(255,255,255)"/></g></g></g></g></svg>