<?xml version="1.0" encoding="UTF-8" standalone="no"?><!-- Generator: Gravit.io --><svg xmlns="http://www.w3.org/2000/svg" xmlns:xlink="http://www.w3.org/1999/xlink" style="isolation:isolate" viewBox="0 0 200 200" width="200pt" height="200pt"><g id="attributes"><g id="sunglasses"><path d=" M 91.194 126.802 L 90.576 126.548 C 89.417 126.072 88.864 124.746 89.34 123.588 L 91.099 119.309 C 91.576 118.15 92.901 117.597 94.06 118.073 L 94.678 118.327 C 95.837 118.804 96.39 120.129 95.914 121.288 L 94.155 125.566 C 93.678 126.725 92.353 127.278 91.194 126.802 Z " id="Tracé" fill="rgb(194,220,224)"/><g opacity="0.2"><path d=" M 94.06 118.073 C 92.901 117.597 91.576 118.15 91.1 119.309 L 89.341 123.587 C 88.865 124.746 89.418 126.072 90.576 126.548 L 91.195 126.802 C 91.226 126.815 91.257 126.824 91.289 126.835 C 92.724 124.498 93.774 121.617 94.215 118.137 L 94.06 118.073 Z " id="Tracé" fill="rgb(0,0,0)"/></g><path d=" M 108.806 126.802 L 109.424 126.548 C 110.583 126.072 111.136 124.746 110.66 123.588 L 108.901 119.309 C 108.424 118.15 107.099 117.597 105.94 118.073 L 105.322 118.327 C 104.163 118.804 103.61 120.129 104.086 121.288 L 105.845 125.566 C 106.322 126.725 107.647 127.278 108.806 126.802 Z " id="Tracé" fill="rgb(194,220,224)"/><g opacity="0.2"><path d=" M 105.94 118.073 C 107.099 117.597 108.424 118.15 108.901 119.309 L 110.66 123.587 C 111.136 124.746 110.583 126.072 109.424 126.548 L 108.806 126.802 C 108.775 126.815 108.743 126.824 108.712 126.835 C 107.276 124.498 106.226 121.617 105.785 118.137 L 105.94 118.073 Z " id="Tracé" fill="rgb(0,0,0)"/></g><g id="Groep"><path d=" M 108.101 112.887 C 107.862 112.887 107.619 112.824 107.398 112.691 C 103.987 110.645 101.913 109.847 100 109.847 C 98.087 109.847 96.013 110.645 92.602 112.691 C 91.954 113.081 91.113 112.87 90.724 112.222 C 90.335 111.573 90.545 110.733 91.193 110.343 C 94.429 108.402 97.165 107.109 100 107.109 C 102.836 107.109 105.572 108.402 108.807 110.343 C 109.455 110.733 109.666 111.573 109.277 112.222 C 109.02 112.65 108.566 112.887 108.101 112.887 Z " id="Tracé" fill="rgb(233,210,134)"/><path d=" M 61.042 114.694 L 57.239 114.694 C 56.483 114.694 55.87 114.081 55.87 113.325 C 55.87 112.569 56.483 111.956 57.239 111.956 L 61.042 111.956 C 61.799 111.956 62.411 112.569 62.411 113.325 C 62.412 114.081 61.799 114.694 61.042 114.694 Z " id="Tracé" fill="rgb(233,210,134)"/><path d=" M 142.761 114.694 L 138.958 114.694 C 138.201 114.694 137.589 114.081 137.589 113.325 C 137.589 112.569 138.201 111.956 138.958 111.956 L 142.761 111.956 C 143.517 111.956 144.13 112.569 144.13 113.325 C 144.13 114.081 143.517 114.694 142.761 114.694 Z " id="Tracé" fill="rgb(233,210,134)"/></g><g id="Groep"><path d=" M 75.984 104 C 67.275 104 60.168 106.245 60.168 116.887 C 60.168 124.697 60.978 125.932 63.976 129.383 C 66.805 132.641 69.283 134.07 75.984 134.07 C 83.502 134.07 93.459 128.212 93.459 113.372 C 93.46 104 82.916 104 75.984 104 Z " id="Tracé" fill="rgb(95,102,111)"/><path d=" M 124.016 104 C 132.725 104 139.832 106.245 139.832 116.887 C 139.832 124.697 139.022 125.932 136.024 129.383 C 133.195 132.641 130.717 134.07 124.016 134.07 C 116.498 134.07 106.541 128.212 106.541 113.372 C 106.541 104 117.084 104 124.016 104 Z " id="Tracé" fill="rgb(95,102,111)"/></g><g id="Groep"><g opacity="0.15"><path d=" M 75.984 104 C 67.275 104 60.168 106.245 60.168 116.887 C 60.168 119.4 60.253 121.23 60.467 122.674 L 79.114 104.027 C 78.025 104 76.968 104 75.984 104 Z " id="Tracé" fill="rgb(255,255,255)"/></g><g opacity="0.15"><path d=" M 138.908 111.15 L 117.424 132.634 C 119.632 133.613 121.919 134.069 124.016 134.069 C 130.717 134.069 133.195 132.641 136.024 129.383 C 139.022 125.932 139.832 124.697 139.832 116.887 C 139.832 114.61 139.505 112.718 138.908 111.15 Z " id="Tracé" fill="rgb(255,255,255)"/></g></g></g></g></svg>