<?xml version="1.0" encoding="UTF-8" standalone="no"?><!-- Generator: Gravit.io --><svg xmlns="http://www.w3.org/2000/svg" xmlns:xlink="http://www.w3.org/1999/xlink" style="isolation:isolate" viewBox="0 0 200 200" width="200pt" height="200pt"><g id="attributes"><g id="sunglasses"><g id="Groep"><path d=" M 49.748 107.795 L 46.618 107.795 C 45.695 107.795 44.946 107.047 44.946 106.124 C 44.946 105.201 45.695 104.452 46.618 104.452 L 49.748 104.452 C 50.671 104.452 51.419 105.201 51.419 106.124 C 51.419 107.047 50.671 107.795 49.748 107.795 Z " id="Tracé" fill="rgb(195,196,199)"/><path d=" M 151.633 107.795 L 148.503 107.795 C 147.579 107.795 146.831 107.047 146.831 106.124 C 146.831 105.201 147.579 104.452 148.503 104.452 L 151.633 104.452 C 152.556 104.452 153.304 105.201 153.304 106.124 C 153.304 107.047 152.556 107.795 151.633 107.795 Z " id="Tracé" fill="rgb(195,196,199)"/></g><path d=" M 108.434 105.675 C 107.012 105.675 105.932 105.164 104.888 104.67 C 103.559 104.041 102.052 103.328 99.126 103.328 C 96.199 103.328 94.692 104.041 93.363 104.67 C 92.319 105.164 91.239 105.675 89.817 105.675 L 89.817 102.332 C 90.459 102.332 90.984 102.098 91.934 101.649 C 93.417 100.947 95.448 99.986 99.126 99.986 C 102.803 99.986 104.835 100.947 106.318 101.649 C 107.268 102.098 107.793 102.332 108.434 102.332 L 108.434 105.675 L 108.434 105.675 Z " id="Tracé" fill="rgb(195,196,199)"/><path d=" M 88.906 100.566 C 85.348 97.204 80.195 95.5 73.591 95.5 C 67.913 95.5 63.312 96.763 59.87 99.252 C 59.87 99.252 59.867 99.251 59.867 99.251 C 56.969 101.211 52.678 103.284 49.925 103.798 C 49.264 103.922 48.782 104.492 48.782 105.165 L 48.782 106.797 C 48.782 107.564 49.257 108.249 49.974 108.519 C 51.239 108.994 53.056 110.346 53.056 114.188 C 53.056 125.331 62.268 134.396 73.591 134.396 C 84.914 134.396 94.126 125.331 94.126 114.188 C 94.126 108.421 92.37 103.838 88.906 100.566 Z " id="Tracé" fill="rgb(237,163,178)"/><path d=" M 89.432 114.188 C 89.432 105.62 84.715 100.194 73.591 100.194 C 62.467 100.194 57.75 105.62 57.75 114.188 C 57.75 122.757 64.842 129.703 73.591 129.703 C 82.34 129.703 89.432 122.757 89.432 114.188 Z " id="Tracé" fill="rgb(57,64,73)"/><g opacity="0.2"><path d=" M 73.591 100.194 C 62.466 100.194 57.749 105.62 57.749 114.188 C 57.749 114.365 57.757 114.54 57.763 114.716 C 58.045 106.6 62.807 101.501 73.591 101.501 C 84.374 101.501 89.136 106.6 89.418 114.716 C 89.424 114.54 89.432 114.365 89.432 114.188 C 89.432 105.62 84.715 100.194 73.591 100.194 Z " id="Tracé" fill="rgb(0,0,0)"/></g><path d=" M 109.344 100.566 C 112.902 97.204 118.055 95.5 124.659 95.5 C 130.337 95.5 134.939 96.763 138.38 99.252 C 138.381 99.252 138.384 99.251 138.384 99.251 C 141.281 101.211 145.573 103.284 148.326 103.798 C 148.987 103.922 149.469 104.492 149.469 105.165 L 149.469 106.797 C 149.469 107.564 148.994 108.249 148.276 108.519 C 147.011 108.994 145.195 110.346 145.195 114.188 C 145.195 125.331 135.983 134.396 124.659 134.396 C 113.336 134.396 104.124 125.331 104.124 114.188 C 104.124 108.421 105.881 103.838 109.344 100.566 Z " id="Tracé" fill="rgb(237,163,178)"/><path d=" M 108.818 114.188 C 108.818 105.62 113.535 100.194 124.659 100.194 C 135.784 100.194 140.501 105.62 140.501 114.188 C 140.501 122.757 133.409 129.703 124.66 129.703 C 115.911 129.703 108.818 122.757 108.818 114.188 Z " id="Tracé" fill="rgb(57,64,73)"/><g opacity="0.2"><path d=" M 124.66 100.194 C 135.784 100.194 140.501 105.62 140.501 114.188 C 140.501 114.365 140.494 114.54 140.488 114.716 C 140.205 106.6 135.443 101.501 124.66 101.501 C 113.877 101.501 109.114 106.6 108.832 114.716 C 108.826 114.54 108.819 114.365 108.819 114.188 C 108.818 105.62 113.535 100.194 124.66 100.194 Z " id="Tracé" fill="rgb(0,0,0)"/></g><g id="Groep"><g opacity="0.15"><path d=" M 73.591 100.194 C 62.466 100.194 57.749 105.62 57.749 114.188 C 57.749 117.37 58.728 120.326 60.406 122.788 L 81.685 101.508 C 79.497 100.652 76.815 100.194 73.591 100.194 Z " id="Tracé" fill="rgb(255,255,255)"/></g><g opacity="0.15"><path d=" M 138.938 106.898 L 117.706 128.13 C 119.805 129.136 122.165 129.703 124.66 129.703 C 133.409 129.703 140.501 122.757 140.501 114.188 C 140.501 111.397 139.997 108.943 138.938 106.898 Z " id="Tracé" fill="rgb(255,255,255)"/></g></g></g></g></svg>