<?xml version="1.0" encoding="UTF-8" standalone="no"?><!-- Generator: Gravit.io --><svg xmlns="http://www.w3.org/2000/svg" xmlns:xlink="http://www.w3.org/1999/xlink" style="isolation:isolate" viewBox="0 0 200 200" width="200pt" height="200pt"><g id="attributes"><g id="sunglasses"><g id="Groep"><path d=" M 50.622 108.295 L 47.493 108.295 C 46.57 108.295 45.821 107.547 45.821 106.624 C 45.821 105.701 46.57 104.952 47.493 104.952 L 50.623 104.952 C 51.546 104.952 52.294 105.701 52.294 106.624 C 52.294 107.547 51.545 108.295 50.622 108.295 Z " id="Tracé" fill="rgb(195,196,199)"/><path d=" M 152.507 108.295 L 149.377 108.295 C 148.454 108.295 147.706 107.547 147.706 106.624 C 147.706 105.701 148.454 104.952 149.377 104.952 L 152.507 104.952 C 153.431 104.952 154.179 105.701 154.179 106.624 C 154.179 107.547 153.43 108.295 152.507 108.295 Z " id="Tracé" fill="rgb(195,196,199)"/></g><path d=" M 109.309 106.175 C 107.887 106.175 106.807 105.664 105.763 105.17 C 104.434 104.541 102.927 103.828 100 103.828 C 97.074 103.828 95.567 104.541 94.238 105.17 C 93.194 105.664 92.114 106.175 90.692 106.175 L 90.692 102.832 C 91.334 102.832 91.859 102.598 92.808 102.149 C 94.292 101.447 96.323 100.486 100.001 100.486 C 103.678 100.486 105.71 101.447 107.193 102.149 C 108.142 102.598 108.668 102.832 109.309 102.832 L 109.309 106.175 L 109.309 106.175 Z " id="Tracé" fill="rgb(195,196,199)"/><path d=" M 89.781 101.066 C 86.223 97.704 81.07 96 74.466 96 C 68.788 96 64.187 97.263 60.745 99.752 C 60.744 99.752 60.742 99.751 60.742 99.751 C 57.844 101.711 53.552 103.784 50.8 104.298 C 50.138 104.422 49.656 104.992 49.656 105.665 L 49.656 107.297 C 49.656 108.064 50.131 108.749 50.849 109.019 C 52.114 109.494 53.93 110.846 53.93 114.688 C 53.93 125.831 63.143 134.896 74.466 134.896 C 85.789 134.896 95.001 125.831 95.001 114.688 C 95.001 108.921 93.245 104.338 89.781 101.066 Z " id="Tracé" fill="rgb(237,163,178)"/><path d=" M 90.307 114.688 C 90.307 106.12 85.59 100.694 74.466 100.694 C 63.341 100.694 58.624 106.12 58.624 114.688 C 58.624 123.257 65.717 130.203 74.466 130.203 C 83.215 130.203 90.307 123.257 90.307 114.688 Z " id="Tracé" fill="rgb(57,64,73)"/><g opacity="0.2"><path d=" M 74.465 100.694 C 63.341 100.694 58.624 106.12 58.624 114.688 C 58.624 114.865 58.632 115.04 58.637 115.216 C 58.92 107.1 63.682 102.001 74.465 102.001 C 85.248 102.001 90.011 107.1 90.293 115.216 C 90.299 115.04 90.307 114.865 90.307 114.688 C 90.307 106.12 85.59 100.694 74.465 100.694 Z " id="Tracé" fill="rgb(0,0,0)"/></g><path d=" M 110.219 101.066 C 113.777 97.704 118.93 96 125.534 96 C 131.212 96 135.813 97.263 139.255 99.752 C 139.256 99.752 139.258 99.751 139.258 99.751 C 142.156 101.711 146.448 103.784 149.2 104.298 C 149.862 104.422 150.344 104.992 150.344 105.665 L 150.344 107.297 C 150.344 108.064 149.869 108.749 149.151 109.019 C 147.886 109.494 146.07 110.846 146.07 114.688 C 146.07 125.831 136.857 134.896 125.534 134.896 C 114.211 134.896 104.999 125.831 104.999 114.688 C 104.999 108.921 106.755 104.338 110.219 101.066 Z " id="Tracé" fill="rgb(237,163,178)"/><path d=" M 109.693 114.688 C 109.693 106.12 114.41 100.694 125.534 100.694 C 136.659 100.694 141.376 106.12 141.376 114.688 C 141.376 123.257 134.283 130.203 125.534 130.203 C 116.785 130.203 109.693 123.257 109.693 114.688 Z " id="Tracé" fill="rgb(57,64,73)"/><g opacity="0.2"><path d=" M 125.535 100.694 C 136.659 100.694 141.376 106.12 141.376 114.688 C 141.376 114.865 141.368 115.04 141.363 115.216 C 141.08 107.1 136.318 102.001 125.535 102.001 C 114.752 102.001 109.989 107.1 109.707 115.216 C 109.701 115.04 109.693 114.865 109.693 114.688 C 109.693 106.12 114.41 100.694 125.535 100.694 Z " id="Tracé" fill="rgb(0,0,0)"/></g><g id="Groep"><g opacity="0.15"><path d=" M 74.465 100.694 C 63.341 100.694 58.624 106.12 58.624 114.688 C 58.624 117.87 59.603 120.826 61.28 123.288 L 82.56 102.008 C 80.372 101.152 77.69 100.694 74.465 100.694 Z " id="Tracé" fill="rgb(255,255,255)"/></g><g opacity="0.15"><path d=" M 139.813 107.398 L 118.581 128.63 C 120.68 129.636 123.039 130.203 125.534 130.203 C 134.284 130.203 141.376 123.257 141.376 114.688 C 141.376 111.897 140.872 109.443 139.813 107.398 Z " id="Tracé" fill="rgb(255,255,255)"/></g></g></g></g></svg>