<?xml version="1.0" encoding="UTF-8" standalone="no"?><!-- Generator: Gravit.io --><svg xmlns="http://www.w3.org/2000/svg" xmlns:xlink="http://www.w3.org/1999/xlink" style="isolation:isolate" viewBox="0 0 200 200" width="200pt" height="200pt"><g id="attributes"><g id="sunglasses"><path d=" M 88.286 90.333 L 87.464 89.994 C 85.922 89.361 85.187 87.598 85.82 86.056 L 88.16 80.365 C 88.793 78.823 90.557 78.088 92.098 78.721 L 92.92 79.059 C 94.462 79.693 95.198 81.456 94.564 82.997 L 92.224 88.689 C 91.591 90.23 89.828 90.966 88.286 90.333 Z " id="Tracé" fill="rgb(194,220,224)"/><g opacity="0.2"><path d=" M 92.098 78.721 C 90.557 78.087 88.794 78.823 88.16 80.365 L 85.821 86.056 C 85.187 87.598 85.923 89.361 87.464 89.994 L 88.287 90.332 C 88.328 90.349 88.37 90.361 88.412 90.377 C 90.322 87.267 91.718 83.435 92.305 78.806 L 92.098 78.721 Z " id="Tracé" fill="rgb(0,0,0)"/></g><path d=" M 111.714 90.333 L 112.536 89.994 C 114.078 89.361 114.813 87.598 114.18 86.056 L 111.84 80.365 C 111.207 78.823 109.443 78.087 107.902 78.721 L 107.08 79.059 C 105.538 79.692 104.802 81.456 105.436 82.997 L 107.776 88.689 C 108.409 90.23 110.172 90.966 111.714 90.333 Z " id="Tracé" fill="rgb(194,220,224)"/><g opacity="0.2"><path d=" M 107.902 78.721 C 109.443 78.087 111.207 78.823 111.84 80.365 L 114.18 86.056 C 114.813 87.598 114.078 89.361 112.536 89.994 L 111.714 90.332 C 111.673 90.349 111.63 90.361 111.589 90.377 C 109.679 87.267 108.282 83.435 107.696 78.806 L 107.902 78.721 Z " id="Tracé" fill="rgb(0,0,0)"/></g><g id="Groep"><path d=" M 110.777 71.821 C 110.458 71.821 110.135 71.738 109.842 71.562 C 105.303 68.839 102.544 67.778 100 67.778 C 97.456 67.778 94.697 68.839 90.159 71.562 C 89.296 72.079 88.178 71.8 87.66 70.937 C 87.143 70.075 87.422 68.956 88.285 68.438 C 92.589 65.856 96.229 64.136 100 64.136 C 103.772 64.136 107.412 65.856 111.715 68.438 C 112.578 68.956 112.858 70.074 112.34 70.937 C 111.999 71.506 111.396 71.821 110.777 71.821 Z " id="Tracé" fill="rgb(233,210,134)"/><path d=" M 48.177 74.226 L 43.118 74.226 C 42.112 74.226 41.297 73.411 41.297 72.405 C 41.297 71.399 42.112 70.583 43.118 70.583 L 48.177 70.583 C 49.183 70.583 49.998 71.399 49.998 72.405 C 49.998 73.41 49.183 74.226 48.177 74.226 Z " id="Tracé" fill="rgb(233,210,134)"/><path d=" M 156.882 74.226 L 151.823 74.226 C 150.817 74.226 150.002 73.411 150.002 72.405 C 150.002 71.399 150.817 70.583 151.823 70.583 L 156.882 70.583 C 157.888 70.583 158.703 71.399 158.703 72.405 C 158.703 73.41 157.888 74.226 156.882 74.226 Z " id="Tracé" fill="rgb(233,210,134)"/></g><g id="Groep"><path d=" M 68.053 60 C 56.468 60 47.014 62.987 47.014 77.143 C 47.014 87.532 48.091 89.175 52.079 93.766 C 55.843 98.099 59.138 100 68.053 100 C 78.053 100 91.299 92.208 91.299 72.468 C 91.3 60 77.273 60 68.053 60 Z " id="Tracé" fill="rgb(95,102,111)"/><path d=" M 131.947 60 C 143.532 60 152.986 62.987 152.986 77.143 C 152.986 87.532 151.909 89.175 147.921 93.766 C 144.157 98.099 140.862 100 131.947 100 C 121.947 100 108.701 92.208 108.701 72.468 C 108.701 60 122.727 60 131.947 60 Z " id="Tracé" fill="rgb(95,102,111)"/></g><g id="Groep"><g opacity="0.15"><path d=" M 68.053 60 C 56.468 60 47.014 62.987 47.014 77.143 C 47.014 80.486 47.126 82.92 47.411 84.842 L 72.217 60.036 C 70.768 60 69.362 60 68.053 60 Z " id="Tracé" fill="rgb(255,255,255)"/></g><g opacity="0.15"><path d=" M 151.758 69.511 L 123.179 98.09 C 126.115 99.393 129.158 100 131.947 100 C 140.862 100 144.157 98.099 147.921 93.766 C 151.909 89.175 152.986 87.532 152.986 77.143 C 152.986 74.114 152.552 71.597 151.758 69.511 Z " id="Tracé" fill="rgb(255,255,255)"/></g></g></g></g></svg>