<?xml version="1.0" encoding="UTF-8" standalone="no"?><!-- Generator: Gravit.io --><svg xmlns="http://www.w3.org/2000/svg" xmlns:xlink="http://www.w3.org/1999/xlink" style="isolation:isolate" viewBox="0 0 200 200" width="200pt" height="200pt"><g id="attributes"><g id="sunglasses"><path d=" M 122.006 124.962 C 119.405 125.273 113.491 125.979 109.407 129.73 L 109.407 129.73 C 107.18 131.808 103.393 129.924 100 129.924 C 96.607 129.924 92.82 131.808 90.593 129.73 L 90.593 129.73 C 86.508 125.978 80.595 125.272 77.994 124.962 C 62.975 123.409 63.061 129.37 55.463 130.362 C 54.766 130.453 54.25 131.055 54.25 131.758 L 54.25 133.107 C 54.25 133.959 54.856 134.693 55.694 134.842 C 56.967 135.07 58.622 135.74 58.622 137.683 C 58.622 142.587 60.255 147.223 63.221 150.737 C 66.348 154.442 70.744 156.65 75.598 156.956 C 76.063 156.985 76.532 157 76.994 157 L 76.996 157 C 81.759 157 86.176 155.434 89.433 152.59 C 92.932 149.535 94.859 145.221 94.859 140.443 C 94.859 139.808 94.83 139.199 94.776 138.616 L 94.776 138.616 C 94.404 135.203 98.507 135.097 100 135.097 C 101.493 135.097 105.596 135.203 105.224 138.616 L 105.224 138.616 C 105.17 139.199 105.141 139.808 105.141 140.443 C 105.141 145.221 107.068 149.535 110.567 152.59 C 113.823 155.434 118.241 157 123.004 157 L 123.006 157 C 123.468 157 123.937 156.985 124.402 156.956 C 129.256 156.65 133.652 154.442 136.779 150.737 C 139.745 147.223 141.378 142.587 141.378 137.683 C 141.378 135.74 143.033 135.07 144.306 134.842 C 145.144 134.692 145.75 133.959 145.75 133.107 L 145.75 131.758 C 145.75 131.055 145.234 130.453 144.537 130.362 C 136.938 129.37 137.025 123.409 122.006 124.962 Z " id="Tracé" fill="rgb(162,123,90)"/><g id="Groep"><circle vector-effect="non-scaling-stroke" cx="59.467394642336174" cy="132.84442150660038" r="1.4504141208028045" id="Ellips" fill="rgb(195,196,199)"/><circle vector-effect="non-scaling-stroke" cx="140.53242664720042" cy="132.84442150660038" r="1.4504141208028045" id="Ellips" fill="rgb(195,196,199)"/></g><path d=" M 77.489 129.198 C 70.517 128.366 62.887 129.743 62.887 137.682 C 62.887 145.622 68.144 152.212 75.866 152.698 C 83.94 153.207 90.592 148.242 90.592 140.442 C 90.593 132.643 85.226 130.121 77.489 129.198 Z " id="Tracé" fill="rgb(233,210,134)"/><g opacity="0.2"><path d=" M 77.489 129.198 C 70.517 128.366 62.887 129.743 62.887 137.682 C 62.887 137.827 62.893 137.969 62.896 138.112 C 63.175 130.562 70.648 129.251 77.489 130.067 C 85.064 130.971 90.364 133.411 90.582 140.833 C 90.586 140.703 90.593 140.574 90.593 140.442 C 90.593 132.643 85.226 130.121 77.489 129.198 Z " id="Tracé" fill="rgb(0,0,0)"/></g><path d=" M 122.511 129.198 C 129.483 128.366 137.112 129.743 137.112 137.682 C 137.112 145.622 131.855 152.212 124.133 152.698 C 116.059 153.207 109.407 148.242 109.407 140.442 C 109.407 132.643 114.773 130.121 122.511 129.198 Z " id="Tracé" fill="rgb(233,210,134)"/><g opacity="0.2"><path d=" M 122.511 129.198 C 129.483 128.366 137.112 129.743 137.112 137.682 C 137.112 137.827 137.107 137.969 137.103 138.112 C 136.825 130.562 129.352 129.251 122.511 130.067 C 114.935 130.971 109.636 133.411 109.418 140.833 C 109.414 140.703 109.407 140.574 109.407 140.442 C 109.407 132.643 114.773 130.121 122.511 129.198 Z " id="Tracé" fill="rgb(0,0,0)"/></g><g id="Groep"><g opacity="0.3"><path d=" M 77.489 129.198 C 70.517 128.366 62.887 129.743 62.887 137.682 C 62.887 139.791 63.261 141.802 63.951 143.631 L 78.282 129.3 C 78.02 129.264 77.756 129.23 77.489 129.198 Z " id="Tracé" fill="rgb(255,255,255)"/></g><g opacity="0.3"><path d=" M 124.133 152.698 C 131.855 152.212 137.112 145.622 137.112 137.683 C 137.112 136.034 136.782 134.669 136.199 133.548 L 117.839 151.908 C 119.752 152.557 121.887 152.84 124.133 152.698 Z " id="Tracé" fill="rgb(255,255,255)"/></g></g></g></g></svg>