<?xml version="1.0" encoding="UTF-8" standalone="no"?><!-- Generator: Gravit.io --><svg xmlns="http://www.w3.org/2000/svg" xmlns:xlink="http://www.w3.org/1999/xlink" style="isolation:isolate" viewBox="0 0 200 200" width="200pt" height="200pt"><g id="chicken"><g id="hair"><path d=" M 46.043 70.194 C 49.466 66.771 51.536 57.855 48.591 57.457 Q 45.645 57.059 44.77 61.278 Q 40.312 52.999 35.854 57.457 Q 31.397 61.915 40.949 65.099 Q 29.964 66.85 34.581 71.467 C 39.198 76.084 42.621 73.616 46.043 70.194 Z " id="outer" fill="rgb(237,123,63)"/><path d=" M 152.957 70.194 C 149.534 66.771 147.464 57.855 150.409 57.457 Q 153.355 57.059 154.23 61.278 Q 158.688 52.999 163.146 57.457 Q 167.603 61.915 158.051 65.099 Q 169.036 66.85 164.419 71.467 C 159.802 76.084 156.379 73.616 152.957 70.194 Z " id="outer" fill="rgb(237,123,63)"/></g></g></svg>