<?xml version="1.0" encoding="UTF-8" standalone="no"?><!-- Generator: Gravit.io --><svg xmlns="http://www.w3.org/2000/svg" xmlns:xlink="http://www.w3.org/1999/xlink" style="isolation:isolate" viewBox="0 0 200 200" width="200pt" height="200pt"><g id="frog"><g id="hair"><path d=" M 27.631 87.71 C 30.32 82.538 29.464 71.551 25.938 72.162 Q 22.412 72.773 22.936 77.935 Q 14.816 70.046 11.314 76.78 Q 7.812 83.515 19.935 83.707 Q 7.957 89.701 14.932 93.328 C 21.907 96.955 24.942 92.881 27.631 87.71 Z " id="outer" fill="rgb(216,236,224)"/><path d=" M 167.898 87.71 C 165.209 82.538 166.065 71.551 169.591 72.162 Q 173.117 72.773 172.593 77.935 Q 180.713 70.046 184.215 76.78 Q 187.717 83.515 175.595 83.707 Q 187.573 89.701 180.598 93.328 C 173.622 96.955 170.587 92.881 167.898 87.71 Z " id="outer" fill="rgb(216,236,224)"/></g></g></svg>