<?xml version="1.0" encoding="UTF-8" standalone="no"?><!-- Generator: Gravit.io --><svg xmlns="http://www.w3.org/2000/svg" xmlns:xlink="http://www.w3.org/1999/xlink" style="isolation:isolate" viewBox="0 0 200 200" width="200pt" height="200pt"><g id="backgrounds"><ellipse vector-effect="non-scaling-stroke" cx="100" cy="175.5" rx="100" ry="24.5" id="present" fill="rgb(244,244,244)"/></g><g id="chicken"><g id="facial"><path d=" M 98.789 62.224 Q 63.984 30.394 73.185 23.818 Q 82.387 17.242 89.188 27.019 Q 91.788 11.541 98.789 11.016 Q 105.79 10.491 111.591 27.019 Q 120.593 17.567 127.594 23.818 Q 134.595 30.069 98.789 62.224 Z " id="outer" fill="rgb(237,123,63)"/></g><g id="body"><path d=" M 100 167.808 L 100 167.808 Q 170.411 168.758 170.411 116.6 C 170.411 60.291 136.974 34.129 100 36.587 L 100 36.587 C 63.026 34.129 29.589 60.291 29.589 116.6 Q 29.589 168.758 100 167.808 Z " fill-rule="evenodd" id="outer" fill="rgb(247,245,230)"/></g><g id="hair"><path d=" M 92.177 116.617 L 105.401 116.617 Q 105.963 132.314 98.578 132.314 Q 91.336 132.314 92.177 116.617 Z " id="outer" fill="rgb(237,123,63)"/></g><g id="eyes"><ellipse vector-effect="non-scaling-stroke" cx="127.62039919972582" cy="91.13832738942757" rx="9.119706694622813" ry="10.98861776044592" id="outerR" fill="rgb(255,255,255)"/><circle vector-effect="non-scaling-stroke" cx="128.1818360427456" cy="93.14232050515142" r="4.582511079965798" id="innerR" fill="rgb(101,75,37)"/><ellipse vector-effect="non-scaling-stroke" cx="71.25672711423456" cy="91.13832738942757" rx="9.11970669462281" ry="10.98861776044592" id="outerL" fill="rgb(255,255,255)"/><circle vector-effect="non-scaling-stroke" cx="71.81816395725441" cy="93.14232050515142" r="4.582511079965798" id="innerL" fill="rgb(101,75,37)"/></g><g id="nose"><path d=" M 98.789 116.617 L 98.789 116.617 C 87.016 116.938 81.649 114.772 82.787 110.216 C 84.256 104.331 88.942 100.978 98.789 100.614 L 98.789 100.614 C 108.636 100.978 113.323 104.331 114.792 110.216 C 115.929 114.772 110.563 116.938 98.789 116.617 Z " fill-rule="evenodd" id="outer" fill="rgb(245,213,44)"/></g></g><g id="mouse"><g id="ears"><circle vector-effect="non-scaling-stroke" cx="43.64361702127667" cy="74.81382978723406" r="33.813829787234056" id="outerL" fill="rgb(187,189,201)"/><circle vector-effect="non-scaling-stroke" cx="47.87034574468085" cy="79.04055851063839" r="23.95146276595743" id="innerL" fill="rgb(252,227,220)"/><circle vector-effect="non-scaling-stroke" cx="156.35638297872342" cy="74.81382978723406" r="33.813829787234056" id="outerR" fill="rgb(187,189,201)"/><circle vector-effect="non-scaling-stroke" cx="153.53856382978714" cy="79.04055851063839" r="23.951462765957416" id="innerR" fill="rgb(252,227,220)"/></g><g id="body"><ellipse vector-effect="non-scaling-stroke" cx="99.99999999999994" cy="115.6722074468085" rx="63.40093085106382" ry="52.12965425531914" id="outer" fill="rgb(187,189,201)"/></g><g id="eyes"><circle vector-effect="non-scaling-stroke" cx="76.9220611702127" cy="130.63482712765963" r="8.988843085106382" id="outerL" fill="rgb(255,255,255)"/><circle vector-effect="non-scaling-stroke" cx="78.75364361702121" cy="132.46640957446812" r="4.508510638297878" id="innerL" fill="rgb(112,116,120)"/><circle vector-effect="non-scaling-stroke" cx="122.51437499999997" cy="130.63482712765963" r="8.988843085106367" id="outerR" fill="rgb(255,255,255)"/><circle vector-effect="non-scaling-stroke" cx="120.68279255319146" cy="132.46640957446812" r="4.508510638297878" id="innerR" fill="rgb(112,116,120)"/></g><g id="nose"><circle vector-effect="non-scaling-stroke" cx="99.99999999999996" cy="167.8018617021277" r="5.635638297872347" id="outer" fill="rgb(112,116,120)"/></g><g id="hairs"><path d=" M 122.543 148.077 C 136.761 143.186 150.368 142.141 163.274 144.863" id="Tracé" fill="none" vector-effect="non-scaling-stroke" stroke-width="0.5" stroke="rgb(139,139,139)" stroke-linejoin="miter" stroke-linecap="square" stroke-miterlimit="3"/><path d=" M 122.678 154.101 C 135.883 151.281 148.127 151.823 159.337 155.647" id="Tracé" fill="none" vector-effect="non-scaling-stroke" stroke-width="0.5" stroke="rgb(139,139,139)" stroke-linejoin="miter" stroke-linecap="square" stroke-miterlimit="3"/><path d=" M 78.866 148.077 C 64.648 143.186 51.041 142.141 38.135 144.863" id="Tracé" fill="none" vector-effect="non-scaling-stroke" stroke-width="0.5" stroke="rgb(139,139,139)" stroke-linejoin="miter" stroke-linecap="square" stroke-miterlimit="3"/><path d=" M 78.731 154.101 C 65.526 151.281 53.282 151.823 42.072 155.647" id="Tracé" fill="none" vector-effect="non-scaling-stroke" stroke-width="0.5" stroke="rgb(139,139,139)" stroke-linejoin="miter" stroke-linecap="square" stroke-miterlimit="3"/></g></g><g id="monkey"><g id="ears"><ellipse vector-effect="non-scaling-stroke" cx="167.0140389913117" cy="111.75513880059344" rx="24.09493536766263" ry="22.58900190718373" id="innerR" fill="rgb(253,228,197)"/><ellipse vector-effect="non-scaling-stroke" cx="32.98596100868828" cy="111.75513880059344" rx="24.094935367662643" ry="22.58900190718373" id="innerL" fill="rgb(253,228,197)"/></g><g id="body"><ellipse vector-effect="non-scaling-stroke" cx="99.99999999999997" cy="105.7314049586777" rx="67.01403899131171" ry="58.73140495867765" id="outer" fill="rgb(179,135,30)"/><path d=" M 100 86.154 Q 125.789 62.059 151.202 86.154 C 176.614 110.249 148.66 141.309 142.166 146.392 C 129.579 156.243 114.864 159.131 100 158.439 L 100 158.439 C 85.136 159.131 70.421 156.243 57.834 146.392 C 51.34 141.309 23.386 110.249 48.798 86.154 Q 74.211 62.059 100 86.154 Z " fill-rule="evenodd" id="inner" fill="rgb(253,228,197)"/></g><g id="eyes"><circle vector-effect="non-scaling-stroke" cx="70.79817530682416" cy="114.79136961794794" r="9.059964659270232" id="outerL" fill="rgb(255,255,255)"/><circle vector-effect="non-scaling-stroke" cx="72.26269559714" cy="116.25588990826373" r="5.057946488047577" id="innerL" fill="rgb(101,76,7)"/><circle vector-effect="non-scaling-stroke" cx="129.20182469317575" cy="114.79136961794794" r="9.059964659270236" id="outerR" fill="rgb(255,255,255)"/><circle vector-effect="non-scaling-stroke" cx="127.7373044028599" cy="116.25588990826371" r="5.057946488047577" id="innerR" fill="rgb(101,76,7)"/></g><g id="nose"><ellipse vector-effect="non-scaling-stroke" cx="100.75296673023944" cy="126.86320119817617" rx="4.517800381436743" ry="3.0118669209578286" id="outer" fill="rgb(101,76,7)"/></g><g id="mouth"><mask id="_mask_f30A14CUt0j86tKmNUGeHItlxYICLBiB"><path d=" M 101.123 129.875 L 101.123 134.344 Q 98.371 137.356 94.996 137.356 C 92.583 137.356 89.946 134.914 87.582 131.326" id="Tracé" fill="white" stroke="none"/></mask><path d=" M 101.123 129.875 L 101.123 134.344 Q 98.371 137.356 94.996 137.356 C 92.583 137.356 89.946 134.914 87.582 131.326" id="Tracé" fill="none"/><path d=" M 101.123 129.875 L 101.123 134.344 Q 98.371 137.356 94.996 137.356 C 92.583 137.356 89.946 134.914 87.582 131.326" id="Tracé" fill="none" mask="url(#_mask_f30A14CUt0j86tKmNUGeHItlxYICLBiB)" vector-effect="non-scaling-stroke" stroke-width="1" stroke="rgb(101,76,7)" stroke-linejoin="miter" stroke-linecap="square" stroke-miterlimit="3"/><mask id="_mask_GN6uG7AWYHwlCYX0GYQ7lZc2MVcO4AgI"><path d=" M 100.383 129.875 L 100.383 134.344 Q 103.135 137.356 106.51 137.356 C 108.923 137.356 111.56 134.914 113.924 131.326" id="Tracé" fill="white" stroke="none"/></mask><path d=" M 100.383 129.875 L 100.383 134.344 Q 103.135 137.356 106.51 137.356 C 108.923 137.356 111.56 134.914 113.924 131.326" id="Tracé" fill="none"/><path d=" M 100.383 129.875 L 100.383 134.344 Q 103.135 137.356 106.51 137.356 C 108.923 137.356 111.56 134.914 113.924 131.326" id="Tracé" fill="none" mask="url(#_mask_GN6uG7AWYHwlCYX0GYQ7lZc2MVcO4AgI)" vector-effect="non-scaling-stroke" stroke-width="1" stroke="rgb(101,76,7)" stroke-linejoin="miter" stroke-linecap="square" stroke-miterlimit="3"/></g></g><g id="frog"><g id="body"><path d=" M 168.938 77.519 C 181.274 87.546 188.636 100.338 188.636 114.256 C 188.636 146.584 174.329 164.463 100 164.463 C 27.731 164.463 11.364 146.584 11.364 114.256 C 11.364 101.322 17.721 89.361 28.485 79.666 C 25.284 75.174 23.45 69.669 23.45 63.74 C 23.45 48.174 36.088 35.537 51.653 35.537 C 65.008 35.537 76.208 44.84 79.039 57.343 C 85.757 56.254 92.778 55.682 100 55.682 C 105.836 55.682 111.542 56.055 117.04 56.812 C 120.078 44.581 131.15 35.537 144.318 35.537 C 159.884 35.537 172.521 48.174 172.521 63.74 C 172.521 68.741 171.216 73.44 168.938 77.519 Z " fill-rule="evenodd" id="outer" fill="rgb(179,202,107)"/></g><g id="nose"><circle vector-effect="non-scaling-stroke" cx="91.94214876033062" cy="104.0289256198347" r="4.028925619834709" id="outerL" fill="rgb(105,120,61)"/><circle vector-effect="non-scaling-stroke" cx="108.05785123966946" cy="104.0289256198347" r="4.028925619834709" id="outerR" fill="rgb(105,120,61)"/></g><g id="mouth"><path d=" M 55.682 113.718 L 100 132.231 L 55.682 113.718 Z  M 144.318 113.718 L 100 132.231 L 144.318 113.718 Z " fill-rule="evenodd" id="Samengestelde vorm" fill="none" vector-effect="non-scaling-stroke" stroke-width="3" stroke="rgb(105,120,61)" stroke-linejoin="miter" stroke-linecap="square" stroke-miterlimit="3"/></g><g id="eyes"><circle vector-effect="non-scaling-stroke" cx="53.66735537190088" cy="65.75413223140494" r="14.101239669421474" id="outerL" fill="rgb(255,255,255)"/><circle vector-effect="non-scaling-stroke" cx="55.95661157024798" cy="68.04338842975203" r="7.043388429752014" id="innerL" fill="rgb(105,120,61)"/><circle vector-effect="non-scaling-stroke" cx="143.8987603305785" cy="65.75413223140494" r="14.10123966942146" id="outerR" fill="rgb(255,255,255)"/><circle vector-effect="non-scaling-stroke" cx="141.60950413223142" cy="68.04338842975203" r="7.043388429752014" id="innerR" fill="rgb(105,120,61)"/></g></g><g id="owl"><g id="body"><path d=" M 171.805 73.697 C 182.317 82.835 188.49 94.044 188.49 106.147 C 188.49 136.973 148.447 162 99.125 162 C 49.803 162 9.76 136.973 9.76 106.147 C 9.76 95.545 14.497 85.629 22.691 77.169 C 22.63 60.565 28.537 49.607 32.102 31.676 C 34.007 22.089 49.382 40.224 63.033 55.084 C 74.052 51.993 86.274 50.294 99.125 50.294 C 110.824 50.294 122 51.702 132.219 54.291 C 145.682 39.594 160.553 22.257 162.425 31.676 C 165.738 48.342 171.075 58.984 171.805 73.697 Z " fill-rule="evenodd" id="outer" fill="rgb(183,154,126)"/><path d=" M 99.125 98.932 C 94.61 85.793 82.136 76.359 67.475 76.359 C 48.979 76.359 33.963 91.375 33.963 109.87 C 33.963 128.366 48.979 143.382 67.475 143.382 C 82.136 143.382 94.61 133.948 99.125 120.808 C 103.64 133.948 116.115 143.382 130.775 143.382 C 149.271 143.382 164.287 128.366 164.287 109.87 C 164.287 91.375 149.271 76.359 130.775 76.359 C 116.115 76.359 103.64 85.793 99.125 98.932 Z " fill-rule="evenodd" id="inner" fill="rgb(217,205,183)"/></g><g id="eyes"><circle vector-effect="non-scaling-stroke" cx="73.06044852365626" cy="112.25591690089615" r="16.755916900896224" id="outerL" fill="rgb(255,255,255)"/><circle vector-effect="non-scaling-stroke" cx="76.5221518109518" cy="112.25591690089607" r="10.908777465471715" id="innerL" fill="rgb(142,120,97)"/><circle vector-effect="non-scaling-stroke" cx="125.18996777088883" cy="112.25591690089615" r="16.755916900896224" id="outerR" fill="rgb(255,255,255)"/><circle vector-effect="non-scaling-stroke" cx="121.7282644835931" cy="112.25591690089607" r="10.908777465471715" id="innerR" fill="rgb(142,120,97)"/></g><g id="nose"><path d=" M 99.125 154.619 C 99.431 154.619 99.229 154.619 99.545 154.619 C 101.176 154.619 114.019 140.098 114.019 132.278 Q 114.019 120.177 99.125 121.108 L 99.125 121.108 Q 84.231 120.177 84.231 132.278 C 84.231 140.098 97.075 154.619 98.705 154.619 C 99.022 154.619 98.82 154.619 99.125 154.619 L 99.125 154.619 Z " fill-rule="evenodd" id="outer" fill="rgb(255,237,125)"/></g></g><g id="pig"><g id="body"><path d=" M 177.39 88.274 C 178.445 92.284 178.966 96.449 178.966 100.71 C 178.966 135.896 143.45 164.463 99.706 164.463 C 55.961 164.463 20.446 135.896 20.446 100.71 C 20.446 96.449 20.967 92.284 22.021 88.274 C -4.017 95.312 11.99 73.802 23.42 56.868 Q 34.87 39.906 47.154 53.001 C 61.146 43.021 79.552 36.958 99.706 36.958 C 119.859 36.958 138.265 43.021 152.257 53.001 Q 164.541 39.906 175.991 56.868 C 187.421 73.802 203.428 95.312 177.39 88.274 Z " fill-rule="evenodd" id="outer" fill="rgb(248,204,195)"/></g><g id="hair"><path d=" M 95.436 45.431 C 103.329 45.431 115.993 37.538 113.057 33.684 Q 110.12 29.829 104.246 33.684 Q 108.651 19 98.373 19 Q 88.094 19 95.436 33.684 Q 80.752 23.038 80.752 33.684 C 80.752 44.33 87.543 45.431 95.436 45.431 Z " id="outer" fill="rgb(255,241,118)"/></g><g id="nose"><ellipse vector-effect="non-scaling-stroke" cx="99.70559451036915" cy="125.65688976957532" rx="31.014770555327473" ry="24.946663272763402" id="outer" fill="rgb(240,163,155)"/><ellipse vector-effect="non-scaling-stroke" cx="85.92125204133477" cy="125.65688976957534" rx="5.169128425887919" ry="11.087405899005965" id="innerL" fill="rgb(193,133,125)"/><ellipse vector-effect="non-scaling-stroke" cx="113.4899369794038" cy="125.65688976957534" rx="5.169128425887919" ry="11.087405899005965" id="innerR" fill="rgb(193,133,125)"/></g><g id="eyes"><circle vector-effect="non-scaling-stroke" cx="66.10625974209778" cy="92.95653385798003" r="14.645863873349057" id="outerL" fill="rgb(255,255,255)"/><circle vector-effect="non-scaling-stroke" cx="68.69082395504165" cy="94.24881596445194" r="6.461410532359892" id="innerL" fill="rgb(143,115,112)"/><circle vector-effect="non-scaling-stroke" cx="133.3049292786407" cy="92.95653385798016" r="14.645863873349064" id="outerR" fill="rgb(255,255,255)"/><circle vector-effect="non-scaling-stroke" cx="130.72036506569668" cy="94.24881596445194" r="6.461410532359885" id="innerR" fill="rgb(143,115,112)"/></g></g></svg>