<?xml version="1.0" encoding="UTF-8" standalone="no"?><!-- Generator: Gravit.io --><svg xmlns="http://www.w3.org/2000/svg" xmlns:xlink="http://www.w3.org/1999/xlink" style="isolation:isolate" viewBox="0 0 200 200" width="200pt" height="200pt"><g id="backgrounds"><ellipse vector-effect="non-scaling-stroke" cx="100" cy="175.5" rx="100" ry="24.5" id="present" fill="rgb(244,244,244)"/></g><g id="chicken"><g id="facial"><path d=" M 98.704 54.817 Q 61.457 20.755 71.304 13.717 Q 81.151 6.68 88.429 17.142 Q 91.212 0.579 98.704 0.017 Q 106.196 -0.545 112.404 17.142 Q 122.037 7.028 129.529 13.717 Q 137.021 20.407 98.704 54.817 Z " id="outer" fill="rgb(237,123,63)"/></g><g id="body"><path d=" M 100 167.807 L 100 167.807 Q 175.35 168.824 175.35 113.007 C 175.35 52.748 139.567 24.752 100 27.382 L 100 27.382 C 60.433 24.752 24.65 52.748 24.65 113.007 Q 24.65 168.824 100 167.807 Z " fill-rule="evenodd" id="outer" fill="rgb(247,245,230)"/></g><g id="hair"><path d=" M 91.628 113.025 L 105.78 113.025 Q 106.382 129.823 98.478 129.823 Q 90.728 129.823 91.628 113.025 Z " id="outer" fill="rgb(237,123,63)"/></g><g id="eyes"><circle vector-effect="non-scaling-stroke" cx="67.4625" cy="88.95626011950583" r="8.5625" id="outerL" fill="rgb(101,75,37)"/><circle vector-effect="non-scaling-stroke" cx="130.75462596304564" cy="88.95626011950583" r="8.5625" id="outerR" fill="rgb(101,75,37)"/></g><g id="nose"><path d=" M 98.704 113.025 L 98.704 113.025 C 86.105 113.368 80.362 111.051 81.579 106.175 C 83.151 99.877 88.167 96.29 98.704 95.9 L 98.704 95.9 C 109.242 96.29 114.257 99.877 115.829 106.175 C 117.046 111.051 111.304 113.368 98.704 113.025 Z " fill-rule="evenodd" id="outer" fill="rgb(245,213,44)"/></g></g><g id="mouse"><g id="ears"><circle vector-effect="non-scaling-stroke" cx="37.50000000000008" cy="64.0625" r="37.50000000000001" id="outerL" fill="rgb(187,189,201)"/><circle vector-effect="non-scaling-stroke" cx="42.1875" cy="68.75000000000009" r="26.562499999999986" id="innerL" fill="rgb(252,227,220)"/><circle vector-effect="non-scaling-stroke" cx="162.5" cy="64.0625" r="37.5" id="outerR" fill="rgb(187,189,201)"/><circle vector-effect="non-scaling-stroke" cx="159.3749999999999" cy="68.75000000000009" r="26.5625" id="innerR" fill="rgb(252,227,220)"/></g><g id="body"><ellipse vector-effect="non-scaling-stroke" cx="99.99999999999996" cy="109.37499999999994" rx="70.3125" ry="57.81249999999999" id="outer" fill="rgb(187,189,201)"/></g><g id="eyes"><circle vector-effect="non-scaling-stroke" cx="76.56249999999993" cy="128.125" r="7.8125" id="outerL" fill="rgb(112,116,120)"/><circle vector-effect="non-scaling-stroke" cx="124.99999999999997" cy="128.125" r="7.812500000000007" id="outerR" fill="rgb(112,116,120)"/></g><g id="nose"><circle vector-effect="non-scaling-stroke" cx="99.99999999999996" cy="167.1875" r="6.25" id="outer" fill="rgb(112,116,120)"/></g><g id="hairs"><path d=" M 125 145.312 C 140.768 139.889 155.859 138.729 170.172 141.748" id="Tracé" fill="none" vector-effect="non-scaling-stroke" stroke-width="0.5" stroke="rgb(139,139,139)" stroke-linejoin="miter" stroke-linecap="square" stroke-miterlimit="3"/><path d=" M 125.15 151.993 C 139.794 148.866 153.373 149.466 165.806 153.708" id="Tracé" fill="none" vector-effect="non-scaling-stroke" stroke-width="0.5" stroke="rgb(139,139,139)" stroke-linejoin="miter" stroke-linecap="square" stroke-miterlimit="3"/><path d=" M 76.562 145.313 C 60.794 139.889 45.704 138.729 31.39 141.748" id="Tracé" fill="none" vector-effect="non-scaling-stroke" stroke-width="0.5" stroke="rgb(139,139,139)" stroke-linejoin="miter" stroke-linecap="square" stroke-miterlimit="3"/><path d=" M 76.413 151.993 C 61.768 148.866 48.189 149.466 35.757 153.708" id="Tracé" fill="none" vector-effect="non-scaling-stroke" stroke-width="0.5" stroke="rgb(139,139,139)" stroke-linejoin="miter" stroke-linecap="square" stroke-miterlimit="3"/></g></g><g id="monkey"><g id="ears"><ellipse vector-effect="non-scaling-stroke" cx="173.55371900826447" cy="106.61157024793397" rx="26.446280991735534" ry="24.793388429752063" id="innerR" fill="rgb(253,228,197)"/><ellipse vector-effect="non-scaling-stroke" cx="26.446280991735538" cy="106.61157024793397" rx="26.446280991735538" ry="24.793388429752063" id="innerL" fill="rgb(253,228,197)"/></g><g id="body"><ellipse vector-effect="non-scaling-stroke" cx="100" cy="99.99999999999999" rx="73.55371900826447" ry="64.46280991735534" id="outer" fill="rgb(179,135,30)"/><path d=" M 100 78.512 Q 128.306 52.066 156.198 78.512 C 184.091 104.959 153.409 139.05 146.281 144.628 C 132.465 155.441 116.315 158.611 100 157.851 L 100 157.851 C 83.685 158.611 67.535 155.441 53.719 144.628 C 46.591 139.05 15.909 104.959 43.802 78.512 Q 71.694 52.066 100 78.512 Z " fill-rule="evenodd" id="inner" fill="rgb(253,228,197)"/></g><g id="eyes"><circle vector-effect="non-scaling-stroke" cx="72.52066115702465" cy="111.62373091197325" r="8.264462809917362" id="outerL" fill="rgb(101,76,7)"/><circle vector-effect="non-scaling-stroke" cx="127.47933884297521" cy="111.62373091197351" r="8.264462809917354" id="outerR" fill="rgb(101,76,7)"/></g><g id="nose"><ellipse vector-effect="non-scaling-stroke" cx="100.82644628099173" cy="123.19397884585773" rx="4.95867768595042" ry="3.305785123966942" id="outer" fill="rgb(101,76,7)"/></g><g id="mouth"><mask id="_mask_dQAKIsiyfFIi0y8mwvXLlXLHeXdafn8R"><path d=" M 101.233 126.5 L 101.233 131.405 Q 98.212 134.711 94.507 134.711 C 91.859 134.711 88.965 132.03 86.371 128.092" id="Tracé" fill="white" stroke="none"/></mask><path d=" M 101.233 126.5 L 101.233 131.405 Q 98.212 134.711 94.507 134.711 C 91.859 134.711 88.965 132.03 86.371 128.092" id="Tracé" fill="none"/><path d=" M 101.233 126.5 L 101.233 131.405 Q 98.212 134.711 94.507 134.711 C 91.859 134.711 88.965 132.03 86.371 128.092" id="Tracé" fill="none" mask="url(#_mask_dQAKIsiyfFIi0y8mwvXLlXLHeXdafn8R)" vector-effect="non-scaling-stroke" stroke-width="1" stroke="rgb(101,76,7)" stroke-linejoin="miter" stroke-linecap="square" stroke-miterlimit="3"/><mask id="_mask_u6a7Ov5zRCdeUCYzoPBBm8u1dDosafiN"><path d=" M 100.42 126.5 L 100.42 131.405 Q 103.441 134.711 107.145 134.711 C 109.794 134.711 112.688 132.03 115.282 128.092" id="Tracé" fill="white" stroke="none"/></mask><path d=" M 100.42 126.5 L 100.42 131.405 Q 103.441 134.711 107.145 134.711 C 109.794 134.711 112.688 132.03 115.282 128.092" id="Tracé" fill="none"/><path d=" M 100.42 126.5 L 100.42 131.405 Q 103.441 134.711 107.145 134.711 C 109.794 134.711 112.688 132.03 115.282 128.092" id="Tracé" fill="none" mask="url(#_mask_u6a7Ov5zRCdeUCYzoPBBm8u1dDosafiN)" vector-effect="non-scaling-stroke" stroke-width="1" stroke="rgb(101,76,7)" stroke-linejoin="miter" stroke-linecap="square" stroke-miterlimit="3"/></g></g><g id="frog"><g id="body"><path d=" M 168.938 77.519 C 181.274 87.546 188.636 100.338 188.636 114.256 C 188.636 146.584 174.329 164.463 100 164.463 C 27.731 164.463 11.364 146.584 11.364 114.256 C 11.364 101.322 17.721 89.361 28.485 79.666 C 25.284 75.174 23.45 69.669 23.45 63.74 C 23.45 48.174 36.088 35.537 51.653 35.537 C 65.008 35.537 76.208 44.84 79.039 57.343 C 85.757 56.254 92.778 55.682 100 55.682 C 105.836 55.682 111.542 56.055 117.04 56.812 C 120.078 44.581 131.15 35.537 144.318 35.537 C 159.884 35.537 172.521 48.174 172.521 63.74 C 172.521 68.741 171.216 73.44 168.938 77.519 Z " fill-rule="evenodd" id="outer" fill="rgb(179,202,107)"/></g><g id="nose"><circle vector-effect="non-scaling-stroke" cx="91.94214876033062" cy="104.0289256198347" r="4.028925619834709" id="outerL" fill="rgb(105,120,61)"/><circle vector-effect="non-scaling-stroke" cx="108.05785123966946" cy="104.0289256198347" r="4.028925619834709" id="outerR" fill="rgb(105,120,61)"/></g><g id="mouth"><path d=" M 55.682 113.718 L 100 132.231 L 55.682 113.718 Z  M 144.318 113.718 L 100 132.231 L 144.318 113.718 Z " fill-rule="evenodd" id="Samengestelde vorm" fill="none" vector-effect="non-scaling-stroke" stroke-width="3" stroke="rgb(105,120,61)" stroke-linejoin="miter" stroke-linecap="square" stroke-miterlimit="3"/></g><g id="eyes"><circle vector-effect="non-scaling-stroke" cx="53.66735537190088" cy="65.75413223140494" r="14.101239669421474" id="outerL" fill="rgb(105,120,61)"/><circle vector-effect="non-scaling-stroke" cx="144.70188902007084" cy="65.75413223140495" r="14.101239669421489" id="outerR" fill="rgb(105,120,61)"/></g></g></svg>