<?xml version="1.0" encoding="UTF-8" standalone="no"?><!-- Generator: Gravit.io --><svg xmlns="http://www.w3.org/2000/svg" xmlns:xlink="http://www.w3.org/1999/xlink" style="isolation:isolate" viewBox="0 0 200 200" width="200pt" height="200pt"><g id="backgrounds"><ellipse vector-effect="non-scaling-stroke" cx="100" cy="175.5" rx="100" ry="24.5" id="present" fill="rgb(244,244,244)"/></g><g id="chicken"><g id="facial"><path d=" M 98.704 54.817 Q 61.457 20.755 71.304 13.717 Q 81.151 6.68 88.429 17.142 Q 91.212 0.579 98.704 0.017 Q 106.196 -0.545 112.404 17.142 Q 122.037 7.028 129.529 13.717 Q 137.021 20.407 98.704 54.817 Z " id="outer" fill="rgb(237,123,63)"/></g><g id="body"><path d=" M 100 167.807 L 100 167.807 Q 175.35 168.824 175.35 113.007 C 175.35 52.748 139.567 24.752 100 27.382 L 100 27.382 C 60.433 24.752 24.65 52.748 24.65 113.007 Q 24.65 168.824 100 167.807 Z " fill-rule="evenodd" id="outer" fill="rgb(247,245,230)"/></g><g id="hair"><path d=" M 91.628 113.025 L 105.78 113.025 Q 106.382 129.823 98.478 129.823 Q 90.728 129.823 91.628 113.025 Z " id="outer" fill="rgb(237,123,63)"/></g><g id="eyes"><ellipse vector-effect="non-scaling-stroke" cx="129.55774590329275" cy="85.75938005975291" rx="9.759380059752914" ry="11.759380059752914" id="outerR" fill="rgb(255,255,255)"/><circle vector-effect="non-scaling-stroke" cx="130.1585629815228" cy="87.90393701847718" r="4.903937018477173" id="innerR" fill="rgb(101,75,37)"/><ellipse vector-effect="non-scaling-stroke" cx="69.24061994024709" cy="85.75938005975291" rx="9.759380059752914" ry="11.759380059752914" id="outerL" fill="rgb(255,255,255)"/><circle vector-effect="non-scaling-stroke" cx="69.84143701847717" cy="87.90393701847718" r="4.90393701847718" id="innerL" fill="rgb(101,75,37)"/></g><g id="nose"><path d=" M 98.704 113.025 L 98.704 113.025 C 86.105 113.368 80.362 111.051 81.579 106.175 C 83.151 99.877 88.167 96.29 98.704 95.9 L 98.704 95.9 C 109.242 96.29 114.257 99.877 115.829 106.175 C 117.046 111.051 111.304 113.368 98.704 113.025 Z " fill-rule="evenodd" id="outer" fill="rgb(245,213,44)"/></g></g><g id="mouse"><g id="ears"><circle vector-effect="non-scaling-stroke" cx="37.50000000000008" cy="64.0625" r="37.50000000000001" id="outerL" fill="rgb(187,189,201)"/><circle vector-effect="non-scaling-stroke" cx="42.1875" cy="68.75000000000009" r="26.562499999999986" id="innerL" fill="rgb(252,227,220)"/><circle vector-effect="non-scaling-stroke" cx="162.5" cy="64.0625" r="37.5" id="outerR" fill="rgb(187,189,201)"/><circle vector-effect="non-scaling-stroke" cx="159.3749999999999" cy="68.75000000000009" r="26.5625" id="innerR" fill="rgb(252,227,220)"/></g><g id="body"><ellipse vector-effect="non-scaling-stroke" cx="99.99999999999996" cy="109.37499999999994" rx="70.3125" ry="57.81249999999999" id="outer" fill="rgb(187,189,201)"/></g><g id="eyes"><circle vector-effect="non-scaling-stroke" cx="74.40624999999993" cy="125.96875000000003" r="9.968749999999986" id="outerL" fill="rgb(255,255,255)"/><circle vector-effect="non-scaling-stroke" cx="76.43749999999991" cy="128" r="5.000000000000014" id="innerL" fill="rgb(112,116,120)"/><circle vector-effect="non-scaling-stroke" cx="124.96874999999997" cy="125.96875000000003" r="9.968749999999993" id="outerR" fill="rgb(255,255,255)"/><circle vector-effect="non-scaling-stroke" cx="122.93749999999999" cy="128" r="5.000000000000014" id="innerR" fill="rgb(112,116,120)"/></g><g id="nose"><circle vector-effect="non-scaling-stroke" cx="99.99999999999996" cy="167.1875" r="6.25" id="outer" fill="rgb(112,116,120)"/></g><g id="hairs"><path d=" M 125 145.312 C 140.768 139.889 155.859 138.729 170.172 141.748" id="Tracé" fill="none" vector-effect="non-scaling-stroke" stroke-width="0.5" stroke="rgb(139,139,139)" stroke-linejoin="miter" stroke-linecap="square" stroke-miterlimit="3"/><path d=" M 125.15 151.993 C 139.794 148.866 153.373 149.466 165.806 153.708" id="Tracé" fill="none" vector-effect="non-scaling-stroke" stroke-width="0.5" stroke="rgb(139,139,139)" stroke-linejoin="miter" stroke-linecap="square" stroke-miterlimit="3"/><path d=" M 76.562 145.313 C 60.794 139.889 45.704 138.729 31.39 141.748" id="Tracé" fill="none" vector-effect="non-scaling-stroke" stroke-width="0.5" stroke="rgb(139,139,139)" stroke-linejoin="miter" stroke-linecap="square" stroke-miterlimit="3"/><path d=" M 76.413 151.993 C 61.768 148.866 48.189 149.466 35.757 153.708" id="Tracé" fill="none" vector-effect="non-scaling-stroke" stroke-width="0.5" stroke="rgb(139,139,139)" stroke-linejoin="miter" stroke-linecap="square" stroke-miterlimit="3"/></g></g><g id="monkey"><g id="ears"><ellipse vector-effect="non-scaling-stroke" cx="173.55371900826447" cy="106.61157024793397" rx="26.446280991735534" ry="24.793388429752063" id="innerR" fill="rgb(253,228,197)"/><ellipse vector-effect="non-scaling-stroke" cx="26.446280991735538" cy="106.61157024793397" rx="26.446280991735538" ry="24.793388429752063" id="innerL" fill="rgb(253,228,197)"/></g><g id="body"><ellipse vector-effect="non-scaling-stroke" cx="100" cy="99.99999999999999" rx="73.55371900826447" ry="64.46280991735534" id="outer" fill="rgb(179,135,30)"/><path d=" M 100 78.512 Q 128.306 52.066 156.198 78.512 C 184.091 104.959 153.409 139.05 146.281 144.628 C 132.465 155.441 116.315 158.611 100 157.851 L 100 157.851 C 83.685 158.611 67.535 155.441 53.719 144.628 C 46.591 139.05 15.909 104.959 43.802 78.512 Q 71.694 52.066 100 78.512 Z " fill-rule="evenodd" id="inner" fill="rgb(253,228,197)"/></g><g id="eyes"><circle vector-effect="non-scaling-stroke" cx="67.94846512252566" cy="109.9440968609453" r="9.944096860945304" id="outerL" fill="rgb(255,255,255)"/><circle vector-effect="non-scaling-stroke" cx="69.55590313905468" cy="111.55153487747427" r="5.55153487747431" id="innerL" fill="rgb(101,76,7)"/><circle vector-effect="non-scaling-stroke" cx="132.0515348774743" cy="109.9440968609453" r="9.944096860945308" id="outerR" fill="rgb(255,255,255)"/><circle vector-effect="non-scaling-stroke" cx="130.44409686094525" cy="111.55153487747425" r="5.551534877474303" id="innerR" fill="rgb(101,76,7)"/></g><g id="nose"><ellipse vector-effect="non-scaling-stroke" cx="100.82644628099173" cy="123.19397884585773" rx="4.95867768595042" ry="3.305785123966942" id="outer" fill="rgb(101,76,7)"/></g><g id="mouth"><mask id="_mask_Y77kyxBFt8AjvDqGB7YWUAzp2aP72f31"><path d=" M 101.233 126.5 L 101.233 131.405 Q 98.212 134.711 94.507 134.711 C 91.859 134.711 88.965 132.03 86.371 128.092" id="Tracé" fill="white" stroke="none"/></mask><path d=" M 101.233 126.5 L 101.233 131.405 Q 98.212 134.711 94.507 134.711 C 91.859 134.711 88.965 132.03 86.371 128.092" id="Tracé" fill="none"/><path d=" M 101.233 126.5 L 101.233 131.405 Q 98.212 134.711 94.507 134.711 C 91.859 134.711 88.965 132.03 86.371 128.092" id="Tracé" fill="none" mask="url(#_mask_Y77kyxBFt8AjvDqGB7YWUAzp2aP72f31)" vector-effect="non-scaling-stroke" stroke-width="1" stroke="rgb(101,76,7)" stroke-linejoin="miter" stroke-linecap="square" stroke-miterlimit="3"/><mask id="_mask_ZcClLCaeqGx1H3h2Cx1eHvvGOdvx2Nir"><path d=" M 100.42 126.5 L 100.42 131.405 Q 103.441 134.711 107.145 134.711 C 109.794 134.711 112.688 132.03 115.282 128.092" id="Tracé" fill="white" stroke="none"/></mask><path d=" M 100.42 126.5 L 100.42 131.405 Q 103.441 134.711 107.145 134.711 C 109.794 134.711 112.688 132.03 115.282 128.092" id="Tracé" fill="none"/><path d=" M 100.42 126.5 L 100.42 131.405 Q 103.441 134.711 107.145 134.711 C 109.794 134.711 112.688 132.03 115.282 128.092" id="Tracé" fill="none" mask="url(#_mask_ZcClLCaeqGx1H3h2Cx1eHvvGOdvx2Nir)" vector-effect="non-scaling-stroke" stroke-width="1" stroke="rgb(101,76,7)" stroke-linejoin="miter" stroke-linecap="square" stroke-miterlimit="3"/></g></g><g id="frog"><g id="body"><path d=" M 168.938 77.519 C 181.274 87.546 188.636 100.338 188.636 114.256 C 188.636 146.584 174.329 164.463 100 164.463 C 27.731 164.463 11.364 146.584 11.364 114.256 C 11.364 101.322 17.721 89.361 28.485 79.666 C 25.284 75.174 23.45 69.669 23.45 63.74 C 23.45 48.174 36.088 35.537 51.653 35.537 C 65.008 35.537 76.208 44.84 79.039 57.343 C 85.757 56.254 92.778 55.682 100 55.682 C 105.836 55.682 111.542 56.055 117.04 56.812 C 120.078 44.581 131.15 35.537 144.318 35.537 C 159.884 35.537 172.521 48.174 172.521 63.74 C 172.521 68.741 171.216 73.44 168.938 77.519 Z " fill-rule="evenodd" id="outer" fill="rgb(179,202,107)"/></g><g id="nose"><circle vector-effect="non-scaling-stroke" cx="91.94214876033062" cy="104.0289256198347" r="4.028925619834709" id="outerL" fill="rgb(105,120,61)"/><circle vector-effect="non-scaling-stroke" cx="108.05785123966946" cy="104.0289256198347" r="4.028925619834709" id="outerR" fill="rgb(105,120,61)"/></g><g id="mouth"><path d=" M 55.682 113.718 L 100 132.231 L 55.682 113.718 Z  M 144.318 113.718 L 100 132.231 L 144.318 113.718 Z " fill-rule="evenodd" id="Samengestelde vorm" fill="none" vector-effect="non-scaling-stroke" stroke-width="3" stroke="rgb(105,120,61)" stroke-linejoin="miter" stroke-linecap="square" stroke-miterlimit="3"/></g><g id="eyes"><circle vector-effect="non-scaling-stroke" cx="53.66735537190088" cy="65.75413223140494" r="14.101239669421474" id="outerL" fill="rgb(255,255,255)"/><circle vector-effect="non-scaling-stroke" cx="55.95661157024798" cy="68.04338842975203" r="7.043388429752014" id="innerL" fill="rgb(105,120,61)"/><circle vector-effect="non-scaling-stroke" cx="143.8987603305785" cy="65.75413223140494" r="14.10123966942146" id="outerR" fill="rgb(255,255,255)"/><circle vector-effect="non-scaling-stroke" cx="141.60950413223142" cy="68.04338842975203" r="7.043388429752014" id="innerR" fill="rgb(105,120,61)"/></g></g><g id="owl"><g id="body"><path d=" M 171.805 73.697 C 182.317 82.835 188.49 94.044 188.49 106.147 C 188.49 136.973 148.447 162 99.125 162 C 49.803 162 9.76 136.973 9.76 106.147 C 9.76 95.545 14.497 85.629 22.691 77.169 C 22.63 60.565 28.537 49.607 32.102 31.676 C 34.007 22.089 49.382 40.224 63.033 55.084 C 74.052 51.993 86.274 50.294 99.125 50.294 C 110.824 50.294 122 51.702 132.219 54.291 C 145.682 39.594 160.553 22.257 162.425 31.676 C 165.738 48.342 171.075 58.984 171.805 73.697 Z " fill-rule="evenodd" id="outer" fill="rgb(183,154,126)"/><path d=" M 99.125 98.932 C 94.61 85.793 82.136 76.359 67.475 76.359 C 48.979 76.359 33.963 91.375 33.963 109.87 C 33.963 128.366 48.979 143.382 67.475 143.382 C 82.136 143.382 94.61 133.948 99.125 120.808 C 103.64 133.948 116.115 143.382 130.775 143.382 C 149.271 143.382 164.287 128.366 164.287 109.87 C 164.287 91.375 149.271 76.359 130.775 76.359 C 116.115 76.359 103.64 85.793 99.125 98.932 Z " fill-rule="evenodd" id="inner" fill="rgb(217,205,183)"/></g><g id="eyes"><circle vector-effect="non-scaling-stroke" cx="73.06044852365626" cy="112.25591690089615" r="16.755916900896224" id="outerL" fill="rgb(255,255,255)"/><circle vector-effect="non-scaling-stroke" cx="76.5221518109518" cy="112.25591690089607" r="10.908777465471715" id="innerL" fill="rgb(142,120,97)"/><circle vector-effect="non-scaling-stroke" cx="125.18996777088883" cy="112.25591690089615" r="16.755916900896224" id="outerR" fill="rgb(255,255,255)"/><circle vector-effect="non-scaling-stroke" cx="121.7282644835931" cy="112.25591690089607" r="10.908777465471715" id="innerR" fill="rgb(142,120,97)"/></g><g id="nose"><path d=" M 99.125 154.619 C 99.431 154.619 99.229 154.619 99.545 154.619 C 101.176 154.619 114.019 140.098 114.019 132.278 Q 114.019 120.177 99.125 121.108 L 99.125 121.108 Q 84.231 120.177 84.231 132.278 C 84.231 140.098 97.075 154.619 98.705 154.619 C 99.022 154.619 98.82 154.619 99.125 154.619 L 99.125 154.619 Z " fill-rule="evenodd" id="outer" fill="rgb(255,237,125)"/></g></g><g id="pig"><g id="body"><path d=" M 177.39 88.274 C 178.445 92.284 178.966 96.449 178.966 100.71 C 178.966 135.896 143.45 164.463 99.706 164.463 C 55.961 164.463 20.446 135.896 20.446 100.71 C 20.446 96.449 20.967 92.284 22.021 88.274 C -4.017 95.312 11.99 73.802 23.42 56.868 Q 34.87 39.906 47.154 53.001 C 61.146 43.021 79.552 36.958 99.706 36.958 C 119.859 36.958 138.265 43.021 152.257 53.001 Q 164.541 39.906 175.991 56.868 C 187.421 73.802 203.428 95.312 177.39 88.274 Z " fill-rule="evenodd" id="outer" fill="rgb(248,204,195)"/></g><g id="hair"><path d=" M 95.436 45.431 C 103.329 45.431 115.993 37.538 113.057 33.684 Q 110.12 29.829 104.246 33.684 Q 108.651 19 98.373 19 Q 88.094 19 95.436 33.684 Q 80.752 23.038 80.752 33.684 C 80.752 44.33 87.543 45.431 95.436 45.431 Z " id="outer" fill="rgb(255,241,118)"/></g><g id="nose"><ellipse vector-effect="non-scaling-stroke" cx="99.70559451036915" cy="125.65688976957532" rx="31.014770555327473" ry="24.946663272763402" id="outer" fill="rgb(240,163,155)"/><ellipse vector-effect="non-scaling-stroke" cx="85.92125204133477" cy="125.65688976957534" rx="5.169128425887919" ry="11.087405899005965" id="innerL" fill="rgb(193,133,125)"/><ellipse vector-effect="non-scaling-stroke" cx="113.4899369794038" cy="125.65688976957534" rx="5.169128425887919" ry="11.087405899005965" id="innerR" fill="rgb(193,133,125)"/></g><g id="eyes"><circle vector-effect="non-scaling-stroke" cx="66.10625974209778" cy="92.95653385798003" r="14.645863873349057" id="outerL" fill="rgb(255,255,255)"/><circle vector-effect="non-scaling-stroke" cx="68.69082395504165" cy="94.24881596445194" r="6.461410532359892" id="innerL" fill="rgb(143,115,112)"/><circle vector-effect="non-scaling-stroke" cx="133.3049292786407" cy="92.95653385798016" r="14.645863873349064" id="outerR" fill="rgb(255,255,255)"/><circle vector-effect="non-scaling-stroke" cx="130.72036506569668" cy="94.24881596445194" r="6.461410532359885" id="innerR" fill="rgb(143,115,112)"/></g></g></svg>