<?xml version="1.0" encoding="UTF-8" standalone="no"?><!-- Generator: Gravit.io --><svg xmlns="http://www.w3.org/2000/svg" xmlns:xlink="http://www.w3.org/1999/xlink" style="isolation:isolate" viewBox="0 0 200 200" width="200pt" height="200pt"><g id="backgrounds"><ellipse vector-effect="non-scaling-stroke" cx="100" cy="175.5" rx="100" ry="24.5" id="present" fill="rgb(244,244,244)"/></g><g id="dolphin"><g id="body"><path d=" M 40.561 82.115 C 48.243 53.071 77.683 31.43 112.781 31.43 C 153.744 31.43 187 60.907 187 97.215 C 187 133.523 153.744 163 112.781 163 C 85.827 163 62.209 150.236 49.192 131.171 C 45.936 130.886 42.59 130.273 39.233 129.266 C 21.4 123.912 9.964 109.431 13.711 96.948 C 16.583 87.381 27.544 81.746 40.561 82.115 Z " fill-rule="evenodd" id="outer" fill="rgb(128,201,236)"/><path d=" M 156.331 150.46 C 144.102 158.351 129.049 163 112.781 163 C 99.865 163 87.715 160.069 77.162 154.875 C 85.009 145.671 100.842 139.385 119.075 139.385 C 134.214 139.385 147.699 143.719 156.331 150.46 Z " fill-rule="evenodd" id="inner" fill="rgb(241,241,241)"/></g><g id="facial"><path d=" M 141.089 51.752 C 144.271 47.161 152.209 47.145 158.803 51.715 C 165.397 56.286 168.167 63.724 164.985 68.315 C 161.803 72.906 153.866 72.922 147.272 68.351 C 140.678 63.781 137.907 56.343 141.089 51.752 Z " id="outer" fill="rgb(192,230,248)"/></g><g id="eyes"><circle vector-effect="non-scaling-stroke" cx="124.58857354753076" cy="97.21498292847842" r="15.18115778573577" id="outerR" fill="rgb(255,255,255)"/><circle vector-effect="non-scaling-stroke" cx="122.90177823800454" cy="98.90177823800451" r="6.747181238104794" id="innerR" fill="rgb(62,112,135)"/></g><g id="mouth"><mask id="_mask_7Qx0ZWOJmrmH2NMfilGVp2zx8mrm8aEy"><path d=" M 18.32 109.023 C 28.52 118.063 36.077 108.745 44.781 112.396 C 54.613 116.521 67.066 111.777 68.924 105.649" id="inner" fill="white" stroke="none"/></mask><path d=" M 18.32 109.023 C 28.52 118.063 36.077 108.745 44.781 112.396 C 54.613 116.521 67.066 111.777 68.924 105.649" id="inner" fill="none"/><path d=" M 18.32 109.023 C 28.52 118.063 36.077 108.745 44.781 112.396 C 54.613 116.521 67.066 111.777 68.924 105.649" id="inner" fill="none" mask="url(#_mask_7Qx0ZWOJmrmH2NMfilGVp2zx8mrm8aEy)" vector-effect="non-scaling-stroke" stroke-width="2" stroke="rgb(62,112,135)" stroke-linejoin="miter" stroke-linecap="square" stroke-miterlimit="3"/></g></g></svg>