<?xml version="1.0" encoding="UTF-8" standalone="no"?><!-- Generator: Gravit.io --><svg xmlns="http://www.w3.org/2000/svg" xmlns:xlink="http://www.w3.org/1999/xlink" style="isolation:isolate" viewBox="0 0 200 200" width="200pt" height="200pt"><defs><clipPath id="_clipPath_7gAWzTtqH9TpbZ93oVaDZY9sMLR7ejnR"><rect width="200" height="200"/></clipPath></defs><g clip-path="url(#_clipPath_7gAWzTtqH9TpbZ93oVaDZY9sMLR7ejnR)"><g id="backgrounds"><ellipse vector-effect="non-scaling-stroke" cx="100" cy="175.5" rx="100" ry="24.5" id="present" fill="rgb(244,244,244)"/></g><g id="fox"><g id="body"><path d=" M 75.784 45.593 C 83.361 43.164 91.512 41.843 100 41.843 C 108.488 41.843 116.639 43.164 124.216 45.593 Q 147.585 13.236 152.448 14.85 C 160.305 17.458 162.766 35.865 159.734 70.183 C 167.94 80.859 172.75 93.837 172.75 107.826 C 172.75 144.242 140.152 173.808 100 173.808 C 59.848 173.808 27.25 144.242 27.25 107.826 C 27.25 93.837 32.06 80.859 40.266 70.183 C 37.234 35.865 39.695 17.458 47.552 14.85 Q 52.415 13.236 75.784 45.593 Z " fill-rule="evenodd" id="outer" fill="rgb(248,193,105)"/><path d=" M 149.271 24.98 Q 145.593 23.759 127.542 48.687 C 136.638 53.834 145.294 57.67 154.161 65.529 C 156.905 38.15 155.25 26.965 149.271 24.98 Z  M 50.271 24.98 Q 53.948 23.759 72 48.687 C 62.904 53.834 54.248 57.67 45.381 65.529 C 42.637 38.15 44.291 26.965 50.271 24.98 Z " fill-rule="evenodd" id="inner" fill="rgb(255,243,196)"/></g><g id="facial"><path d=" M 71.661 92.176 C 71.661 88.207 74.883 84.985 78.852 84.985 C 82.82 84.985 86.042 88.207 86.042 92.176 C 86.042 96.144 82.82 99.366 78.852 99.366 C 74.883 99.366 71.661 96.144 71.661 92.176 L 71.661 92.176 Z  M 113.958 92.176 C 113.958 88.207 117.18 84.985 121.148 84.985 C 125.117 84.985 128.339 88.207 128.339 92.176 C 128.339 96.144 125.117 99.366 121.148 99.366 C 117.18 99.366 113.958 96.144 113.958 92.176 L 113.958 92.176 Z  M 66.163 150.122 C 66.163 136.116 81.704 124.744 100.846 124.744 C 119.988 124.744 135.529 136.116 135.529 150.122 C 135.529 164.129 119.988 175.5 100.846 175.5 C 81.704 175.5 66.163 164.129 66.163 150.122 Z " fill-rule="evenodd" id="Samengestelde vorm" fill="rgb(255,243,196)"/></g><g id="eyes"><circle vector-effect="non-scaling-stroke" cx="67.00872093023256" cy="119.66860465116287" r="11.84302325581395" id="Ellips" fill="rgb(255,255,255)"/><circle vector-effect="non-scaling-stroke" cx="67.96656976744188" cy="120.40261627906992" r="6.033430232558121" id="Ellips" fill="rgb(115,85,44)"/><circle vector-effect="non-scaling-stroke" cx="132.9912790697674" cy="119.66860465116287" r="11.843023255813954" id="Ellips" fill="rgb(255,255,255)"/><circle vector-effect="non-scaling-stroke" cx="131.03343023255812" cy="120.40261627906993" r="6.033430232558118" id="Ellips" fill="rgb(115,85,44)"/></g><g id="nose"><ellipse vector-effect="non-scaling-stroke" cx="100.00000000000001" cy="146.73837209302332" rx="10.151162790697668" ry="6.767441860465112" id="outer" fill="rgb(115,85,44)"/></g><g id="mouth"><mask id="_mask_Z1lqDf7HawUoEveTfZkoQWkhxXpVyabC"><path d=" M 100.523 153.506 L 100.523 159.821 Q 96.634 164.077 91.865 164.077 C 88.456 164.077 84.729 160.626 81.39 155.556" id="Tracé" fill="white" stroke="none"/></mask><path d=" M 100.523 153.506 L 100.523 159.821 Q 96.634 164.077 91.865 164.077 C 88.456 164.077 84.729 160.626 81.39 155.556" id="Tracé" fill="none"/><path d=" M 100.523 153.506 L 100.523 159.821 Q 96.634 164.077 91.865 164.077 C 88.456 164.077 84.729 160.626 81.39 155.556" id="Tracé" fill="none" mask="url(#_mask_Z1lqDf7HawUoEveTfZkoQWkhxXpVyabC)" vector-effect="non-scaling-stroke" stroke-width="2" stroke="rgb(101,76,7)" stroke-linejoin="miter" stroke-linecap="square" stroke-miterlimit="3"/><mask id="_mask_AtFw1KSnbn4uXfD3aOYprFlNyxrhvUSw"><path d=" M 99.477 153.506 L 99.477 159.821 Q 103.366 164.077 108.135 164.077 C 111.544 164.077 115.271 160.626 118.61 155.556" id="Tracé" fill="white" stroke="none"/></mask><path d=" M 99.477 153.506 L 99.477 159.821 Q 103.366 164.077 108.135 164.077 C 111.544 164.077 115.271 160.626 118.61 155.556" id="Tracé" fill="none"/><path d=" M 99.477 153.506 L 99.477 159.821 Q 103.366 164.077 108.135 164.077 C 111.544 164.077 115.271 160.626 118.61 155.556" id="Tracé" fill="none" mask="url(#_mask_AtFw1KSnbn4uXfD3aOYprFlNyxrhvUSw)" vector-effect="non-scaling-stroke" stroke-width="2" stroke="rgb(101,76,7)" stroke-linejoin="miter" stroke-linecap="square" stroke-miterlimit="3"/></g></g></g></svg>