<?xml version="1.0" encoding="UTF-8" standalone="no"?><!-- Generator: Gravit.io --><svg xmlns="http://www.w3.org/2000/svg" xmlns:xlink="http://www.w3.org/1999/xlink" style="isolation:isolate" viewBox="0 0 200 200" width="200pt" height="200pt"><g id="backgrounds"><ellipse vector-effect="non-scaling-stroke" cx="100" cy="175.5" rx="100" ry="24.5" id="present" fill="rgb(244,244,244)"/></g><g id="frog"><g id="body"><path d=" M 168.938 77.519 C 181.274 87.546 188.636 100.338 188.636 114.256 C 188.636 146.584 174.329 164.463 100 164.463 C 27.731 164.463 11.364 146.584 11.364 114.256 C 11.364 101.322 17.721 89.361 28.485 79.666 C 25.284 75.174 23.45 69.669 23.45 63.74 C 23.45 48.174 36.088 35.537 51.653 35.537 C 65.008 35.537 76.208 44.84 79.039 57.343 C 85.757 56.254 92.778 55.682 100 55.682 C 105.836 55.682 111.542 56.055 117.04 56.812 C 120.078 44.581 131.15 35.537 144.318 35.537 C 159.884 35.537 172.521 48.174 172.521 63.74 C 172.521 68.741 171.216 73.44 168.938 77.519 Z " fill-rule="evenodd" id="outer" fill="rgb(179,202,107)"/></g><g id="nose"><circle vector-effect="non-scaling-stroke" cx="91.94214876033062" cy="104.0289256198347" r="4.028925619834709" id="outerL" fill="rgb(105,120,61)"/><circle vector-effect="non-scaling-stroke" cx="108.05785123966946" cy="104.0289256198347" r="4.028925619834709" id="outerR" fill="rgb(105,120,61)"/></g><g id="mouth"><path d=" M 55.682 113.718 L 100 132.231 L 55.682 113.718 Z  M 144.318 113.718 L 100 132.231 L 144.318 113.718 Z " fill-rule="evenodd" id="Samengestelde vorm" fill="none" vector-effect="non-scaling-stroke" stroke-width="3" stroke="rgb(105,120,61)" stroke-linejoin="miter" stroke-linecap="square" stroke-miterlimit="3"/></g><g id="eyes"><circle vector-effect="non-scaling-stroke" cx="53.66735537190088" cy="65.75413223140494" r="14.101239669421474" id="outerL" fill="rgb(255,255,255)"/><circle vector-effect="non-scaling-stroke" cx="55.95661157024798" cy="68.04338842975203" r="7.043388429752014" id="innerL" fill="rgb(105,120,61)"/><circle vector-effect="non-scaling-stroke" cx="143.8987603305785" cy="65.75413223140494" r="14.10123966942146" id="outerR" fill="rgb(255,255,255)"/><circle vector-effect="non-scaling-stroke" cx="141.60950413223142" cy="68.04338842975203" r="7.043388429752014" id="innerR" fill="rgb(105,120,61)"/></g><g id="attributes"/></g></svg>