<?xml version="1.0" encoding="UTF-8" standalone="no"?><!-- Generator: Gravit.io --><svg xmlns="http://www.w3.org/2000/svg" xmlns:xlink="http://www.w3.org/1999/xlink" style="isolation:isolate" viewBox="0 0 200 200" width="200pt" height="200pt"><g id="backgrounds"><ellipse vector-effect="non-scaling-stroke" cx="100" cy="175.5" rx="100" ry="24.5" id="present" fill="rgb(244,244,244)"/></g><g id="horse"><g id="body"><path d=" M 122.274 43.016 C 115.85 41.25 108.429 40.387 100 40.435 C 91.693 40.387 84.365 41.226 78 42.936 C 72.254 29.122 64.192 18.959 53.756 15.771 Q 43.531 33.912 57.584 54.876 C 49.342 64.117 46.007 77.797 47.59 95.927 C 51.378 139.308 84.585 173 100 173 C 115.415 173 148.622 139.308 152.41 95.927 C 153.981 77.925 150.704 64.31 142.589 55.071 Q 156.821 33.996 146.548 15.771 C 136.093 18.965 128.021 29.159 122.274 43.016 Z " fill-rule="evenodd" id="outer" fill="rgb(150,102,64)"/><path d=" M 100 136.006 L 100 136.006 C 82.172 135.945 73.996 141.099 75.515 151.492 C 77.285 163.598 92.799 173 100 173 C 107.201 173 122.715 163.598 124.485 151.492 C 126.004 141.099 117.828 135.945 100 136.006 Z " fill-rule="evenodd" id="inner" fill="rgb(196,159,106)"/></g><g id="ears"><path d=" M 143.161 25.02 Q 131.215 29.066 127.746 46.6 C 130.303 47.998 133.417 50.084 136.995 52.766 C 143.161 45.444 148.1 29.758 143.161 25.02 Z " id="innerR" fill="rgb(80,50,24)"/><path d=" M 56.839 25.02 Q 68.785 29.066 72.254 46.6 C 69.697 47.998 66.583 50.084 63.005 52.766 C 56.839 45.444 51.9 29.758 56.839 25.02 Z " id="innerL" fill="rgb(80,50,24)"/></g><g id="nose"><path d=" M 90.798 159.663 C 90.355 157.149 91.355 154.869 93.031 154.573 C 94.706 154.277 96.427 156.078 96.87 158.591 C 97.314 161.105 96.313 163.385 94.638 163.681 C 92.962 163.977 91.242 162.176 90.798 159.663 Z " id="Ellips" fill="rgb(80,50,24)"/><path d=" M 109.144 159.663 C 109.587 157.149 108.587 154.869 106.911 154.573 C 105.236 154.277 103.515 156.078 103.072 158.591 C 102.628 161.105 103.628 163.385 105.304 163.681 C 106.98 163.977 108.7 162.176 109.144 159.663 Z " id="Ellips" fill="rgb(80,50,24)"/></g><g id="eyes"><circle vector-effect="non-scaling-stroke" cx="73.7952022173372" cy="108.25873488989183" r="12.3316695447825" id="Ellips" fill="rgb(255,255,255)"/><circle vector-effect="non-scaling-stroke" cx="76.8781196035328" cy="111.34165227608746" r="6.16583477239125" id="Ellips" fill="rgb(80,50,24)"/><circle vector-effect="non-scaling-stroke" cx="126.20479778266281" cy="108.25873488989183" r="12.331669544782493" id="Ellips" fill="rgb(255,255,255)"/><circle vector-effect="non-scaling-stroke" cx="123.12188039646716" cy="111.34165227608746" r="6.165834772391243" id="Ellips" fill="rgb(80,50,24)"/></g><g id="hair"><path d=" M 100 86.678 C 101.127 81.651 101.158 76.544 100 71.264 C 96.817 72.333 94.792 74.419 93.834 77.43 C 82.17 67.368 77.063 58.15 78.42 49.683 C 80.082 39.307 83.044 28.296 100 28.103 C 116.956 27.91 122.672 40.423 124.663 46.6 C 126.483 52.244 125.486 61.524 121.58 74.347 C 119.511 73.23 117.487 71.206 115.415 68.181 C 111.682 79.641 106.575 85.838 100 86.678 Z " id="outer" fill="rgb(80,50,24)"/></g><g id="attributes"><g id="subglasses"><g id="Groep"><path d=" M 50.622 103.295 L 47.493 103.295 C 46.57 103.295 45.821 102.547 45.821 101.624 C 45.821 100.701 46.57 99.952 47.493 99.952 L 50.623 99.952 C 51.546 99.952 52.294 100.701 52.294 101.624 C 52.294 102.547 51.545 103.295 50.622 103.295 Z " id="Tracé" fill="rgb(195,196,199)"/><path d=" M 152.507 103.295 L 149.377 103.295 C 148.454 103.295 147.706 102.547 147.706 101.624 C 147.706 100.701 148.454 99.952 149.377 99.952 L 152.507 99.952 C 153.431 99.952 154.179 100.701 154.179 101.624 C 154.179 102.547 153.43 103.295 152.507 103.295 Z " id="Tracé" fill="rgb(195,196,199)"/></g><g opacity="0.2"><path d=" M 68.193 112.072 L 55.236 122.367 C 56.263 123.907 57.496 125.301 58.899 126.51 C 59.328 126.305 59.725 126.029 60.073 125.688 L 70.749 115.185 L 68.193 112.072 Z " id="Tracé" fill="rgb(0,0,0)"/></g><g opacity="0.2"><path d=" M 131.807 112.072 L 144.764 122.367 C 143.737 123.907 142.504 125.301 141.101 126.51 C 140.672 126.305 140.274 126.029 139.927 125.688 L 129.251 115.185 L 131.807 112.072 Z " id="Tracé" fill="rgb(0,0,0)"/></g><path d=" M 109.309 101.175 C 107.887 101.175 106.807 100.664 105.763 100.17 C 104.434 99.541 102.927 98.828 100 98.828 C 97.074 98.828 95.567 99.541 94.238 100.17 C 93.194 100.664 92.114 101.175 90.692 101.175 L 90.692 97.832 C 91.334 97.832 91.859 97.598 92.808 97.149 C 94.292 96.447 96.323 95.486 100.001 95.486 C 103.678 95.486 105.71 96.447 107.193 97.149 C 108.142 97.598 108.668 97.832 109.309 97.832 L 109.309 101.175 L 109.309 101.175 Z " id="Tracé" fill="rgb(195,196,199)"/><path d=" M 89.781 96.066 C 86.223 92.704 81.07 91 74.466 91 C 68.788 91 64.187 92.263 60.745 94.752 C 60.744 94.752 60.742 94.751 60.742 94.751 C 57.844 96.711 53.552 98.784 50.8 99.298 C 50.138 99.422 49.656 99.992 49.656 100.665 L 49.656 102.297 C 49.656 103.064 50.131 103.749 50.849 104.019 C 52.114 104.494 53.93 105.846 53.93 109.688 C 53.93 120.831 63.143 129.896 74.466 129.896 C 85.789 129.896 95.001 120.831 95.001 109.688 C 95.001 103.921 93.245 99.338 89.781 96.066 Z " id="Tracé" fill="rgb(237,163,178)"/><path d=" M 90.307 109.688 C 90.307 101.12 85.59 95.694 74.466 95.694 C 63.341 95.694 58.624 101.12 58.624 109.688 C 58.624 118.257 65.717 125.203 74.466 125.203 C 83.215 125.203 90.307 118.257 90.307 109.688 Z " id="Tracé" fill="rgb(57,64,73)"/><g opacity="0.2"><path d=" M 74.465 95.694 C 63.341 95.694 58.624 101.12 58.624 109.688 C 58.624 109.865 58.632 110.04 58.637 110.216 C 58.92 102.1 63.682 97.001 74.465 97.001 C 85.248 97.001 90.011 102.1 90.293 110.216 C 90.299 110.04 90.307 109.865 90.307 109.688 C 90.307 101.12 85.59 95.694 74.465 95.694 Z " id="Tracé" fill="rgb(0,0,0)"/></g><path d=" M 110.219 96.066 C 113.777 92.704 118.93 91 125.534 91 C 131.212 91 135.813 92.263 139.255 94.752 C 139.256 94.752 139.258 94.751 139.258 94.751 C 142.156 96.711 146.448 98.784 149.2 99.298 C 149.862 99.422 150.344 99.992 150.344 100.665 L 150.344 102.297 C 150.344 103.064 149.869 103.749 149.151 104.019 C 147.886 104.494 146.07 105.846 146.07 109.688 C 146.07 120.831 136.857 129.896 125.534 129.896 C 114.211 129.896 104.999 120.831 104.999 109.688 C 104.999 103.921 106.755 99.338 110.219 96.066 Z " id="Tracé" fill="rgb(237,163,178)"/><path d=" M 109.693 109.688 C 109.693 101.12 114.41 95.694 125.534 95.694 C 136.659 95.694 141.376 101.12 141.376 109.688 C 141.376 118.257 134.283 125.203 125.534 125.203 C 116.785 125.203 109.693 118.257 109.693 109.688 Z " id="Tracé" fill="rgb(57,64,73)"/><g opacity="0.2"><path d=" M 125.535 95.694 C 136.659 95.694 141.376 101.12 141.376 109.688 C 141.376 109.865 141.368 110.04 141.363 110.216 C 141.08 102.1 136.318 97.001 125.535 97.001 C 114.752 97.001 109.989 102.1 109.707 110.216 C 109.701 110.04 109.693 109.865 109.693 109.688 C 109.693 101.12 114.41 95.694 125.535 95.694 Z " id="Tracé" fill="rgb(0,0,0)"/></g><g id="Groep"><g opacity="0.15"><path d=" M 74.465 95.694 C 63.341 95.694 58.624 101.12 58.624 109.688 C 58.624 112.87 59.603 115.826 61.28 118.288 L 82.56 97.008 C 80.372 96.152 77.69 95.694 74.465 95.694 Z " id="Tracé" fill="rgb(255,255,255)"/></g><g opacity="0.15"><path d=" M 139.813 102.398 L 118.581 123.63 C 120.68 124.636 123.039 125.203 125.534 125.203 C 134.284 125.203 141.376 118.257 141.376 109.688 C 141.376 106.897 140.872 104.443 139.813 102.398 Z " id="Tracé" fill="rgb(255,255,255)"/></g></g></g></g></g></svg>