<?xml version="1.0" encoding="UTF-8" standalone="no"?><!-- Generator: Gravit.io --><svg xmlns="http://www.w3.org/2000/svg" xmlns:xlink="http://www.w3.org/1999/xlink" style="isolation:isolate" viewBox="0 0 200 200" width="200pt" height="200pt"><g id="backgrounds"><ellipse vector-effect="non-scaling-stroke" cx="100" cy="175.5" rx="100" ry="24.5" id="present" fill="rgb(244,244,244)"/></g><g id="owl"><g id="body"><path d=" M 171.805 73.697 C 182.317 82.835 188.49 94.044 188.49 106.147 C 188.49 136.973 148.447 162 99.125 162 C 49.803 162 9.76 136.973 9.76 106.147 C 9.76 95.545 14.497 85.629 22.691 77.169 C 22.63 60.565 28.537 49.607 32.102 31.676 C 34.007 22.089 49.382 40.224 63.033 55.084 C 74.052 51.993 86.274 50.294 99.125 50.294 C 110.824 50.294 122 51.702 132.219 54.291 C 145.682 39.594 160.553 22.257 162.425 31.676 C 165.738 48.342 171.075 58.984 171.805 73.697 Z " fill-rule="evenodd" id="outer" fill="rgb(183,154,126)"/><path d=" M 99.125 98.932 C 94.61 85.793 82.136 76.359 67.475 76.359 C 48.979 76.359 33.963 91.375 33.963 109.87 C 33.963 128.366 48.979 143.382 67.475 143.382 C 82.136 143.382 94.61 133.948 99.125 120.808 C 103.64 133.948 116.115 143.382 130.775 143.382 C 149.271 143.382 164.287 128.366 164.287 109.87 C 164.287 91.375 149.271 76.359 130.775 76.359 C 116.115 76.359 103.64 85.793 99.125 98.932 Z " fill-rule="evenodd" id="inner" fill="rgb(217,205,183)"/></g><g id="eyes"><circle vector-effect="non-scaling-stroke" cx="73.06044852365626" cy="112.25591690089615" r="16.755916900896224" id="outerL" fill="rgb(255,255,255)"/><circle vector-effect="non-scaling-stroke" cx="76.5221518109518" cy="112.25591690089607" r="10.908777465471715" id="innerL" fill="rgb(142,120,97)"/><circle vector-effect="non-scaling-stroke" cx="125.18996777088883" cy="112.25591690089615" r="16.755916900896224" id="outerR" fill="rgb(255,255,255)"/><circle vector-effect="non-scaling-stroke" cx="121.7282644835931" cy="112.25591690089607" r="10.908777465471715" id="innerR" fill="rgb(142,120,97)"/></g><g id="nose"><path d=" M 99.125 154.619 C 99.431 154.619 99.229 154.619 99.545 154.619 C 101.176 154.619 114.019 140.098 114.019 132.278 Q 114.019 120.177 99.125 121.108 L 99.125 121.108 Q 84.231 120.177 84.231 132.278 C 84.231 140.098 97.075 154.619 98.705 154.619 C 99.022 154.619 98.82 154.619 99.125 154.619 L 99.125 154.619 Z " fill-rule="evenodd" id="outer" fill="rgb(255,237,125)"/></g><g id="attributes"/></g></svg>