<?xml version="1.0" encoding="UTF-8" standalone="no"?><!-- Generator: Gravit.io --><svg xmlns="http://www.w3.org/2000/svg" xmlns:xlink="http://www.w3.org/1999/xlink" style="isolation:isolate" viewBox="0 0 200 200" width="200pt" height="200pt"><g id="backgrounds"><ellipse vector-effect="non-scaling-stroke" cx="100" cy="175.5" rx="100" ry="24.5" id="present" fill="rgb(244,244,244)"/></g><g id="pig"><g id="body"><path d=" M 177.39 91.441 C 178.445 95.452 178.966 99.616 178.966 103.878 C 178.966 139.064 143.45 167.63 99.706 167.63 C 55.961 167.63 20.446 139.064 20.446 103.878 C 20.446 99.616 20.967 95.452 22.021 91.441 C -4.017 98.48 11.99 76.97 23.42 60.036 Q 34.87 43.074 47.154 56.168 C 61.146 46.188 79.552 40.125 99.706 40.125 C 119.859 40.125 138.265 46.188 152.257 56.168 Q 164.541 43.074 175.991 60.036 C 187.421 76.97 203.428 98.48 177.39 91.441 Z " fill-rule="evenodd" id="outer" fill="rgb(248,204,195)"/></g><g id="hair"><path d=" M 95.436 48.599 C 103.329 48.599 115.993 40.706 113.057 36.851 Q 110.12 32.997 104.246 36.851 Q 108.651 22.168 98.373 22.168 Q 88.094 22.168 95.436 36.851 Q 80.752 26.206 80.752 36.851 C 80.752 47.497 87.543 48.599 95.436 48.599 Z " id="outer" fill="rgb(255,241,118)"/></g><g id="nose"><ellipse vector-effect="non-scaling-stroke" cx="99.70559451036915" cy="128.82455239543106" rx="31.014770555327473" ry="24.946663272763402" id="outer" fill="rgb(240,163,155)"/><ellipse vector-effect="non-scaling-stroke" cx="85.92125204133477" cy="128.8245523954311" rx="5.169128425887919" ry="11.087405899005965" id="innerL" fill="rgb(193,133,125)"/><ellipse vector-effect="non-scaling-stroke" cx="113.4899369794038" cy="128.8245523954311" rx="5.169128425887919" ry="11.087405899005965" id="innerR" fill="rgb(193,133,125)"/></g><g id="eyes"><circle vector-effect="non-scaling-stroke" cx="66.10625974209776" cy="96.12419648383579" r="14.645863873349057" id="outerL" fill="rgb(255,255,255)"/><circle vector-effect="non-scaling-stroke" cx="68.69082395504164" cy="97.41647859030768" r="6.461410532359892" id="innerL" fill="rgb(143,115,112)"/><circle vector-effect="non-scaling-stroke" cx="133.30492927864069" cy="96.12419648383592" r="14.645863873349064" id="outerR" fill="rgb(255,255,255)"/><circle vector-effect="non-scaling-stroke" cx="130.72036506569668" cy="97.41647859030768" r="6.461410532359885" id="innerR" fill="rgb(143,115,112)"/></g><g id="attributes"><g id="sunglasses"><path d=" M 88.286 109.5 L 87.464 109.162 C 85.922 108.529 85.187 106.765 85.82 105.224 L 88.16 99.532 C 88.793 97.991 90.557 97.255 92.098 97.889 L 92.92 98.227 C 94.462 98.86 95.198 100.624 94.564 102.165 L 92.224 107.856 C 91.591 109.398 89.828 110.134 88.286 109.5 Z " id="Tracé" fill="rgb(194,220,224)"/><g opacity="0.2"><path d=" M 92.098 97.889 C 90.557 97.255 88.794 97.991 88.16 99.532 L 85.821 105.224 C 85.187 106.765 85.923 108.528 87.464 109.162 L 88.287 109.5 C 88.328 109.517 88.37 109.529 88.412 109.544 C 90.322 106.435 91.718 102.603 92.305 97.973 L 92.098 97.889 Z " id="Tracé" fill="rgb(0,0,0)"/></g><path d=" M 111.714 109.5 L 112.536 109.162 C 114.078 108.529 114.813 106.765 114.18 105.224 L 111.84 99.532 C 111.207 97.991 109.443 97.255 107.902 97.889 L 107.08 98.227 C 105.538 98.86 104.802 100.623 105.436 102.165 L 107.776 107.856 C 108.409 109.398 110.172 110.134 111.714 109.5 Z " id="Tracé" fill="rgb(194,220,224)"/><g opacity="0.2"><path d=" M 107.902 97.889 C 109.443 97.255 111.207 97.991 111.84 99.532 L 114.18 105.224 C 114.813 106.765 114.078 108.528 112.536 109.162 L 111.714 109.5 C 111.673 109.517 111.63 109.529 111.589 109.544 C 109.679 106.435 108.282 102.603 107.696 97.973 L 107.902 97.889 Z " id="Tracé" fill="rgb(0,0,0)"/></g><g id="Groep"><path d=" M 110.777 90.989 C 110.458 90.989 110.135 90.905 109.842 90.729 C 105.303 88.007 102.544 86.946 100 86.946 C 97.456 86.946 94.697 88.007 90.159 90.729 C 89.296 91.247 88.178 90.968 87.66 90.105 C 87.143 89.242 87.422 88.124 88.285 87.606 C 92.589 85.023 96.229 83.303 100 83.303 C 103.772 83.303 107.412 85.023 111.715 87.606 C 112.578 88.124 112.858 89.242 112.34 90.105 C 111.999 90.674 111.396 90.989 110.777 90.989 Z " id="Tracé" fill="rgb(233,210,134)"/><path d=" M 48.177 93.393 L 43.118 93.393 C 42.112 93.393 41.297 92.578 41.297 91.572 C 41.297 90.566 42.112 89.751 43.118 89.751 L 48.177 89.751 C 49.183 89.751 49.998 90.566 49.998 91.572 C 49.998 92.578 49.183 93.393 48.177 93.393 Z " id="Tracé" fill="rgb(233,210,134)"/><path d=" M 156.882 93.393 L 151.823 93.393 C 150.817 93.393 150.002 92.578 150.002 91.572 C 150.002 90.566 150.817 89.751 151.823 89.751 L 156.882 89.751 C 157.888 89.751 158.703 90.566 158.703 91.572 C 158.703 92.578 157.888 93.393 156.882 93.393 Z " id="Tracé" fill="rgb(233,210,134)"/></g><g id="Groep"><path d=" M 68.053 79.168 C 56.468 79.168 47.014 82.155 47.014 96.31 C 47.014 106.7 48.091 108.342 52.079 112.934 C 55.843 117.267 59.138 119.168 68.053 119.168 C 78.053 119.168 91.299 111.375 91.299 91.635 C 91.3 79.168 77.273 79.168 68.053 79.168 Z " id="Tracé" fill="rgb(95,102,111)"/><path d=" M 131.947 79.168 C 143.532 79.168 152.986 82.155 152.986 96.31 C 152.986 106.7 151.909 108.342 147.921 112.934 C 144.157 117.267 140.862 119.168 131.947 119.168 C 121.947 119.168 108.701 111.375 108.701 91.635 C 108.701 79.168 122.727 79.168 131.947 79.168 Z " id="Tracé" fill="rgb(95,102,111)"/></g><g id="Groep"><g opacity="0.15"><path d=" M 68.053 79.168 C 56.468 79.168 47.014 82.155 47.014 96.31 C 47.014 99.654 47.126 102.088 47.411 104.009 L 72.217 79.203 C 70.768 79.168 69.362 79.168 68.053 79.168 Z " id="Tracé" fill="rgb(255,255,255)"/></g><g opacity="0.15"><path d=" M 151.758 88.679 L 123.179 117.258 C 126.115 118.56 129.158 119.167 131.947 119.167 C 140.862 119.167 144.157 117.267 147.921 112.934 C 151.909 108.342 152.986 106.7 152.986 96.31 C 152.986 93.281 152.552 90.765 151.758 88.679 Z " id="Tracé" fill="rgb(255,255,255)"/></g></g></g></g></g></svg>